<?xml version="1.0" standalone="no"?>
<!DOCTYPE svg PUBLIC "-//W3C//DTD SVG 1.1//EN" "http://www.w3.org/Graphics/SVG/1.1/DTD/svg11.dtd">
<svg version="1.1" width="1200" height="470" onload="init(evt)" viewBox="0 0 1200 470" xmlns="http://www.w3.org/2000/svg" xmlns:xlink="http://www.w3.org/1999/xlink">
<!-- Flame graph stack visualization. See https://github.com/brendangregg/FlameGraph for latest version, and http://www.brendangregg.com/flamegraphs.html for examples. -->
<!-- NOTES:  -->
<defs>
	<linearGradient id="background" y1="0" y2="1" x1="0" x2="0" >
		<stop stop-color="#eeeeee" offset="5%" />
		<stop stop-color="#eeeeb0" offset="95%" />
	</linearGradient>
</defs>
<style type="text/css">
	text { font-family:Verdana; font-size:12px; fill:rgb(0,0,0); }
	#search, #ignorecase { opacity:0.1; cursor:pointer; }
	#search:hover, #search.show, #ignorecase:hover, #ignorecase.show { opacity:1; }
	#subtitle { text-anchor:middle; font-color:rgb(160,160,160); }
	#title { text-anchor:middle; font-size:17px}
	#unzoom { cursor:pointer; }
	#frames > *:hover { stroke:black; stroke-width:0.5; cursor:pointer; }
	.hide { display:none; }
	.parent { opacity:0.5; }
</style>
<script type="text/ecmascript">
<![CDATA[
	"use strict";
	var details, searchbtn, unzoombtn, matchedtxt, svg, searching, currentSearchTerm, ignorecase, ignorecaseBtn;
	function init(evt) {
		details = document.getElementById("details").firstChild;
		searchbtn = document.getElementById("search");
		ignorecaseBtn = document.getElementById("ignorecase");
		unzoombtn = document.getElementById("unzoom");
		matchedtxt = document.getElementById("matched");
		svg = document.getElementsByTagName("svg")[0];
		searching = 0;
		currentSearchTerm = null;

		// use GET parameters to restore a flamegraphs state.
		var params = get_params();
		if (params.x && params.y)
			zoom(find_group(document.querySelector('[x="' + params.x + '"][y="' + params.y + '"]')));
                if (params.s) search(params.s);
	}

	// event listeners
	window.addEventListener("click", function(e) {
		var target = find_group(e.target);
		if (target) {
			if (target.nodeName == "a") {
				if (e.ctrlKey === false) return;
				e.preventDefault();
			}
			if (target.classList.contains("parent")) unzoom(true);
			zoom(target);
			if (!document.querySelector('.parent')) {
				// we have basically done a clearzoom so clear the url
				var params = get_params();
				if (params.x) delete params.x;
				if (params.y) delete params.y;
				history.replaceState(null, null, parse_params(params));
				unzoombtn.classList.add("hide");
				return;
			}

			// set parameters for zoom state
			var el = target.querySelector("rect");
			if (el && el.attributes && el.attributes.y && el.attributes._orig_x) {
				var params = get_params()
				params.x = el.attributes._orig_x.value;
				params.y = el.attributes.y.value;
				history.replaceState(null, null, parse_params(params));
			}
		}
		else if (e.target.id == "unzoom") clearzoom();
		else if (e.target.id == "search") search_prompt();
		else if (e.target.id == "ignorecase") toggle_ignorecase();
	}, false)

	// mouse-over for info
	// show
	window.addEventListener("mouseover", function(e) {
		var target = find_group(e.target);
		if (target) details.nodeValue = "Function: " + g_to_text(target);
	}, false)

	// clear
	window.addEventListener("mouseout", function(e) {
		var target = find_group(e.target);
		if (target) details.nodeValue = ' ';
	}, false)

	// ctrl-F for search
	// ctrl-I to toggle case-sensitive search
	window.addEventListener("keydown",function (e) {
		if (e.keyCode === 114 || (e.ctrlKey && e.keyCode === 70)) {
			e.preventDefault();
			search_prompt();
		}
		else if (e.ctrlKey && e.keyCode === 73) {
			e.preventDefault();
			toggle_ignorecase();
		}
	}, false)

	// functions
	function get_params() {
		var params = {};
		var paramsarr = window.location.search.substr(1).split('&');
		for (var i = 0; i < paramsarr.length; ++i) {
			var tmp = paramsarr[i].split("=");
			if (!tmp[0] || !tmp[1]) continue;
			params[tmp[0]]  = decodeURIComponent(tmp[1]);
		}
		return params;
	}
	function parse_params(params) {
		var uri = "?";
		for (var key in params) {
			uri += key + '=' + encodeURIComponent(params[key]) + '&';
		}
		if (uri.slice(-1) == "&")
			uri = uri.substring(0, uri.length - 1);
		if (uri == '?')
			uri = window.location.href.split('?')[0];
		return uri;
	}
	function find_child(node, selector) {
		var children = node.querySelectorAll(selector);
		if (children.length) return children[0];
	}
	function find_group(node) {
		var parent = node.parentElement;
		if (!parent) return;
		if (parent.id == "frames") return node;
		return find_group(parent);
	}
	function orig_save(e, attr, val) {
		if (e.attributes["_orig_" + attr] != undefined) return;
		if (e.attributes[attr] == undefined) return;
		if (val == undefined) val = e.attributes[attr].value;
		e.setAttribute("_orig_" + attr, val);
	}
	function orig_load(e, attr) {
		if (e.attributes["_orig_"+attr] == undefined) return;
		e.attributes[attr].value = e.attributes["_orig_" + attr].value;
		e.removeAttribute("_orig_"+attr);
	}
	function g_to_text(e) {
		var text = find_child(e, "title").firstChild.nodeValue;
		return (text)
	}
	function g_to_func(e) {
		var func = g_to_text(e);
		// if there's any manipulation we want to do to the function
		// name before it's searched, do it here before returning.
		return (func);
	}
	function update_text(e) {
		var r = find_child(e, "rect");
		var t = find_child(e, "text");
		var w = parseFloat(r.attributes.width.value) -3;
		var txt = find_child(e, "title").textContent.replace(/\([^(]*\)$/,"");
		t.attributes.x.value = parseFloat(r.attributes.x.value) + 3;

		// Smaller than this size won't fit anything
		if (w < 2 * 12 * 0.59) {
			t.textContent = "";
			return;
		}

		t.textContent = txt;
		var sl = t.getSubStringLength(0, txt.length);
		// check if only whitespace or if we can fit the entire string into width w
		if (/^ *$/.test(txt) || sl < w)
			return;

		// this isn't perfect, but gives a good starting point
		// and avoids calling getSubStringLength too often
		var start = Math.floor((w/sl) * txt.length);
		for (var x = start; x > 0; x = x-2) {
			if (t.getSubStringLength(0, x + 2) <= w) {
				t.textContent = txt.substring(0, x) + "..";
				return;
			}
		}
		t.textContent = "";
	}

	// zoom
	function zoom_reset(e) {
		if (e.attributes != undefined) {
			orig_load(e, "x");
			orig_load(e, "width");
		}
		if (e.childNodes == undefined) return;
		for (var i = 0, c = e.childNodes; i < c.length; i++) {
			zoom_reset(c[i]);
		}
	}
	function zoom_child(e, x, ratio) {
		if (e.attributes != undefined) {
			if (e.attributes.x != undefined) {
				orig_save(e, "x");
				e.attributes.x.value = (parseFloat(e.attributes.x.value) - x - 10) * ratio + 10;
				if (e.tagName == "text")
					e.attributes.x.value = find_child(e.parentNode, "rect[x]").attributes.x.value + 3;
			}
			if (e.attributes.width != undefined) {
				orig_save(e, "width");
				e.attributes.width.value = parseFloat(e.attributes.width.value) * ratio;
			}
		}

		if (e.childNodes == undefined) return;
		for (var i = 0, c = e.childNodes; i < c.length; i++) {
			zoom_child(c[i], x - 10, ratio);
		}
	}
	function zoom_parent(e) {
		if (e.attributes) {
			if (e.attributes.x != undefined) {
				orig_save(e, "x");
				e.attributes.x.value = 10;
			}
			if (e.attributes.width != undefined) {
				orig_save(e, "width");
				e.attributes.width.value = parseInt(svg.width.baseVal.value) - (10 * 2);
			}
		}
		if (e.childNodes == undefined) return;
		for (var i = 0, c = e.childNodes; i < c.length; i++) {
			zoom_parent(c[i]);
		}
	}
	function zoom(node) {
		var attr = find_child(node, "rect").attributes;
		var width = parseFloat(attr.width.value);
		var xmin = parseFloat(attr.x.value);
		var xmax = parseFloat(xmin + width);
		var ymin = parseFloat(attr.y.value);
		var ratio = (svg.width.baseVal.value - 2 * 10) / width;

		// XXX: Workaround for JavaScript float issues (fix me)
		var fudge = 0.0001;

		unzoombtn.classList.remove("hide");

		var el = document.getElementById("frames").children;
		for (var i = 0; i < el.length; i++) {
			var e = el[i];
			var a = find_child(e, "rect").attributes;
			var ex = parseFloat(a.x.value);
			var ew = parseFloat(a.width.value);
			var upstack;
			// Is it an ancestor
			if (0 == 0) {
				upstack = parseFloat(a.y.value) > ymin;
			} else {
				upstack = parseFloat(a.y.value) < ymin;
			}
			if (upstack) {
				// Direct ancestor
				if (ex <= xmin && (ex+ew+fudge) >= xmax) {
					e.classList.add("parent");
					zoom_parent(e);
					update_text(e);
				}
				// not in current path
				else
					e.classList.add("hide");
			}
			// Children maybe
			else {
				// no common path
				if (ex < xmin || ex + fudge >= xmax) {
					e.classList.add("hide");
				}
				else {
					zoom_child(e, xmin, ratio);
					update_text(e);
				}
			}
		}
		search();
	}
	function unzoom(dont_update_text) {
		unzoombtn.classList.add("hide");
		var el = document.getElementById("frames").children;
		for(var i = 0; i < el.length; i++) {
			el[i].classList.remove("parent");
			el[i].classList.remove("hide");
			zoom_reset(el[i]);
			if(!dont_update_text) update_text(el[i]);
		}
		search();
	}
	function clearzoom() {
		unzoom();

		// remove zoom state
		var params = get_params();
		if (params.x) delete params.x;
		if (params.y) delete params.y;
		history.replaceState(null, null, parse_params(params));
	}

	// search
	function toggle_ignorecase() {
		ignorecase = !ignorecase;
		if (ignorecase) {
			ignorecaseBtn.classList.add("show");
		} else {
			ignorecaseBtn.classList.remove("show");
		}
		reset_search();
		search();
	}
	function reset_search() {
		var el = document.querySelectorAll("#frames rect");
		for (var i = 0; i < el.length; i++) {
			orig_load(el[i], "fill")
		}
		var params = get_params();
		delete params.s;
		history.replaceState(null, null, parse_params(params));
	}
	function search_prompt() {
		if (!searching) {
			var term = prompt("Enter a search term (regexp " +
			    "allowed, eg: ^ext4_)"
			    + (ignorecase ? ", ignoring case" : "")
			    + "\nPress Ctrl-i to toggle case sensitivity", "");
			if (term != null) search(term);
		} else {
			reset_search();
			searching = 0;
			currentSearchTerm = null;
			searchbtn.classList.remove("show");
			searchbtn.firstChild.nodeValue = "Search"
			matchedtxt.classList.add("hide");
			matchedtxt.firstChild.nodeValue = ""
		}
	}
	function search(term) {
		if (term) currentSearchTerm = term;
		if (currentSearchTerm === null) return;

		var re = new RegExp(currentSearchTerm, ignorecase ? 'i' : '');
		var el = document.getElementById("frames").children;
		var matches = new Object();
		var maxwidth = 0;
		for (var i = 0; i < el.length; i++) {
			var e = el[i];
			var func = g_to_func(e);
			var rect = find_child(e, "rect");
			if (func == null || rect == null)
				continue;

			// Save max width. Only works as we have a root frame
			var w = parseFloat(rect.attributes.width.value);
			if (w > maxwidth)
				maxwidth = w;

			if (func.match(re)) {
				// highlight
				var x = parseFloat(rect.attributes.x.value);
				orig_save(rect, "fill");
				rect.attributes.fill.value = "rgb(230,0,230)";

				// remember matches
				if (matches[x] == undefined) {
					matches[x] = w;
				} else {
					if (w > matches[x]) {
						// overwrite with parent
						matches[x] = w;
					}
				}
				searching = 1;
			}
		}
		if (!searching)
			return;
		var params = get_params();
		params.s = currentSearchTerm;
		history.replaceState(null, null, parse_params(params));

		searchbtn.classList.add("show");
		searchbtn.firstChild.nodeValue = "Reset Search";

		// calculate percent matched, excluding vertical overlap
		var count = 0;
		var lastx = -1;
		var lastw = 0;
		var keys = Array();
		for (k in matches) {
			if (matches.hasOwnProperty(k))
				keys.push(k);
		}
		// sort the matched frames by their x location
		// ascending, then width descending
		keys.sort(function(a, b){
			return a - b;
		});
		// Step through frames saving only the biggest bottom-up frames
		// thanks to the sort order. This relies on the tree property
		// where children are always smaller than their parents.
		var fudge = 0.0001;	// JavaScript floating point
		for (var k in keys) {
			var x = parseFloat(keys[k]);
			var w = matches[keys[k]];
			if (x >= lastx + lastw - fudge) {
				count += w;
				lastx = x;
				lastw = w;
			}
		}
		// display matched percent
		matchedtxt.classList.remove("hide");
		var pct = 100 * count / maxwidth;
		if (pct != 100) pct = pct.toFixed(1)
		matchedtxt.firstChild.nodeValue = "Matched: " + pct + "%";
	}
]]>
</script>
<rect x="0.0" y="0" width="1200.0" height="470.0" fill="url(#background)"  />
<text id="title" x="600.00" y="24" >Flame Graph</text>
<text id="details" x="10.00" y="453" > </text>
<text id="unzoom" x="10.00" y="24" class="hide">Reset Zoom</text>
<text id="search" x="1090.00" y="24" >Search</text>
<text id="ignorecase" x="1174.00" y="24" >ic</text>
<text id="matched" x="1090.00" y="453" > </text>
<g id="frames">
<g >
<title>vector_db_skeleton::db::VectorDB::bulk_insert (164,510,326 samples, 0.01%)</title><rect x="33.2" y="389" width="0.2" height="15.0" fill="rgb(231,123,29)" rx="2" ry="2" />
<text  x="36.25" y="399.5" ></text>
</g>
<g >
<title>exc_page_fault (1,242,752,620 samples, 0.10%)</title><rect x="13.3" y="357" width="1.2" height="15.0" fill="rgb(212,35,8)" rx="2" ry="2" />
<text  x="16.32" y="367.5" ></text>
</g>
<g >
<title>update_cfs_group (232,083,037 samples, 0.02%)</title><rect x="1189.4" y="229" width="0.2" height="15.0" fill="rgb(242,174,41)" rx="2" ry="2" />
<text  x="1192.41" y="239.5" ></text>
</g>
<g >
<title>__x64_sys_recvfrom (653,323,001 samples, 0.05%)</title><rect x="10.0" y="293" width="0.7" height="15.0" fill="rgb(224,88,21)" rx="2" ry="2" />
<text  x="13.01" y="303.5" ></text>
</g>
<g >
<title>perf_event_task_tick (2,289,223,980 samples, 0.19%)</title><rect x="1186.7" y="229" width="2.3" height="15.0" fill="rgb(205,3,0)" rx="2" ry="2" />
<text  x="1189.74" y="239.5" ></text>
</g>
<g >
<title>handle_pte_fault (102,150,785 samples, 0.01%)</title><rect x="35.4" y="293" width="0.1" height="15.0" fill="rgb(217,57,13)" rx="2" ry="2" />
<text  x="38.38" y="303.5" ></text>
</g>
<g >
<title>exc_page_fault (205,647,700 samples, 0.02%)</title><rect x="10.4" y="117" width="0.2" height="15.0" fill="rgb(212,35,8)" rx="2" ry="2" />
<text  x="13.38" y="127.5" ></text>
</g>
<g >
<title>_ZN80_$LT$serde_json..de..SeqAccess$LT$R$GT$$u20$as$u20$serde_core..de..SeqAccess$GT$17next_element_seed16has_next_element17h02bea57229d768bfE.llvm.8212355974874654970 (1,316,278,447 samples, 0.11%)</title><rect x="24.2" y="373" width="1.2" height="15.0" fill="rgb(209,20,4)" rx="2" ry="2" />
<text  x="27.15" y="383.5" ></text>
</g>
<g >
<title>asm_sysvec_apic_timer_interrupt (3,982,775,091 samples, 0.33%)</title><rect x="1186.0" y="373" width="3.9" height="15.0" fill="rgb(232,127,30)" rx="2" ry="2" />
<text  x="1188.95" y="383.5" ></text>
</g>
<g >
<title>perf_adjust_freq_unthr_context (2,289,223,980 samples, 0.19%)</title><rect x="1186.7" y="213" width="2.3" height="15.0" fill="rgb(236,146,35)" rx="2" ry="2" />
<text  x="1189.74" y="223.5" ></text>
</g>
<g >
<title>handle_pte_fault (1,124,437,093 samples, 0.09%)</title><rect x="13.4" y="293" width="1.1" height="15.0" fill="rgb(217,57,13)" rx="2" ry="2" />
<text  x="16.38" y="303.5" ></text>
</g>
<g >
<title>handle_mm_fault (177,044,515 samples, 0.01%)</title><rect x="10.4" y="85" width="0.2" height="15.0" fill="rgb(234,135,32)" rx="2" ry="2" />
<text  x="13.41" y="95.5" ></text>
</g>
<g >
<title>perf_event_task_tick (199,372,265 samples, 0.02%)</title><rect x="84.8" y="213" width="0.2" height="15.0" fill="rgb(205,3,0)" rx="2" ry="2" />
<text  x="87.77" y="223.5" ></text>
</g>
<g >
<title>tick_program_event (199,108,447 samples, 0.02%)</title><rect x="714.7" y="293" width="0.2" height="15.0" fill="rgb(241,166,39)" rx="2" ry="2" />
<text  x="717.69" y="303.5" ></text>
</g>
<g >
<title>__hrtimer_run_queues (3,617,694,753 samples, 0.30%)</title><rect x="1186.1" y="309" width="3.6" height="15.0" fill="rgb(237,150,35)" rx="2" ry="2" />
<text  x="1189.12" y="319.5" ></text>
</g>
<g >
<title>asm_sysvec_apic_timer_interrupt (5,041,213,564 samples, 0.42%)</title><rect x="710.1" y="357" width="5.0" height="15.0" fill="rgb(232,127,30)" rx="2" ry="2" />
<text  x="713.13" y="367.5" ></text>
</g>
<g >
<title>alloc_anon_folio (472,829,800 samples, 0.04%)</title><rect x="13.8" y="261" width="0.5" height="15.0" fill="rgb(223,86,20)" rx="2" ry="2" />
<text  x="16.80" y="271.5" ></text>
</g>
<g >
<title>tokio-runtime-w (29,213,470,237 samples, 2.43%)</title><rect x="10.0" y="405" width="28.7" height="15.0" fill="rgb(223,84,20)" rx="2" ry="2" />
<text  x="13.00" y="415.5" >to..</text>
</g>
<g >
<title>do_syscall_64 (653,323,001 samples, 0.05%)</title><rect x="10.0" y="325" width="0.7" height="15.0" fill="rgb(209,20,4)" rx="2" ry="2" />
<text  x="13.01" y="335.5" ></text>
</g>
<g >
<title>tick_nohz_highres_handler (332,265,406 samples, 0.03%)</title><rect x="84.8" y="277" width="0.3" height="15.0" fill="rgb(215,50,11)" rx="2" ry="2" />
<text  x="87.77" y="287.5" ></text>
</g>
<g >
<title>__sysvec_apic_timer_interrupt (4,642,534,912 samples, 0.39%)</title><rect x="710.3" y="325" width="4.6" height="15.0" fill="rgb(242,173,41)" rx="2" ry="2" />
<text  x="713.32" y="335.5" ></text>
</g>
<g >
<title>__handle_mm_fault (102,150,785 samples, 0.01%)</title><rect x="35.4" y="309" width="0.1" height="15.0" fill="rgb(207,9,2)" rx="2" ry="2" />
<text  x="38.38" y="319.5" ></text>
</g>
<g >
<title>_ZN10serde_json2de21Deserializer$LT$R$GT$13parse_integer17h0cc217bcb4a53466E.llvm.8212355974874654970 (1,377,550,272 samples, 0.11%)</title><rect x="22.7" y="373" width="1.4" height="15.0" fill="rgb(250,210,50)" rx="2" ry="2" />
<text  x="25.73" y="383.5" ></text>
</g>
<g >
<title>do_user_addr_fault (332,202,387 samples, 0.03%)</title><rect x="709.8" y="325" width="0.3" height="15.0" fill="rgb(228,108,25)" rx="2" ry="2" />
<text  x="712.77" y="335.5" ></text>
</g>
<g >
<title>handle_pte_fault (164,117,520 samples, 0.01%)</title><rect x="10.4" y="53" width="0.2" height="15.0" fill="rgb(217,57,13)" rx="2" ry="2" />
<text  x="13.42" y="63.5" ></text>
</g>
<g >
<title>asm_exc_page_fault (322,924,842 samples, 0.03%)</title><rect x="35.2" y="373" width="0.3" height="15.0" fill="rgb(225,93,22)" rx="2" ry="2" />
<text  x="38.23" y="383.5" ></text>
</g>
<g >
<title>&lt;serde_json::de::SeqAccess&lt;R&gt; as serde_core::de::SeqAccess&gt;::next_element_seed (1,814,069,969 samples, 0.15%)</title><rect x="18.2" y="373" width="1.8" height="15.0" fill="rgb(253,222,53)" rx="2" ry="2" />
<text  x="21.20" y="383.5" ></text>
</g>
<g >
<title>sysvec_apic_timer_interrupt (3,850,258,275 samples, 0.32%)</title><rect x="1186.1" y="357" width="3.8" height="15.0" fill="rgb(220,69,16)" rx="2" ry="2" />
<text  x="1189.08" y="367.5" ></text>
</g>
<g >
<title>update_load_avg (132,894,311 samples, 0.01%)</title><rect x="1189.3" y="213" width="0.1" height="15.0" fill="rgb(240,165,39)" rx="2" ry="2" />
<text  x="1192.28" y="223.5" ></text>
</g>
<g >
<title>alloc_pages_mpol (331,975,860 samples, 0.03%)</title><rect x="13.9" y="229" width="0.4" height="15.0" fill="rgb(254,227,54)" rx="2" ry="2" />
<text  x="16.94" y="239.5" ></text>
</g>
<g >
<title>do_vmi_align_munmap (105,696,150 samples, 0.01%)</title><rect x="35.1" y="261" width="0.1" height="15.0" fill="rgb(211,29,7)" rx="2" ry="2" />
<text  x="38.12" y="271.5" ></text>
</g>
<g >
<title>update_cfs_group (132,768,570 samples, 0.01%)</title><rect x="714.4" y="213" width="0.1" height="15.0" fill="rgb(242,174,41)" rx="2" ry="2" />
<text  x="717.40" y="223.5" ></text>
</g>
<g >
<title>_ZN10serde_json2de21Deserializer$LT$R$GT$13parse_integer17h0cc217bcb4a53466E.llvm.8212355974874654970 (850,003,331 samples, 0.07%)</title><rect x="26.3" y="389" width="0.8" height="15.0" fill="rgb(250,210,50)" rx="2" ry="2" />
<text  x="29.28" y="399.5" ></text>
</g>
<g >
<title>try_charge_memcg (172,388,085 samples, 0.01%)</title><rect x="13.6" y="245" width="0.2" height="15.0" fill="rgb(210,27,6)" rx="2" ry="2" />
<text  x="16.63" y="255.5" ></text>
</g>
<g >
<title>vma_alloc_folio (367,208,079 samples, 0.03%)</title><rect x="13.9" y="245" width="0.4" height="15.0" fill="rgb(245,187,44)" rx="2" ry="2" />
<text  x="16.90" y="255.5" ></text>
</g>
<g >
<title>do_user_addr_fault (183,405,100 samples, 0.02%)</title><rect x="35.3" y="341" width="0.2" height="15.0" fill="rgb(228,108,25)" rx="2" ry="2" />
<text  x="38.33" y="351.5" ></text>
</g>
<g >
<title>vector_db_skeleton::db::VectorDB::search (2,218,695,353 samples, 0.18%)</title><rect x="33.4" y="389" width="2.2" height="15.0" fill="rgb(223,85,20)" rx="2" ry="2" />
<text  x="36.41" y="399.5" ></text>
</g>
<g >
<title>perf_adjust_freq_unthr_context (199,372,265 samples, 0.02%)</title><rect x="84.8" y="197" width="0.2" height="15.0" fill="rgb(236,146,35)" rx="2" ry="2" />
<text  x="87.77" y="207.5" ></text>
</g>
<g >
<title>cfree (150,095,398 samples, 0.01%)</title><rect x="33.3" y="373" width="0.1" height="15.0" fill="rgb(223,86,20)" rx="2" ry="2" />
<text  x="36.26" y="383.5" ></text>
</g>
<g >
<title>exc_page_fault (365,414,443 samples, 0.03%)</title><rect x="709.8" y="341" width="0.3" height="15.0" fill="rgb(212,35,8)" rx="2" ry="2" />
<text  x="712.77" y="351.5" ></text>
</g>
<g >
<title>unmap_region (105,696,150 samples, 0.01%)</title><rect x="35.1" y="245" width="0.1" height="15.0" fill="rgb(219,64,15)" rx="2" ry="2" />
<text  x="38.12" y="255.5" ></text>
</g>
<g >
<title>&lt;serde_path_to_error::de::TrackedSeed&lt;X&gt; as serde_core::de::DeserializeSeed&gt;::deserialize (2,506,173,695 samples, 0.21%)</title><rect x="20.2" y="373" width="2.4" height="15.0" fill="rgb(209,22,5)" rx="2" ry="2" />
<text  x="23.16" y="383.5" ></text>
</g>
<g >
<title>clear_page_erms (209,917,501 samples, 0.02%)</title><rect x="14.0" y="181" width="0.2" height="15.0" fill="rgb(229,113,27)" rx="2" ry="2" />
<text  x="16.99" y="191.5" ></text>
</g>
<g >
<title>get_page_from_freelist (292,458,161 samples, 0.02%)</title><rect x="14.0" y="197" width="0.3" height="15.0" fill="rgb(252,218,52)" rx="2" ry="2" />
<text  x="16.98" y="207.5" ></text>
</g>
<g >
<title>serde_json::de::Deserializer&lt;R&gt;::parse_decimal (286,617,545 samples, 0.02%)</title><rect x="25.5" y="373" width="0.2" height="15.0" fill="rgb(228,108,25)" rx="2" ry="2" />
<text  x="28.46" y="383.5" ></text>
</g>
<g >
<title>scheduler_tick (3,119,338,006 samples, 0.26%)</title><rect x="1186.6" y="245" width="3.1" height="15.0" fill="rgb(246,190,45)" rx="2" ry="2" />
<text  x="1189.61" y="255.5" ></text>
</g>
<g >
<title>&lt;serde_path_to_error::de::TrackedSeed&lt;X&gt; as serde_core::de::DeserializeSeed&gt;::deserialize (834,260,404 samples, 0.07%)</title><rect x="11.1" y="389" width="0.9" height="15.0" fill="rgb(209,22,5)" rx="2" ry="2" />
<text  x="14.15" y="399.5" ></text>
</g>
<g >
<title>__sysvec_apic_timer_interrupt (3,717,360,677 samples, 0.31%)</title><rect x="1186.1" y="341" width="3.7" height="15.0" fill="rgb(242,173,41)" rx="2" ry="2" />
<text  x="1189.12" y="351.5" ></text>
</g>
<g >
<title>&lt;serde_core::de::impls::&lt;impl serde_core::de::Deserialize for alloc::vec::Vec&lt;T&gt;&gt;::deserialize::VecVisitor&lt;T&gt; as serde_core::de::Visitor&gt;::visit_seq (553,918,408 samples, 0.05%)</title><rect x="17.6" y="373" width="0.6" height="15.0" fill="rgb(214,45,10)" rx="2" ry="2" />
<text  x="20.61" y="383.5" ></text>
</g>
<g >
<title>__handle_mm_fault (1,124,437,093 samples, 0.09%)</title><rect x="13.4" y="309" width="1.1" height="15.0" fill="rgb(207,9,2)" rx="2" ry="2" />
<text  x="16.38" y="319.5" ></text>
</g>
<g >
<title>asm_exc_page_fault (465,044,048 samples, 0.04%)</title><rect x="709.7" y="357" width="0.4" height="15.0" fill="rgb(225,93,22)" rx="2" ry="2" />
<text  x="712.67" y="367.5" ></text>
</g>
<g >
<title>&lt;serde_core::de::impls::&lt;impl serde_core::de::Deserialize for alloc::vec::Vec&lt;T&gt;&gt;::deserialize::VecVisitor&lt;T&gt; as serde_core::de::Visitor&gt;::visit_seq (258,334,320 samples, 0.02%)</title><rect x="10.7" y="389" width="0.3" height="15.0" fill="rgb(214,45,10)" rx="2" ry="2" />
<text  x="13.74" y="399.5" ></text>
</g>
<g >
<title>sysvec_apic_timer_interrupt (4,875,103,092 samples, 0.41%)</title><rect x="710.3" y="341" width="4.8" height="15.0" fill="rgb(220,69,16)" rx="2" ry="2" />
<text  x="713.29" y="351.5" ></text>
</g>
<g >
<title>account_process_tick (166,124,519 samples, 0.01%)</title><rect x="1186.4" y="245" width="0.2" height="15.0" fill="rgb(234,136,32)" rx="2" ry="2" />
<text  x="1189.44" y="255.5" ></text>
</g>
<g >
<title>core::ops::function::impls::&lt;impl core::ops::function::FnMut&lt;A&gt; for &amp;F&gt;::call_mut (33,848,918,144 samples, 2.82%)</title><rect x="715.2" y="389" width="33.3" height="15.0" fill="rgb(244,182,43)" rx="2" ry="2" />
<text  x="718.25" y="399.5" >co..</text>
</g>
<g >
<title>update_process_times (3,285,462,525 samples, 0.27%)</title><rect x="1186.4" y="261" width="3.3" height="15.0" fill="rgb(250,209,50)" rx="2" ry="2" />
<text  x="1189.44" y="271.5" ></text>
</g>
<g >
<title>do_syscall_64 (105,696,150 samples, 0.01%)</title><rect x="35.1" y="341" width="0.1" height="15.0" fill="rgb(209,20,4)" rx="2" ry="2" />
<text  x="38.12" y="351.5" ></text>
</g>
<g >
<title>_ZN5alloc7raw_vec11finish_grow17h23285254484bce47E.llvm.9297654339829014053 (1,307,826,449 samples, 0.11%)</title><rect x="27.1" y="389" width="1.3" height="15.0" fill="rgb(221,74,17)" rx="2" ry="2" />
<text  x="30.11" y="399.5" ></text>
</g>
<g >
<title>account_user_time (166,124,519 samples, 0.01%)</title><rect x="1186.4" y="229" width="0.2" height="15.0" fill="rgb(225,96,23)" rx="2" ry="2" />
<text  x="1189.44" y="239.5" ></text>
</g>
<g >
<title>alloc::raw_vec::RawVec&lt;T,A&gt;::grow_one (129,810,870 samples, 0.01%)</title><rect x="28.4" y="389" width="0.1" height="15.0" fill="rgb(248,200,47)" rx="2" ry="2" />
<text  x="31.40" y="399.5" ></text>
</g>
<g >
<title>scheduler_tick (3,845,430,382 samples, 0.32%)</title><rect x="710.8" y="229" width="3.8" height="15.0" fill="rgb(246,190,45)" rx="2" ry="2" />
<text  x="713.81" y="239.5" ></text>
</g>
<g >
<title>asm_exc_page_fault (1,682,526,735 samples, 0.14%)</title><rect x="12.9" y="373" width="1.6" height="15.0" fill="rgb(225,93,22)" rx="2" ry="2" />
<text  x="15.89" y="383.5" ></text>
</g>
<g >
<title>handle_pte_fault (132,880,259 samples, 0.01%)</title><rect x="709.9" y="277" width="0.1" height="15.0" fill="rgb(217,57,13)" rx="2" ry="2" />
<text  x="712.87" y="287.5" ></text>
</g>
<g >
<title>account_user_time (166,106,647 samples, 0.01%)</title><rect x="710.7" y="213" width="0.1" height="15.0" fill="rgb(225,96,23)" rx="2" ry="2" />
<text  x="713.65" y="223.5" ></text>
</g>
<g >
<title>sock_recvmsg (653,323,001 samples, 0.05%)</title><rect x="10.0" y="261" width="0.7" height="15.0" fill="rgb(206,5,1)" rx="2" ry="2" />
<text  x="13.01" y="271.5" ></text>
</g>
<g >
<title>tick_sched_do_timer (265,787,086 samples, 0.02%)</title><rect x="1186.2" y="277" width="0.2" height="15.0" fill="rgb(227,104,25)" rx="2" ry="2" />
<text  x="1189.18" y="287.5" ></text>
</g>
<g >
<title>__skb_datagram_iter (522,004,024 samples, 0.04%)</title><rect x="10.1" y="181" width="0.5" height="15.0" fill="rgb(244,179,42)" rx="2" ry="2" />
<text  x="13.07" y="191.5" ></text>
</g>
<g >
<title>entry_SYSCALL_64_after_hwframe (653,323,001 samples, 0.05%)</title><rect x="10.0" y="341" width="0.7" height="15.0" fill="rgb(218,63,15)" rx="2" ry="2" />
<text  x="13.01" y="351.5" ></text>
</g>
<g >
<title>tcp_recvmsg_locked (600,487,646 samples, 0.05%)</title><rect x="10.1" y="213" width="0.5" height="15.0" fill="rgb(226,100,24)" rx="2" ry="2" />
<text  x="13.05" y="223.5" ></text>
</g>
<g >
<title>handle_mm_fault (1,137,792,253 samples, 0.09%)</title><rect x="13.4" y="325" width="1.1" height="15.0" fill="rgb(234,135,32)" rx="2" ry="2" />
<text  x="16.38" y="335.5" ></text>
</g>
<g >
<title>__handle_mm_fault (232,540,708 samples, 0.02%)</title><rect x="709.8" y="293" width="0.2" height="15.0" fill="rgb(207,9,2)" rx="2" ry="2" />
<text  x="712.77" y="303.5" ></text>
</g>
<g >
<title>[unknown] (687,890,643,351 samples, 57.33%)</title><rect x="38.7" y="389" width="676.5" height="15.0" fill="rgb(210,24,5)" rx="2" ry="2" />
<text  x="41.73" y="399.5" >[unknown]</text>
</g>
<g >
<title>__alloc_pages (331,975,860 samples, 0.03%)</title><rect x="13.9" y="213" width="0.4" height="15.0" fill="rgb(233,129,30)" rx="2" ry="2" />
<text  x="16.94" y="223.5" ></text>
</g>
<g >
<title>sysvec_apic_timer_interrupt (132,900,273 samples, 0.01%)</title><rect x="748.4" y="357" width="0.1" height="15.0" fill="rgb(220,69,16)" rx="2" ry="2" />
<text  x="751.41" y="367.5" ></text>
</g>
<g >
<title>x64_sys_call (653,323,001 samples, 0.05%)</title><rect x="10.0" y="309" width="0.7" height="15.0" fill="rgb(247,194,46)" rx="2" ry="2" />
<text  x="13.01" y="319.5" ></text>
</g>
<g >
<title>task_tick_fair (232,541,444 samples, 0.02%)</title><rect x="714.2" y="213" width="0.2" height="15.0" fill="rgb(217,57,13)" rx="2" ry="2" />
<text  x="717.17" y="223.5" ></text>
</g>
<g >
<title>[unknown] (11,794,008,880 samples, 0.98%)</title><rect x="14.7" y="389" width="11.6" height="15.0" fill="rgb(210,24,5)" rx="2" ry="2" />
<text  x="17.65" y="399.5" ></text>
</g>
<g >
<title>do_vmi_munmap (105,696,150 samples, 0.01%)</title><rect x="35.1" y="277" width="0.1" height="15.0" fill="rgb(253,223,53)" rx="2" ry="2" />
<text  x="38.12" y="287.5" ></text>
</g>
<g >
<title>update_process_times (4,077,978,725 samples, 0.34%)</title><rect x="710.6" y="245" width="4.0" height="15.0" fill="rgb(250,209,50)" rx="2" ry="2" />
<text  x="713.62" y="255.5" ></text>
</g>
<g >
<title>sync_regs (132,891,733 samples, 0.01%)</title><rect x="715.1" y="357" width="0.1" height="15.0" fill="rgb(228,106,25)" rx="2" ry="2" />
<text  x="718.09" y="367.5" ></text>
</g>
<g >
<title>tick_sched_handle (4,111,196,383 samples, 0.34%)</title><rect x="710.6" y="261" width="4.0" height="15.0" fill="rgb(219,68,16)" rx="2" ry="2" />
<text  x="713.59" y="271.5" ></text>
</g>
<g >
<title>update_wall_time (232,563,461 samples, 0.02%)</title><rect x="1186.2" y="245" width="0.2" height="15.0" fill="rgb(207,11,2)" rx="2" ry="2" />
<text  x="1189.21" y="255.5" ></text>
</g>
<g >
<title>&lt;&amp;std::os::unix::net::stream::UnixStream as std::io::Read&gt;::read (667,868,304 samples, 0.06%)</title><rect x="10.0" y="373" width="0.7" height="15.0" fill="rgb(241,169,40)" rx="2" ry="2" />
<text  x="13.00" y="383.5" ></text>
</g>
<g >
<title>skb_copy_datagram_iter (522,004,024 samples, 0.04%)</title><rect x="10.1" y="197" width="0.5" height="15.0" fill="rgb(245,188,45)" rx="2" ry="2" />
<text  x="13.07" y="207.5" ></text>
</g>
<g >
<title>&lt;core::iter::adapters::map::Map&lt;I,F&gt; as core::iter::traits::iterator::Iterator&gt;::fold (47,146,930,862 samples, 3.93%)</title><rect x="38.7" y="373" width="46.4" height="15.0" fill="rgb(235,138,33)" rx="2" ry="2" />
<text  x="41.73" y="383.5" >&lt;cor..</text>
</g>
<g >
<title>__hrtimer_run_queues (332,265,406 samples, 0.03%)</title><rect x="84.8" y="293" width="0.3" height="15.0" fill="rgb(237,150,35)" rx="2" ry="2" />
<text  x="87.77" y="303.5" ></text>
</g>
<g >
<title>scheduler_tick (332,265,406 samples, 0.03%)</title><rect x="84.8" y="229" width="0.3" height="15.0" fill="rgb(246,190,45)" rx="2" ry="2" />
<text  x="87.77" y="239.5" ></text>
</g>
<g >
<title>task_tick_fair (431,903,742 samples, 0.04%)</title><rect x="1189.0" y="229" width="0.4" height="15.0" fill="rgb(217,57,13)" rx="2" ry="2" />
<text  x="1191.99" y="239.5" ></text>
</g>
<g >
<title>tick_sched_handle (332,265,406 samples, 0.03%)</title><rect x="84.8" y="261" width="0.3" height="15.0" fill="rgb(219,68,16)" rx="2" ry="2" />
<text  x="87.77" y="271.5" ></text>
</g>
<g >
<title>clockevents_program_event (199,108,447 samples, 0.02%)</title><rect x="714.7" y="277" width="0.2" height="15.0" fill="rgb(244,182,43)" rx="2" ry="2" />
<text  x="717.69" y="287.5" ></text>
</g>
<g >
<title>mem_cgroup_commit_charge (162,227,320 samples, 0.01%)</title><rect x="13.5" y="245" width="0.1" height="15.0" fill="rgb(239,158,37)" rx="2" ry="2" />
<text  x="16.47" y="255.5" ></text>
</g>
<g >
<title>hrtimer_interrupt (364,400,612 samples, 0.03%)</title><rect x="84.7" y="309" width="0.4" height="15.0" fill="rgb(228,109,26)" rx="2" ry="2" />
<text  x="87.74" y="319.5" ></text>
</g>
<g >
<title>account_process_tick (166,106,647 samples, 0.01%)</title><rect x="710.7" y="229" width="0.1" height="15.0" fill="rgb(234,136,32)" rx="2" ry="2" />
<text  x="713.65" y="239.5" ></text>
</g>
<g >
<title>handle_mm_fault (298,982,744 samples, 0.02%)</title><rect x="709.8" y="309" width="0.3" height="15.0" fill="rgb(234,135,32)" rx="2" ry="2" />
<text  x="712.77" y="319.5" ></text>
</g>
<g >
<title>_raw_spin_lock_irqsave (132,897,722 samples, 0.01%)</title><rect x="1186.2" y="213" width="0.2" height="15.0" fill="rgb(247,195,46)" rx="2" ry="2" />
<text  x="1189.25" y="223.5" ></text>
</g>
<g >
<title>__x64_sys_munmap (105,696,150 samples, 0.01%)</title><rect x="35.1" y="309" width="0.1" height="15.0" fill="rgb(206,7,1)" rx="2" ry="2" />
<text  x="38.12" y="319.5" ></text>
</g>
<g >
<title>simple_copy_to_iter (522,004,024 samples, 0.04%)</title><rect x="10.1" y="165" width="0.5" height="15.0" fill="rgb(228,110,26)" rx="2" ry="2" />
<text  x="13.07" y="175.5" ></text>
</g>
<g >
<title>unmap_page_range (105,696,150 samples, 0.01%)</title><rect x="35.1" y="197" width="0.1" height="15.0" fill="rgb(206,5,1)" rx="2" ry="2" />
<text  x="38.12" y="207.5" ></text>
</g>
<g >
<title>zap_pte_range (105,696,150 samples, 0.01%)</title><rect x="35.1" y="165" width="0.1" height="15.0" fill="rgb(231,120,28)" rx="2" ry="2" />
<text  x="38.12" y="175.5" ></text>
</g>
<g >
<title>unmap_vmas (105,696,150 samples, 0.01%)</title><rect x="35.1" y="229" width="0.1" height="15.0" fill="rgb(243,176,42)" rx="2" ry="2" />
<text  x="38.12" y="239.5" ></text>
</g>
<g >
<title>tick_nohz_highres_handler (4,244,096,637 samples, 0.35%)</title><rect x="710.5" y="277" width="4.1" height="15.0" fill="rgb(215,50,11)" rx="2" ry="2" />
<text  x="713.46" y="287.5" ></text>
</g>
<g >
<title>exc_page_fault (183,405,100 samples, 0.02%)</title><rect x="35.3" y="357" width="0.2" height="15.0" fill="rgb(212,35,8)" rx="2" ry="2" />
<text  x="38.33" y="367.5" ></text>
</g>
<g >
<title>sysvec_apic_timer_interrupt (364,400,612 samples, 0.03%)</title><rect x="84.7" y="341" width="0.4" height="15.0" fill="rgb(220,69,16)" rx="2" ry="2" />
<text  x="87.74" y="351.5" ></text>
</g>
<g >
<title>handle_mm_fault (147,774,583 samples, 0.01%)</title><rect x="35.3" y="325" width="0.2" height="15.0" fill="rgb(234,135,32)" rx="2" ry="2" />
<text  x="38.33" y="335.5" ></text>
</g>
<g >
<title>tick_sched_handle (3,285,462,525 samples, 0.27%)</title><rect x="1186.4" y="277" width="3.3" height="15.0" fill="rgb(219,68,16)" rx="2" ry="2" />
<text  x="1189.44" y="287.5" ></text>
</g>
<g >
<title>all (1,199,834,661,401 samples, 100%)</title><rect x="10.0" y="421" width="1180.0" height="15.0" fill="rgb(213,39,9)" rx="2" ry="2" />
<text  x="13.00" y="431.5" ></text>
</g>
<g >
<title>__handle_mm_fault (177,044,515 samples, 0.01%)</title><rect x="10.4" y="69" width="0.2" height="15.0" fill="rgb(207,9,2)" rx="2" ry="2" />
<text  x="13.41" y="79.5" ></text>
</g>
<g >
<title>zap_pmd_range.isra.0 (105,696,150 samples, 0.01%)</title><rect x="35.1" y="181" width="0.1" height="15.0" fill="rgb(244,180,43)" rx="2" ry="2" />
<text  x="38.12" y="191.5" ></text>
</g>
<g >
<title>vector_db_skeleton::distance::l2_distance_batch_avx512 (519,402,781 samples, 0.04%)</title><rect x="25.7" y="373" width="0.6" height="15.0" fill="rgb(218,61,14)" rx="2" ry="2" />
<text  x="28.74" y="383.5" ></text>
</g>
<g >
<title>tick_do_update_jiffies64 (232,563,461 samples, 0.02%)</title><rect x="1186.2" y="261" width="0.2" height="15.0" fill="rgb(208,14,3)" rx="2" ry="2" />
<text  x="1189.21" y="271.5" ></text>
</g>
<g >
<title>entry_SYSCALL_64_after_hwframe (105,696,150 samples, 0.01%)</title><rect x="35.1" y="357" width="0.1" height="15.0" fill="rgb(218,63,15)" rx="2" ry="2" />
<text  x="38.12" y="367.5" ></text>
</g>
<g >
<title>sync_regs (132,891,541 samples, 0.01%)</title><rect x="1189.9" y="373" width="0.1" height="15.0" fill="rgb(228,106,25)" rx="2" ry="2" />
<text  x="1192.87" y="383.5" ></text>
</g>
<g >
<title>vector-db-skele (1,170,621,191,164 samples, 97.57%)</title><rect x="38.7" y="405" width="1151.3" height="15.0" fill="rgb(209,20,4)" rx="2" ry="2" />
<text  x="41.73" y="415.5" >vector-db-skele</text>
</g>
<g >
<title>hrtimer_active (132,886,309 samples, 0.01%)</title><rect x="1189.0" y="213" width="0.1" height="15.0" fill="rgb(212,34,8)" rx="2" ry="2" />
<text  x="1191.99" y="223.5" ></text>
</g>
<g >
<title>perf_event_task_tick (3,314,000,815 samples, 0.28%)</title><rect x="710.9" y="213" width="3.3" height="15.0" fill="rgb(205,3,0)" rx="2" ry="2" />
<text  x="713.91" y="223.5" ></text>
</g>
<g >
<title>update_curr (132,898,763 samples, 0.01%)</title><rect x="1189.2" y="213" width="0.1" height="15.0" fill="rgb(227,105,25)" rx="2" ry="2" />
<text  x="1192.15" y="223.5" ></text>
</g>
<g >
<title>__munmap (105,696,150 samples, 0.01%)</title><rect x="35.1" y="373" width="0.1" height="15.0" fill="rgb(211,29,7)" rx="2" ry="2" />
<text  x="38.12" y="383.5" ></text>
</g>
<g >
<title>vector_db_skeleton::distance::l2_distance_batch_avx512 (448,848,404,048 samples, 37.41%)</title><rect x="748.6" y="389" width="441.4" height="15.0" fill="rgb(218,61,14)" rx="2" ry="2" />
<text  x="751.57" y="399.5" >vector_db_skeleton::distance::l2_distance_batch_avx512</text>
</g>
<g >
<title>do_anonymous_page (136,867,473 samples, 0.01%)</title><rect x="10.4" y="37" width="0.2" height="15.0" fill="rgb(238,155,37)" rx="2" ry="2" />
<text  x="13.43" y="47.5" ></text>
</g>
<g >
<title>[libc.so.6] (557,819,604 samples, 0.05%)</title><rect x="27.8" y="341" width="0.6" height="15.0" fill="rgb(223,84,20)" rx="2" ry="2" />
<text  x="30.82" y="351.5" ></text>
</g>
<g >
<title>asm_exc_page_fault (205,647,700 samples, 0.02%)</title><rect x="10.4" y="133" width="0.2" height="15.0" fill="rgb(225,93,22)" rx="2" ry="2" />
<text  x="13.38" y="143.5" ></text>
</g>
<g >
<title>perf_adjust_freq_unthr_context (3,314,000,815 samples, 0.28%)</title><rect x="710.9" y="197" width="3.3" height="15.0" fill="rgb(236,146,35)" rx="2" ry="2" />
<text  x="713.91" y="207.5" ></text>
</g>
<g >
<title>inet_recvmsg (640,758,349 samples, 0.05%)</title><rect x="10.0" y="245" width="0.6" height="15.0" fill="rgb(206,5,1)" rx="2" ry="2" />
<text  x="13.01" y="255.5" ></text>
</g>
<g >
<title>unmap_single_vma (105,696,150 samples, 0.01%)</title><rect x="35.1" y="213" width="0.1" height="15.0" fill="rgb(225,93,22)" rx="2" ry="2" />
<text  x="38.12" y="223.5" ></text>
</g>
<g >
<title>__raw_spin_lock_irqsave (132,897,722 samples, 0.01%)</title><rect x="1186.2" y="197" width="0.2" height="15.0" fill="rgb(233,132,31)" rx="2" ry="2" />
<text  x="1189.25" y="207.5" ></text>
</g>
<g >
<title>serde_json::de::Deserializer&lt;R&gt;::parse_decimal (4,347,026,681 samples, 0.36%)</title><rect x="28.9" y="389" width="4.3" height="15.0" fill="rgb(228,108,25)" rx="2" ry="2" />
<text  x="31.88" y="399.5" ></text>
</g>
<g >
<title>do_anonymous_page (1,075,582,352 samples, 0.09%)</title><rect x="13.4" y="277" width="1.0" height="15.0" fill="rgb(238,155,37)" rx="2" ry="2" />
<text  x="16.38" y="287.5" ></text>
</g>
<g >
<title>realloc (1,120,821,317 samples, 0.09%)</title><rect x="27.3" y="373" width="1.1" height="15.0" fill="rgb(246,189,45)" rx="2" ry="2" />
<text  x="30.30" y="383.5" ></text>
</g>
<g >
<title>tick_nohz_highres_handler (3,584,472,341 samples, 0.30%)</title><rect x="1186.1" y="293" width="3.6" height="15.0" fill="rgb(215,50,11)" rx="2" ry="2" />
<text  x="1189.15" y="303.5" ></text>
</g>
<g >
<title>recv (667,868,304 samples, 0.06%)</title><rect x="10.0" y="357" width="0.7" height="15.0" fill="rgb(222,82,19)" rx="2" ry="2" />
<text  x="13.00" y="367.5" ></text>
</g>
<g >
<title>__hrtimer_run_queues (4,310,538,536 samples, 0.36%)</title><rect x="710.4" y="293" width="4.2" height="15.0" fill="rgb(237,150,35)" rx="2" ry="2" />
<text  x="713.39" y="303.5" ></text>
</g>
<g >
<title>asm_sysvec_apic_timer_interrupt (397,619,964 samples, 0.03%)</title><rect x="84.7" y="357" width="0.4" height="15.0" fill="rgb(232,127,30)" rx="2" ry="2" />
<text  x="87.71" y="367.5" ></text>
</g>
<g >
<title>&lt;&amp;mio::net::tcp::stream::TcpStream as std::io::Read&gt;::read (667,868,304 samples, 0.06%)</title><rect x="10.0" y="389" width="0.7" height="15.0" fill="rgb(254,229,54)" rx="2" ry="2" />
<text  x="13.00" y="399.5" ></text>
</g>
<g >
<title>__sysvec_apic_timer_interrupt (364,400,612 samples, 0.03%)</title><rect x="84.7" y="325" width="0.4" height="15.0" fill="rgb(242,173,41)" rx="2" ry="2" />
<text  x="87.74" y="335.5" ></text>
</g>
<g >
<title>[libc.so.6] (818,337,543 samples, 0.07%)</title><rect x="27.6" y="357" width="0.8" height="15.0" fill="rgb(223,84,20)" rx="2" ry="2" />
<text  x="30.57" y="367.5" ></text>
</g>
<g >
<title>rep_movs_alternative (383,775,132 samples, 0.03%)</title><rect x="10.2" y="149" width="0.4" height="15.0" fill="rgb(205,1,0)" rx="2" ry="2" />
<text  x="13.20" y="159.5" ></text>
</g>
<g >
<title>tcp_recvmsg (640,758,349 samples, 0.05%)</title><rect x="10.0" y="229" width="0.6" height="15.0" fill="rgb(234,135,32)" rx="2" ry="2" />
<text  x="13.01" y="239.5" ></text>
</g>
<g >
<title>__sys_recvfrom (653,323,001 samples, 0.05%)</title><rect x="10.0" y="277" width="0.7" height="15.0" fill="rgb(247,197,47)" rx="2" ry="2" />
<text  x="13.01" y="287.5" ></text>
</g>
<g >
<title>__vm_munmap (105,696,150 samples, 0.01%)</title><rect x="35.1" y="293" width="0.1" height="15.0" fill="rgb(231,121,28)" rx="2" ry="2" />
<text  x="38.12" y="303.5" ></text>
</g>
<g >
<title>timekeeping_advance (232,563,461 samples, 0.02%)</title><rect x="1186.2" y="229" width="0.2" height="15.0" fill="rgb(227,104,25)" rx="2" ry="2" />
<text  x="1189.21" y="239.5" ></text>
</g>
<g >
<title>__mem_cgroup_charge (411,841,328 samples, 0.03%)</title><rect x="13.4" y="261" width="0.4" height="15.0" fill="rgb(218,60,14)" rx="2" ry="2" />
<text  x="16.39" y="271.5" ></text>
</g>
<g >
<title>update_process_times (332,265,406 samples, 0.03%)</title><rect x="84.8" y="245" width="0.3" height="15.0" fill="rgb(250,209,50)" rx="2" ry="2" />
<text  x="87.77" y="255.5" ></text>
</g>
<g >
<title>x64_sys_call (105,696,150 samples, 0.01%)</title><rect x="35.1" y="325" width="0.1" height="15.0" fill="rgb(247,194,46)" rx="2" ry="2" />
<text  x="38.12" y="335.5" ></text>
</g>
<g >
<title>vector_db_skeleton::distance::l2_distance_batch_avx512 (3,193,760,237 samples, 0.27%)</title><rect x="35.6" y="389" width="3.1" height="15.0" fill="rgb(218,61,14)" rx="2" ry="2" />
<text  x="38.59" y="399.5" ></text>
</g>
<g >
<title>do_user_addr_fault (191,811,221 samples, 0.02%)</title><rect x="10.4" y="101" width="0.2" height="15.0" fill="rgb(228,108,25)" rx="2" ry="2" />
<text  x="13.39" y="111.5" ></text>
</g>
<g >
<title>[libc.so.6] (150,095,398 samples, 0.01%)</title><rect x="33.3" y="357" width="0.1" height="15.0" fill="rgb(223,84,20)" rx="2" ry="2" />
<text  x="36.26" y="367.5" ></text>
</g>
<g >
<title>vector_db_skeleton::distance::l2_distance_batch_avx512 (640,743,712,489 samples, 53.40%)</title><rect x="85.1" y="373" width="630.1" height="15.0" fill="rgb(218,61,14)" rx="2" ry="2" />
<text  x="88.10" y="383.5" >vector_db_skeleton::distance::l2_distance_batch_avx512</text>
</g>
<g >
<title>&lt;&amp;mut serde_json::de::Deserializer&lt;R&gt; as serde_core::de::Deserializer&gt;::deserialize_f32 (2,935,346,080 samples, 0.24%)</title><rect x="14.7" y="373" width="2.8" height="15.0" fill="rgb(241,169,40)" rx="2" ry="2" />
<text  x="17.65" y="383.5" ></text>
</g>
<g >
<title>hrtimer_interrupt (4,609,310,954 samples, 0.38%)</title><rect x="710.4" y="309" width="4.5" height="15.0" fill="rgb(228,109,26)" rx="2" ry="2" />
<text  x="713.36" y="319.5" ></text>
</g>
<g >
<title>asm_exc_page_fault (138,228,892 samples, 0.01%)</title><rect x="10.1" y="149" width="0.1" height="15.0" fill="rgb(225,93,22)" rx="2" ry="2" />
<text  x="13.07" y="159.5" ></text>
</g>
<g >
<title>asm_sysvec_apic_timer_interrupt (132,900,273 samples, 0.01%)</title><rect x="748.4" y="373" width="0.1" height="15.0" fill="rgb(232,127,30)" rx="2" ry="2" />
<text  x="751.41" y="383.5" ></text>
</g>
<g >
<title>do_user_addr_fault (1,229,172,922 samples, 0.10%)</title><rect x="13.3" y="341" width="1.2" height="15.0" fill="rgb(228,108,25)" rx="2" ry="2" />
<text  x="16.33" y="351.5" ></text>
</g>
<g >
<title>hrtimer_interrupt (3,717,360,677 samples, 0.31%)</title><rect x="1186.1" y="325" width="3.7" height="15.0" fill="rgb(228,109,26)" rx="2" ry="2" />
<text  x="1189.12" y="335.5" ></text>
</g>
<g >
<title>[libc.so.6] (2,729,856,207 samples, 0.23%)</title><rect x="12.0" y="389" width="2.7" height="15.0" fill="rgb(223,84,20)" rx="2" ry="2" />
<text  x="14.97" y="399.5" ></text>
</g>
</g>
</svg>
