<?xml version="1.0" standalone="no"?>
<!DOCTYPE svg PUBLIC "-//W3C//DTD SVG 1.1//EN" "http://www.w3.org/Graphics/SVG/1.1/DTD/svg11.dtd">
<svg version="1.1" width="1200" height="406" onload="init(evt)" viewBox="0 0 1200 406" xmlns="http://www.w3.org/2000/svg" xmlns:xlink="http://www.w3.org/1999/xlink">
<!-- Flame graph stack visualization. See https://github.com/brendangregg/FlameGraph for latest version, and http://www.brendangregg.com/flamegraphs.html for examples. -->
<!-- NOTES:  -->
<defs>
	<linearGradient id="background" y1="0" y2="1" x1="0" x2="0" >
		<stop stop-color="#eeeeee" offset="5%" />
		<stop stop-color="#eeeeb0" offset="95%" />
	</linearGradient>
</defs>
<style type="text/css">
	text { font-family:Verdana; font-size:12px; fill:rgb(0,0,0); }
	#search, #ignorecase { opacity:0.1; cursor:pointer; }
	#search:hover, #search.show, #ignorecase:hover, #ignorecase.show { opacity:1; }
	#subtitle { text-anchor:middle; font-color:rgb(160,160,160); }
	#title { text-anchor:middle; font-size:17px}
	#unzoom { cursor:pointer; }
	#frames > *:hover { stroke:black; stroke-width:0.5; cursor:pointer; }
	.hide { display:none; }
	.parent { opacity:0.5; }
</style>
<script type="text/ecmascript">
<![CDATA[
	"use strict";
	var details, searchbtn, unzoombtn, matchedtxt, svg, searching, currentSearchTerm, ignorecase, ignorecaseBtn;
	function init(evt) {
		details = document.getElementById("details").firstChild;
		searchbtn = document.getElementById("search");
		ignorecaseBtn = document.getElementById("ignorecase");
		unzoombtn = document.getElementById("unzoom");
		matchedtxt = document.getElementById("matched");
		svg = document.getElementsByTagName("svg")[0];
		searching = 0;
		currentSearchTerm = null;

		// use GET parameters to restore a flamegraphs state.
		var params = get_params();
		if (params.x && params.y)
			zoom(find_group(document.querySelector('[x="' + params.x + '"][y="' + params.y + '"]')));
                if (params.s) search(params.s);
	}

	// event listeners
	window.addEventListener("click", function(e) {
		var target = find_group(e.target);
		if (target) {
			if (target.nodeName == "a") {
				if (e.ctrlKey === false) return;
				e.preventDefault();
			}
			if (target.classList.contains("parent")) unzoom(true);
			zoom(target);
			if (!document.querySelector('.parent')) {
				// we have basically done a clearzoom so clear the url
				var params = get_params();
				if (params.x) delete params.x;
				if (params.y) delete params.y;
				history.replaceState(null, null, parse_params(params));
				unzoombtn.classList.add("hide");
				return;
			}

			// set parameters for zoom state
			var el = target.querySelector("rect");
			if (el && el.attributes && el.attributes.y && el.attributes._orig_x) {
				var params = get_params()
				params.x = el.attributes._orig_x.value;
				params.y = el.attributes.y.value;
				history.replaceState(null, null, parse_params(params));
			}
		}
		else if (e.target.id == "unzoom") clearzoom();
		else if (e.target.id == "search") search_prompt();
		else if (e.target.id == "ignorecase") toggle_ignorecase();
	}, false)

	// mouse-over for info
	// show
	window.addEventListener("mouseover", function(e) {
		var target = find_group(e.target);
		if (target) details.nodeValue = "Function: " + g_to_text(target);
	}, false)

	// clear
	window.addEventListener("mouseout", function(e) {
		var target = find_group(e.target);
		if (target) details.nodeValue = ' ';
	}, false)

	// ctrl-F for search
	// ctrl-I to toggle case-sensitive search
	window.addEventListener("keydown",function (e) {
		if (e.keyCode === 114 || (e.ctrlKey && e.keyCode === 70)) {
			e.preventDefault();
			search_prompt();
		}
		else if (e.ctrlKey && e.keyCode === 73) {
			e.preventDefault();
			toggle_ignorecase();
		}
	}, false)

	// functions
	function get_params() {
		var params = {};
		var paramsarr = window.location.search.substr(1).split('&');
		for (var i = 0; i < paramsarr.length; ++i) {
			var tmp = paramsarr[i].split("=");
			if (!tmp[0] || !tmp[1]) continue;
			params[tmp[0]]  = decodeURIComponent(tmp[1]);
		}
		return params;
	}
	function parse_params(params) {
		var uri = "?";
		for (var key in params) {
			uri += key + '=' + encodeURIComponent(params[key]) + '&';
		}
		if (uri.slice(-1) == "&")
			uri = uri.substring(0, uri.length - 1);
		if (uri == '?')
			uri = window.location.href.split('?')[0];
		return uri;
	}
	function find_child(node, selector) {
		var children = node.querySelectorAll(selector);
		if (children.length) return children[0];
	}
	function find_group(node) {
		var parent = node.parentElement;
		if (!parent) return;
		if (parent.id == "frames") return node;
		return find_group(parent);
	}
	function orig_save(e, attr, val) {
		if (e.attributes["_orig_" + attr] != undefined) return;
		if (e.attributes[attr] == undefined) return;
		if (val == undefined) val = e.attributes[attr].value;
		e.setAttribute("_orig_" + attr, val);
	}
	function orig_load(e, attr) {
		if (e.attributes["_orig_"+attr] == undefined) return;
		e.attributes[attr].value = e.attributes["_orig_" + attr].value;
		e.removeAttribute("_orig_"+attr);
	}
	function g_to_text(e) {
		var text = find_child(e, "title").firstChild.nodeValue;
		return (text)
	}
	function g_to_func(e) {
		var func = g_to_text(e);
		// if there's any manipulation we want to do to the function
		// name before it's searched, do it here before returning.
		return (func);
	}
	function update_text(e) {
		var r = find_child(e, "rect");
		var t = find_child(e, "text");
		var w = parseFloat(r.attributes.width.value) -3;
		var txt = find_child(e, "title").textContent.replace(/\([^(]*\)$/,"");
		t.attributes.x.value = parseFloat(r.attributes.x.value) + 3;

		// Smaller than this size won't fit anything
		if (w < 2 * 12 * 0.59) {
			t.textContent = "";
			return;
		}

		t.textContent = txt;
		var sl = t.getSubStringLength(0, txt.length);
		// check if only whitespace or if we can fit the entire string into width w
		if (/^ *$/.test(txt) || sl < w)
			return;

		// this isn't perfect, but gives a good starting point
		// and avoids calling getSubStringLength too often
		var start = Math.floor((w/sl) * txt.length);
		for (var x = start; x > 0; x = x-2) {
			if (t.getSubStringLength(0, x + 2) <= w) {
				t.textContent = txt.substring(0, x) + "..";
				return;
			}
		}
		t.textContent = "";
	}

	// zoom
	function zoom_reset(e) {
		if (e.attributes != undefined) {
			orig_load(e, "x");
			orig_load(e, "width");
		}
		if (e.childNodes == undefined) return;
		for (var i = 0, c = e.childNodes; i < c.length; i++) {
			zoom_reset(c[i]);
		}
	}
	function zoom_child(e, x, ratio) {
		if (e.attributes != undefined) {
			if (e.attributes.x != undefined) {
				orig_save(e, "x");
				e.attributes.x.value = (parseFloat(e.attributes.x.value) - x - 10) * ratio + 10;
				if (e.tagName == "text")
					e.attributes.x.value = find_child(e.parentNode, "rect[x]").attributes.x.value + 3;
			}
			if (e.attributes.width != undefined) {
				orig_save(e, "width");
				e.attributes.width.value = parseFloat(e.attributes.width.value) * ratio;
			}
		}

		if (e.childNodes == undefined) return;
		for (var i = 0, c = e.childNodes; i < c.length; i++) {
			zoom_child(c[i], x - 10, ratio);
		}
	}
	function zoom_parent(e) {
		if (e.attributes) {
			if (e.attributes.x != undefined) {
				orig_save(e, "x");
				e.attributes.x.value = 10;
			}
			if (e.attributes.width != undefined) {
				orig_save(e, "width");
				e.attributes.width.value = parseInt(svg.width.baseVal.value) - (10 * 2);
			}
		}
		if (e.childNodes == undefined) return;
		for (var i = 0, c = e.childNodes; i < c.length; i++) {
			zoom_parent(c[i]);
		}
	}
	function zoom(node) {
		var attr = find_child(node, "rect").attributes;
		var width = parseFloat(attr.width.value);
		var xmin = parseFloat(attr.x.value);
		var xmax = parseFloat(xmin + width);
		var ymin = parseFloat(attr.y.value);
		var ratio = (svg.width.baseVal.value - 2 * 10) / width;

		// XXX: Workaround for JavaScript float issues (fix me)
		var fudge = 0.0001;

		unzoombtn.classList.remove("hide");

		var el = document.getElementById("frames").children;
		for (var i = 0; i < el.length; i++) {
			var e = el[i];
			var a = find_child(e, "rect").attributes;
			var ex = parseFloat(a.x.value);
			var ew = parseFloat(a.width.value);
			var upstack;
			// Is it an ancestor
			if (0 == 0) {
				upstack = parseFloat(a.y.value) > ymin;
			} else {
				upstack = parseFloat(a.y.value) < ymin;
			}
			if (upstack) {
				// Direct ancestor
				if (ex <= xmin && (ex+ew+fudge) >= xmax) {
					e.classList.add("parent");
					zoom_parent(e);
					update_text(e);
				}
				// not in current path
				else
					e.classList.add("hide");
			}
			// Children maybe
			else {
				// no common path
				if (ex < xmin || ex + fudge >= xmax) {
					e.classList.add("hide");
				}
				else {
					zoom_child(e, xmin, ratio);
					update_text(e);
				}
			}
		}
		search();
	}
	function unzoom(dont_update_text) {
		unzoombtn.classList.add("hide");
		var el = document.getElementById("frames").children;
		for(var i = 0; i < el.length; i++) {
			el[i].classList.remove("parent");
			el[i].classList.remove("hide");
			zoom_reset(el[i]);
			if(!dont_update_text) update_text(el[i]);
		}
		search();
	}
	function clearzoom() {
		unzoom();

		// remove zoom state
		var params = get_params();
		if (params.x) delete params.x;
		if (params.y) delete params.y;
		history.replaceState(null, null, parse_params(params));
	}

	// search
	function toggle_ignorecase() {
		ignorecase = !ignorecase;
		if (ignorecase) {
			ignorecaseBtn.classList.add("show");
		} else {
			ignorecaseBtn.classList.remove("show");
		}
		reset_search();
		search();
	}
	function reset_search() {
		var el = document.querySelectorAll("#frames rect");
		for (var i = 0; i < el.length; i++) {
			orig_load(el[i], "fill")
		}
		var params = get_params();
		delete params.s;
		history.replaceState(null, null, parse_params(params));
	}
	function search_prompt() {
		if (!searching) {
			var term = prompt("Enter a search term (regexp " +
			    "allowed, eg: ^ext4_)"
			    + (ignorecase ? ", ignoring case" : "")
			    + "\nPress Ctrl-i to toggle case sensitivity", "");
			if (term != null) search(term);
		} else {
			reset_search();
			searching = 0;
			currentSearchTerm = null;
			searchbtn.classList.remove("show");
			searchbtn.firstChild.nodeValue = "Search"
			matchedtxt.classList.add("hide");
			matchedtxt.firstChild.nodeValue = ""
		}
	}
	function search(term) {
		if (term) currentSearchTerm = term;
		if (currentSearchTerm === null) return;

		var re = new RegExp(currentSearchTerm, ignorecase ? 'i' : '');
		var el = document.getElementById("frames").children;
		var matches = new Object();
		var maxwidth = 0;
		for (var i = 0; i < el.length; i++) {
			var e = el[i];
			var func = g_to_func(e);
			var rect = find_child(e, "rect");
			if (func == null || rect == null)
				continue;

			// Save max width. Only works as we have a root frame
			var w = parseFloat(rect.attributes.width.value);
			if (w > maxwidth)
				maxwidth = w;

			if (func.match(re)) {
				// highlight
				var x = parseFloat(rect.attributes.x.value);
				orig_save(rect, "fill");
				rect.attributes.fill.value = "rgb(230,0,230)";

				// remember matches
				if (matches[x] == undefined) {
					matches[x] = w;
				} else {
					if (w > matches[x]) {
						// overwrite with parent
						matches[x] = w;
					}
				}
				searching = 1;
			}
		}
		if (!searching)
			return;
		var params = get_params();
		params.s = currentSearchTerm;
		history.replaceState(null, null, parse_params(params));

		searchbtn.classList.add("show");
		searchbtn.firstChild.nodeValue = "Reset Search";

		// calculate percent matched, excluding vertical overlap
		var count = 0;
		var lastx = -1;
		var lastw = 0;
		var keys = Array();
		for (k in matches) {
			if (matches.hasOwnProperty(k))
				keys.push(k);
		}
		// sort the matched frames by their x location
		// ascending, then width descending
		keys.sort(function(a, b){
			return a - b;
		});
		// Step through frames saving only the biggest bottom-up frames
		// thanks to the sort order. This relies on the tree property
		// where children are always smaller than their parents.
		var fudge = 0.0001;	// JavaScript floating point
		for (var k in keys) {
			var x = parseFloat(keys[k]);
			var w = matches[keys[k]];
			if (x >= lastx + lastw - fudge) {
				count += w;
				lastx = x;
				lastw = w;
			}
		}
		// display matched percent
		matchedtxt.classList.remove("hide");
		var pct = 100 * count / maxwidth;
		if (pct != 100) pct = pct.toFixed(1)
		matchedtxt.firstChild.nodeValue = "Matched: " + pct + "%";
	}
]]>
</script>
<rect x="0.0" y="0" width="1200.0" height="406.0" fill="url(#background)"  />
<text id="title" x="600.00" y="24" >Flame Graph</text>
<text id="details" x="10.00" y="389" > </text>
<text id="unzoom" x="10.00" y="24" class="hide">Reset Zoom</text>
<text id="search" x="1090.00" y="24" >Search</text>
<text id="ignorecase" x="1174.00" y="24" >ic</text>
<text id="matched" x="1090.00" y="389" > </text>
<g id="frames">
<g >
<title>do_numa_page (358,396,485 samples, 0.02%)</title><rect x="1094.7" y="213" width="0.2" height="15.0" fill="rgb(208,14,3)" rx="2" ry="2" />
<text  x="1097.69" y="223.5" ></text>
</g>
<g >
<title>nohz_balancer_kick (248,886,161 samples, 0.01%)</title><rect x="1104.2" y="149" width="0.1" height="15.0" fill="rgb(225,93,22)" rx="2" ry="2" />
<text  x="1107.17" y="159.5" ></text>
</g>
<g >
<title>account_user_time (639,460,546 samples, 0.03%)</title><rect x="1096.7" y="165" width="0.3" height="15.0" fill="rgb(225,96,23)" rx="2" ry="2" />
<text  x="1099.66" y="175.5" ></text>
</g>
<g >
<title>core::slice::sort::unstable::quicksort::quicksort (123,511,248,840 samples, 5.68%)</title><rect x="1120.5" y="325" width="67.1" height="15.0" fill="rgb(215,47,11)" rx="2" ry="2" />
<text  x="1123.53" y="335.5" >core::s..</text>
</g>
<g >
<title>tcp_recvmsg (655,697,136 samples, 0.03%)</title><rect x="10.0" y="165" width="0.4" height="15.0" fill="rgb(234,135,32)" rx="2" ry="2" />
<text  x="13.00" y="175.5" ></text>
</g>
<g >
<title>rep_movs_alternative (326,949,104 samples, 0.02%)</title><rect x="10.1" y="85" width="0.2" height="15.0" fill="rgb(205,1,0)" rx="2" ry="2" />
<text  x="13.12" y="95.5" ></text>
</g>
<g >
<title>realloc (1,209,375,459 samples, 0.06%)</title><rect x="1113.4" y="309" width="0.6" height="15.0" fill="rgb(246,189,45)" rx="2" ry="2" />
<text  x="1116.35" y="319.5" ></text>
</g>
<g >
<title>&lt;&amp;std::os::unix::net::stream::UnixStream as std::io::Write&gt;::write_vectored (227,791,598 samples, 0.01%)</title><rect x="1110.9" y="277" width="0.1" height="15.0" fill="rgb(225,93,22)" rx="2" ry="2" />
<text  x="1113.88" y="287.5" ></text>
</g>
<g >
<title>scheduler_tick (573,537,299 samples, 0.03%)</title><rect x="1187.2" y="181" width="0.3" height="15.0" fill="rgb(246,190,45)" rx="2" ry="2" />
<text  x="1190.21" y="191.5" ></text>
</g>
<g >
<title>simple_copy_to_iter (434,435,481 samples, 0.02%)</title><rect x="10.1" y="101" width="0.2" height="15.0" fill="rgb(228,110,26)" rx="2" ry="2" />
<text  x="13.07" y="111.5" ></text>
</g>
<g >
<title>ktime_get_update_offsets_now (461,396,873 samples, 0.02%)</title><rect x="1104.4" y="245" width="0.3" height="15.0" fill="rgb(243,178,42)" rx="2" ry="2" />
<text  x="1107.43" y="255.5" ></text>
</g>
<g >
<title>asm_sysvec_apic_timer_interrupt (19,266,712,374 samples, 0.89%)</title><rect x="1095.1" y="309" width="10.4" height="15.0" fill="rgb(232,127,30)" rx="2" ry="2" />
<text  x="1098.07" y="319.5" ></text>
</g>
<g >
<title>__handle_mm_fault (414,947,499 samples, 0.02%)</title><rect x="1110.6" y="229" width="0.2" height="15.0" fill="rgb(207,9,2)" rx="2" ry="2" />
<text  x="1113.62" y="239.5" ></text>
</g>
<g >
<title>clockevents_program_event (353,379,153 samples, 0.02%)</title><rect x="1104.7" y="229" width="0.2" height="15.0" fill="rgb(244,182,43)" rx="2" ry="2" />
<text  x="1107.74" y="239.5" ></text>
</g>
<g >
<title>kick_ilb (213,643,466 samples, 0.01%)</title><rect x="1104.2" y="133" width="0.1" height="15.0" fill="rgb(240,163,39)" rx="2" ry="2" />
<text  x="1107.19" y="143.5" ></text>
</g>
<g >
<title>ktime_get (430,664,489 samples, 0.02%)</title><rect x="1095.9" y="213" width="0.2" height="15.0" fill="rgb(207,10,2)" rx="2" ry="2" />
<text  x="1098.91" y="223.5" ></text>
</g>
<g >
<title>__handle_mm_fault (782,161,993 samples, 0.04%)</title><rect x="1094.5" y="245" width="0.4" height="15.0" fill="rgb(207,9,2)" rx="2" ry="2" />
<text  x="1097.46" y="255.5" ></text>
</g>
<g >
<title>__x64_sys_writev (227,791,598 samples, 0.01%)</title><rect x="1110.9" y="197" width="0.1" height="15.0" fill="rgb(233,133,31)" rx="2" ry="2" />
<text  x="1113.88" y="207.5" ></text>
</g>
<g >
<title>__hrtimer_run_queues (644,010,576 samples, 0.03%)</title><rect x="1187.2" y="245" width="0.3" height="15.0" fill="rgb(237,150,35)" rx="2" ry="2" />
<text  x="1190.18" y="255.5" ></text>
</g>
<g >
<title>do_writev (227,791,598 samples, 0.01%)</title><rect x="1110.9" y="181" width="0.1" height="15.0" fill="rgb(239,157,37)" rx="2" ry="2" />
<text  x="1113.88" y="191.5" ></text>
</g>
<g >
<title>perf_event_task_tick (467,941,332 samples, 0.02%)</title><rect x="1187.2" y="165" width="0.3" height="15.0" fill="rgb(205,3,0)" rx="2" ry="2" />
<text  x="1190.23" y="175.5" ></text>
</g>
<g >
<title>serde_json::de::Deserializer&lt;R&gt;::parse_integer (992,327,305 samples, 0.05%)</title><rect x="1189.4" y="325" width="0.5" height="15.0" fill="rgb(228,107,25)" rx="2" ry="2" />
<text  x="1192.39" y="335.5" ></text>
</g>
<g >
<title>recv (655,697,136 samples, 0.03%)</title><rect x="10.0" y="293" width="0.4" height="15.0" fill="rgb(222,82,19)" rx="2" ry="2" />
<text  x="13.00" y="303.5" ></text>
</g>
<g >
<title>asm_exc_page_fault (194,733,196 samples, 0.01%)</title><rect x="10.2" y="69" width="0.1" height="15.0" fill="rgb(225,93,22)" rx="2" ry="2" />
<text  x="13.19" y="79.5" ></text>
</g>
<g >
<title>do_user_addr_fault (426,734,060 samples, 0.02%)</title><rect x="1110.6" y="261" width="0.3" height="15.0" fill="rgb(228,108,25)" rx="2" ry="2" />
<text  x="1113.62" y="271.5" ></text>
</g>
<g >
<title>run_rebalance_domains (211,283,836 samples, 0.01%)</title><rect x="1105.1" y="229" width="0.1" height="15.0" fill="rgb(232,126,30)" rx="2" ry="2" />
<text  x="1108.11" y="239.5" ></text>
</g>
<g >
<title>__sysvec_apic_timer_interrupt (714,468,003 samples, 0.03%)</title><rect x="1187.2" y="277" width="0.4" height="15.0" fill="rgb(242,173,41)" rx="2" ry="2" />
<text  x="1190.18" y="287.5" ></text>
</g>
<g >
<title>handle_pte_fault (746,931,003 samples, 0.03%)</title><rect x="1094.5" y="229" width="0.4" height="15.0" fill="rgb(217,57,13)" rx="2" ry="2" />
<text  x="1097.48" y="239.5" ></text>
</g>
<g >
<title>inet_sendmsg (227,791,598 samples, 0.01%)</title><rect x="1110.9" y="117" width="0.1" height="15.0" fill="rgb(244,183,43)" rx="2" ry="2" />
<text  x="1113.88" y="127.5" ></text>
</g>
<g >
<title>update_process_times (644,010,576 samples, 0.03%)</title><rect x="1187.2" y="197" width="0.3" height="15.0" fill="rgb(250,209,50)" rx="2" ry="2" />
<text  x="1190.18" y="207.5" ></text>
</g>
<g >
<title>irq_exit_rcu (424,139,429 samples, 0.02%)</title><rect x="1105.0" y="277" width="0.3" height="15.0" fill="rgb(254,227,54)" rx="2" ry="2" />
<text  x="1108.05" y="287.5" ></text>
</g>
<g >
<title>update_curr (457,974,268 samples, 0.02%)</title><rect x="1103.4" y="149" width="0.3" height="15.0" fill="rgb(227,105,25)" rx="2" ry="2" />
<text  x="1106.41" y="159.5" ></text>
</g>
<g >
<title>perf_adjust_freq_unthr_context (467,941,332 samples, 0.02%)</title><rect x="1187.2" y="149" width="0.3" height="15.0" fill="rgb(236,146,35)" rx="2" ry="2" />
<text  x="1190.23" y="159.5" ></text>
</g>
<g >
<title>irqentry_exit (320,053,433 samples, 0.01%)</title><rect x="1105.3" y="277" width="0.2" height="15.0" fill="rgb(219,66,15)" rx="2" ry="2" />
<text  x="1108.28" y="287.5" ></text>
</g>
<g >
<title>serde_json::de::Deserializer&lt;R&gt;::parse_decimal (3,115,513,776 samples, 0.14%)</title><rect x="1187.7" y="325" width="1.7" height="15.0" fill="rgb(228,108,25)" rx="2" ry="2" />
<text  x="1190.69" y="335.5" ></text>
</g>
<g >
<title>core::slice::sort::shared::smallsort::sort8_stable (8,615,903,379 samples, 0.40%)</title><rect x="1115.9" y="325" width="4.6" height="15.0" fill="rgb(250,210,50)" rx="2" ry="2" />
<text  x="1118.85" y="335.5" ></text>
</g>
<g >
<title>do_iter_readv_writev (227,791,598 samples, 0.01%)</title><rect x="1110.9" y="149" width="0.1" height="15.0" fill="rgb(221,76,18)" rx="2" ry="2" />
<text  x="1113.88" y="159.5" ></text>
</g>
<g >
<title>hrtimer_interrupt (714,468,003 samples, 0.03%)</title><rect x="1187.2" y="261" width="0.4" height="15.0" fill="rgb(228,109,26)" rx="2" ry="2" />
<text  x="1190.18" y="271.5" ></text>
</g>
<g >
<title>tick_nohz_highres_handler (644,010,576 samples, 0.03%)</title><rect x="1187.2" y="229" width="0.3" height="15.0" fill="rgb(215,50,11)" rx="2" ry="2" />
<text  x="1190.18" y="239.5" ></text>
</g>
<g >
<title>_ZN5alloc7raw_vec11finish_grow17hbd73bd63ab428510E.llvm.17989171637232338171 (1,310,580,413 samples, 0.06%)</title><rect x="1113.3" y="325" width="0.7" height="15.0" fill="rgb(221,74,17)" rx="2" ry="2" />
<text  x="1116.30" y="335.5" ></text>
</g>
<g >
<title>sync_regs (279,709,344 samples, 0.01%)</title><rect x="1105.6" y="309" width="0.2" height="15.0" fill="rgb(228,106,25)" rx="2" ry="2" />
<text  x="1108.63" y="319.5" ></text>
</g>
<g >
<title>handle_mm_fault (956,340,394 samples, 0.04%)</title><rect x="1094.4" y="261" width="0.6" height="15.0" fill="rgb(234,135,32)" rx="2" ry="2" />
<text  x="1097.44" y="271.5" ></text>
</g>
<g >
<title>trigger_load_balance (248,886,161 samples, 0.01%)</title><rect x="1104.2" y="165" width="0.1" height="15.0" fill="rgb(228,108,26)" rx="2" ry="2" />
<text  x="1107.17" y="175.5" ></text>
</g>
<g >
<title>&lt;serde_path_to_error::de::TrackedSeed&lt;X&gt; as serde_core::de::DeserializeSeed&gt;::deserialize (2,494,595,017 samples, 0.11%)</title><rect x="1109.1" y="309" width="1.4" height="15.0" fill="rgb(209,22,5)" rx="2" ry="2" />
<text  x="1112.12" y="319.5" ></text>
</g>
<g >
<title>&lt;&amp;mio::net::tcp::stream::TcpStream as std::io::Read&gt;::read (655,697,136 samples, 0.03%)</title><rect x="10.0" y="325" width="0.4" height="15.0" fill="rgb(254,229,54)" rx="2" ry="2" />
<text  x="13.00" y="335.5" ></text>
</g>
<g >
<title>exc_page_fault (438,733,255 samples, 0.02%)</title><rect x="1110.6" y="277" width="0.3" height="15.0" fill="rgb(212,35,8)" rx="2" ry="2" />
<text  x="1113.61" y="287.5" ></text>
</g>
<g >
<title>tick_sched_do_timer (645,319,578 samples, 0.03%)</title><rect x="1096.2" y="213" width="0.3" height="15.0" fill="rgb(227,104,25)" rx="2" ry="2" />
<text  x="1099.16" y="223.5" ></text>
</g>
<g >
<title>sock_write_iter (227,791,598 samples, 0.01%)</title><rect x="1110.9" y="133" width="0.1" height="15.0" fill="rgb(243,178,42)" rx="2" ry="2" />
<text  x="1113.88" y="143.5" ></text>
</g>
<g >
<title>tick_program_event (498,299,889 samples, 0.02%)</title><rect x="1104.7" y="245" width="0.3" height="15.0" fill="rgb(241,166,39)" rx="2" ry="2" />
<text  x="1107.68" y="255.5" ></text>
</g>
<g >
<title>_raw_spin_lock (246,691,552 samples, 0.01%)</title><rect x="1094.5" y="213" width="0.1" height="15.0" fill="rgb(239,160,38)" rx="2" ry="2" />
<text  x="1097.48" y="223.5" ></text>
</g>
<g >
<title>__irq_exit_rcu (424,139,429 samples, 0.02%)</title><rect x="1105.0" y="261" width="0.3" height="15.0" fill="rgb(227,101,24)" rx="2" ry="2" />
<text  x="1108.05" y="271.5" ></text>
</g>
<g >
<title>exc_page_fault (1,523,092,620 samples, 0.07%)</title><rect x="1094.2" y="293" width="0.9" height="15.0" fill="rgb(212,35,8)" rx="2" ry="2" />
<text  x="1097.25" y="303.5" ></text>
</g>
<g >
<title>&lt;&amp;mut serde_json::de::Deserializer&lt;R&gt; as serde_core::de::Deserializer&gt;::deserialize_f32 (2,361,118,529 samples, 0.11%)</title><rect x="1106.4" y="309" width="1.3" height="15.0" fill="rgb(241,169,40)" rx="2" ry="2" />
<text  x="1109.44" y="319.5" ></text>
</g>
<g >
<title>asm_exc_page_fault (191,015,545 samples, 0.01%)</title><rect x="1112.4" y="293" width="0.1" height="15.0" fill="rgb(225,93,22)" rx="2" ry="2" />
<text  x="1115.41" y="303.5" ></text>
</g>
<g >
<title>account_process_tick (639,460,546 samples, 0.03%)</title><rect x="1096.7" y="181" width="0.3" height="15.0" fill="rgb(234,136,32)" rx="2" ry="2" />
<text  x="1099.66" y="191.5" ></text>
</g>
<g >
<title>inet_recvmsg (655,697,136 samples, 0.03%)</title><rect x="10.0" y="181" width="0.4" height="15.0" fill="rgb(206,5,1)" rx="2" ry="2" />
<text  x="13.00" y="191.5" ></text>
</g>
<g >
<title>all (2,173,582,958,091 samples, 100%)</title><rect x="10.0" y="357" width="1180.0" height="15.0" fill="rgb(213,39,9)" rx="2" ry="2" />
<text  x="13.00" y="367.5" ></text>
</g>
<g >
<title>update_process_times (14,424,568,249 samples, 0.66%)</title><rect x="1096.6" y="197" width="7.8" height="15.0" fill="rgb(250,209,50)" rx="2" ry="2" />
<text  x="1099.55" y="207.5" ></text>
</g>
<g >
<title>vfs_writev (227,791,598 samples, 0.01%)</title><rect x="1110.9" y="165" width="0.1" height="15.0" fill="rgb(238,153,36)" rx="2" ry="2" />
<text  x="1113.88" y="175.5" ></text>
</g>
<g >
<title>hrtimer_active (282,304,857 samples, 0.01%)</title><rect x="1103.2" y="149" width="0.1" height="15.0" fill="rgb(212,34,8)" rx="2" ry="2" />
<text  x="1106.16" y="159.5" ></text>
</g>
<g >
<title>__update_load_avg_se (388,206,852 samples, 0.02%)</title><rect x="1103.9" y="133" width="0.2" height="15.0" fill="rgb(254,227,54)" rx="2" ry="2" />
<text  x="1106.90" y="143.5" ></text>
</g>
<g >
<title>&lt;serde_path_to_error::de::TrackedSeed&lt;X&gt; as serde_core::de::DeserializeSeed&gt;::deserialize (668,351,362 samples, 0.03%)</title><rect x="1106.0" y="325" width="0.4" height="15.0" fill="rgb(209,22,5)" rx="2" ry="2" />
<text  x="1109.05" y="335.5" ></text>
</g>
<g >
<title>hrtimer_interrupt (16,871,683,490 samples, 0.78%)</title><rect x="1095.8" y="261" width="9.2" height="15.0" fill="rgb(228,109,26)" rx="2" ry="2" />
<text  x="1098.79" y="271.5" ></text>
</g>
<g >
<title>entry_SYSCALL_64_after_hwframe (227,791,598 samples, 0.01%)</title><rect x="1110.9" y="245" width="0.1" height="15.0" fill="rgb(218,63,15)" rx="2" ry="2" />
<text  x="1113.88" y="255.5" ></text>
</g>
<g >
<title>[libc.so.6] (752,236,659 samples, 0.03%)</title><rect x="1110.5" y="309" width="0.4" height="15.0" fill="rgb(223,84,20)" rx="2" ry="2" />
<text  x="1113.47" y="319.5" ></text>
</g>
<g >
<title>perf_adjust_freq_unthr_context (10,277,940,270 samples, 0.47%)</title><rect x="1097.4" y="149" width="5.6" height="15.0" fill="rgb(236,146,35)" rx="2" ry="2" />
<text  x="1100.42" y="159.5" ></text>
</g>
<g >
<title>[unknown] (714,292,662 samples, 0.03%)</title><rect x="1110.9" y="309" width="0.4" height="15.0" fill="rgb(210,24,5)" rx="2" ry="2" />
<text  x="1113.88" y="319.5" ></text>
</g>
<g >
<title>skb_copy_datagram_iter (434,435,481 samples, 0.02%)</title><rect x="10.1" y="133" width="0.2" height="15.0" fill="rgb(245,188,45)" rx="2" ry="2" />
<text  x="13.07" y="143.5" ></text>
</g>
<g >
<title>__sys_recvfrom (655,697,136 samples, 0.03%)</title><rect x="10.0" y="213" width="0.4" height="15.0" fill="rgb(247,197,47)" rx="2" ry="2" />
<text  x="13.00" y="223.5" ></text>
</g>
<g >
<title>perf_event_task_tick (10,277,940,270 samples, 0.47%)</title><rect x="1097.4" y="165" width="5.6" height="15.0" fill="rgb(205,3,0)" rx="2" ry="2" />
<text  x="1100.42" y="175.5" ></text>
</g>
<g >
<title>handle_pte_fault (388,206,241 samples, 0.02%)</title><rect x="1110.6" y="213" width="0.2" height="15.0" fill="rgb(217,57,13)" rx="2" ry="2" />
<text  x="1113.63" y="223.5" ></text>
</g>
<g >
<title>[unknown] (12,610,291,830 samples, 0.58%)</title><rect x="1106.4" y="325" width="6.9" height="15.0" fill="rgb(210,24,5)" rx="2" ry="2" />
<text  x="1109.44" y="335.5" ></text>
</g>
<g >
<title>asm_exc_page_fault (634,915,485 samples, 0.03%)</title><rect x="1110.5" y="293" width="0.4" height="15.0" fill="rgb(225,93,22)" rx="2" ry="2" />
<text  x="1113.51" y="303.5" ></text>
</g>
<g >
<title>task_tick_fair (2,153,305,876 samples, 0.10%)</title><rect x="1103.0" y="165" width="1.2" height="15.0" fill="rgb(217,57,13)" rx="2" ry="2" />
<text  x="1106.00" y="175.5" ></text>
</g>
<g >
<title>__hrtimer_run_queues (15,769,025,976 samples, 0.73%)</title><rect x="1095.8" y="245" width="8.6" height="15.0" fill="rgb(237,150,35)" rx="2" ry="2" />
<text  x="1098.83" y="255.5" ></text>
</g>
<g >
<title>tick_do_update_jiffies64 (249,945,054 samples, 0.01%)</title><rect x="1096.4" y="197" width="0.1" height="15.0" fill="rgb(208,14,3)" rx="2" ry="2" />
<text  x="1099.38" y="207.5" ></text>
</g>
<g >
<title>&lt;alloc::vec::Vec&lt;T&gt; as alloc::vec::spec_from_iter::SpecFromIter&lt;T,I&gt;&gt;::from_iter (2,017,779,118,899 samples, 92.83%)</title><rect x="10.4" y="325" width="1095.4" height="15.0" fill="rgb(229,112,26)" rx="2" ry="2" />
<text  x="13.36" y="335.5" >&lt;alloc::vec::Vec&lt;T&gt; as alloc::vec::spec_from_iter::SpecFromIter&lt;T,I&gt;&gt;::from_iter</text>
</g>
<g >
<title>_raw_spin_lock (220,607,249 samples, 0.01%)</title><rect x="1096.3" y="197" width="0.1" height="15.0" fill="rgb(239,160,38)" rx="2" ry="2" />
<text  x="1099.26" y="207.5" ></text>
</g>
<g >
<title>sock_recvmsg (655,697,136 samples, 0.03%)</title><rect x="10.0" y="197" width="0.4" height="15.0" fill="rgb(206,5,1)" rx="2" ry="2" />
<text  x="13.00" y="207.5" ></text>
</g>
<g >
<title>asm_exc_page_fault (2,131,119,140 samples, 0.10%)</title><rect x="1093.9" y="309" width="1.2" height="15.0" fill="rgb(225,93,22)" rx="2" ry="2" />
<text  x="1096.92" y="319.5" ></text>
</g>
<g >
<title>x64_sys_call (655,697,136 samples, 0.03%)</title><rect x="10.0" y="245" width="0.4" height="15.0" fill="rgb(247,194,46)" rx="2" ry="2" />
<text  x="13.00" y="255.5" ></text>
</g>
<g >
<title>&lt;serde_core::de::impls::&lt;impl serde_core::de::Deserialize for alloc::vec::Vec&lt;T&gt;&gt;::deserialize::VecVisitor&lt;T&gt; as serde_core::de::Visitor&gt;::visit_seq (460,444,896 samples, 0.02%)</title><rect x="1107.7" y="309" width="0.3" height="15.0" fill="rgb(214,45,10)" rx="2" ry="2" />
<text  x="1110.74" y="319.5" ></text>
</g>
<g >
<title>core::slice::sort::shared::pivot::median3_rec (3,163,659,404 samples, 0.15%)</title><rect x="1114.1" y="325" width="1.8" height="15.0" fill="rgb(218,62,14)" rx="2" ry="2" />
<text  x="1117.14" y="335.5" ></text>
</g>
<g >
<title>serde_json::de::Deserializer&lt;R&gt;::parse_integer (993,824,584 samples, 0.05%)</title><rect x="1112.7" y="309" width="0.6" height="15.0" fill="rgb(228,107,25)" rx="2" ry="2" />
<text  x="1115.74" y="319.5" ></text>
</g>
<g >
<title>tick_sched_handle (644,010,576 samples, 0.03%)</title><rect x="1187.2" y="213" width="0.3" height="15.0" fill="rgb(219,68,16)" rx="2" ry="2" />
<text  x="1190.18" y="223.5" ></text>
</g>
<g >
<title>do_user_addr_fault (194,733,196 samples, 0.01%)</title><rect x="10.2" y="37" width="0.1" height="15.0" fill="rgb(228,108,25)" rx="2" ry="2" />
<text  x="13.19" y="47.5" ></text>
</g>
<g >
<title>update_load_avg (915,897,391 samples, 0.04%)</title><rect x="1103.7" y="149" width="0.5" height="15.0" fill="rgb(240,165,39)" rx="2" ry="2" />
<text  x="1106.65" y="159.5" ></text>
</g>
<g >
<title>do_syscall_64 (227,791,598 samples, 0.01%)</title><rect x="1110.9" y="229" width="0.1" height="15.0" fill="rgb(209,20,4)" rx="2" ry="2" />
<text  x="1113.88" y="239.5" ></text>
</g>
<g >
<title>_ZN9hashbrown3raw21RawTable$LT$T$C$A$GT$14reserve_rehash17hc28e9149a19b27d0E.llvm.16151451059541401719 (298,415,679 samples, 0.01%)</title><rect x="1112.4" y="309" width="0.1" height="15.0" fill="rgb(216,53,12)" rx="2" ry="2" />
<text  x="1115.35" y="319.5" ></text>
</g>
<g >
<title>tcp_recvmsg_locked (553,635,846 samples, 0.03%)</title><rect x="10.1" y="149" width="0.3" height="15.0" fill="rgb(226,100,24)" rx="2" ry="2" />
<text  x="13.06" y="159.5" ></text>
</g>
<g >
<title>[libc.so.6] (558,305,943 samples, 0.03%)</title><rect x="1113.7" y="277" width="0.3" height="15.0" fill="rgb(223,84,20)" rx="2" ry="2" />
<text  x="1116.69" y="287.5" ></text>
</g>
<g >
<title>tcp_sendmsg (192,558,191 samples, 0.01%)</title><rect x="1110.9" y="101" width="0.1" height="15.0" fill="rgb(223,83,19)" rx="2" ry="2" />
<text  x="1113.88" y="111.5" ></text>
</g>
<g >
<title>asm_sysvec_apic_timer_interrupt (749,700,716 samples, 0.03%)</title><rect x="1187.2" y="309" width="0.4" height="15.0" fill="rgb(232,127,30)" rx="2" ry="2" />
<text  x="1190.16" y="319.5" ></text>
</g>
<g >
<title>task_work_run (249,581,647 samples, 0.01%)</title><rect x="1105.3" y="245" width="0.2" height="15.0" fill="rgb(209,22,5)" rx="2" ry="2" />
<text  x="1108.32" y="255.5" ></text>
</g>
<g >
<title>irqentry_exit_to_user_mode (320,053,433 samples, 0.01%)</title><rect x="1105.3" y="261" width="0.2" height="15.0" fill="rgb(254,229,54)" rx="2" ry="2" />
<text  x="1108.28" y="271.5" ></text>
</g>
<g >
<title>tcp_sendmsg_locked (192,558,191 samples, 0.01%)</title><rect x="1110.9" y="85" width="0.1" height="15.0" fill="rgb(215,48,11)" rx="2" ry="2" />
<text  x="1113.88" y="95.5" ></text>
</g>
<g >
<title>do_syscall_64 (655,697,136 samples, 0.03%)</title><rect x="10.0" y="261" width="0.4" height="15.0" fill="rgb(209,20,4)" rx="2" ry="2" />
<text  x="13.00" y="271.5" ></text>
</g>
<g >
<title>handle_softirqs (353,665,324 samples, 0.02%)</title><rect x="1105.1" y="245" width="0.2" height="15.0" fill="rgb(238,156,37)" rx="2" ry="2" />
<text  x="1108.09" y="255.5" ></text>
</g>
<g >
<title>_ZN9hashbrown3map28HashMap$LT$K$C$V$C$S$C$A$GT$6insert17h8e8c19612877736eE.llvm.11202729299326348926 (360,189,006 samples, 0.02%)</title><rect x="1112.2" y="309" width="0.2" height="15.0" fill="rgb(215,47,11)" rx="2" ry="2" />
<text  x="1115.15" y="319.5" ></text>
</g>
<g >
<title>&lt;serde_json::de::SeqAccess&lt;R&gt; as serde_core::de::SeqAccess&gt;::next_element_seed (1,975,196,023 samples, 0.09%)</title><rect x="1108.0" y="309" width="1.1" height="15.0" fill="rgb(253,222,53)" rx="2" ry="2" />
<text  x="1110.99" y="319.5" ></text>
</g>
<g >
<title>__cgroup_account_cputime_field (283,939,156 samples, 0.01%)</title><rect x="1096.7" y="149" width="0.2" height="15.0" fill="rgb(232,126,30)" rx="2" ry="2" />
<text  x="1099.72" y="159.5" ></text>
</g>
<g >
<title>writev (227,791,598 samples, 0.01%)</title><rect x="1110.9" y="261" width="0.1" height="15.0" fill="rgb(216,50,12)" rx="2" ry="2" />
<text  x="1113.88" y="271.5" ></text>
</g>
<g >
<title>sysvec_apic_timer_interrupt (714,468,003 samples, 0.03%)</title><rect x="1187.2" y="293" width="0.4" height="15.0" fill="rgb(220,69,16)" rx="2" ry="2" />
<text  x="1190.18" y="303.5" ></text>
</g>
<g >
<title>_ZN80_$LT$serde_json..de..SeqAccess$LT$R$GT$$u20$as$u20$serde_core..de..SeqAccess$GT$17next_element_seed16has_next_element17h087e193fb1d70ce3E.llvm.3740052009910741899 (1,456,289,411 samples, 0.07%)</title><rect x="1111.4" y="309" width="0.8" height="15.0" fill="rgb(251,213,51)" rx="2" ry="2" />
<text  x="1114.36" y="319.5" ></text>
</g>
<g >
<title>down_read_trylock (246,638,596 samples, 0.01%)</title><rect x="1094.3" y="261" width="0.1" height="15.0" fill="rgb(219,66,15)" rx="2" ry="2" />
<text  x="1097.30" y="271.5" ></text>
</g>
<g >
<title>serde_json::de::Deserializer&lt;R&gt;::parse_decimal (218,642,953 samples, 0.01%)</title><rect x="1112.6" y="309" width="0.1" height="15.0" fill="rgb(228,108,25)" rx="2" ry="2" />
<text  x="1115.63" y="319.5" ></text>
</g>
<g >
<title>__x64_sys_recvfrom (655,697,136 samples, 0.03%)</title><rect x="10.0" y="229" width="0.4" height="15.0" fill="rgb(224,88,21)" rx="2" ry="2" />
<text  x="13.00" y="239.5" ></text>
</g>
<g >
<title>do_user_addr_fault (1,449,600,708 samples, 0.07%)</title><rect x="1094.3" y="277" width="0.8" height="15.0" fill="rgb(228,108,25)" rx="2" ry="2" />
<text  x="1097.29" y="287.5" ></text>
</g>
<g >
<title>__skb_datagram_iter (434,435,481 samples, 0.02%)</title><rect x="10.1" y="117" width="0.2" height="15.0" fill="rgb(244,179,42)" rx="2" ry="2" />
<text  x="13.07" y="127.5" ></text>
</g>
<g >
<title>__sysvec_apic_timer_interrupt (17,047,872,820 samples, 0.78%)</title><rect x="1095.7" y="277" width="9.3" height="15.0" fill="rgb(242,173,41)" rx="2" ry="2" />
<text  x="1098.74" y="287.5" ></text>
</g>
<g >
<title>scheduler_tick (13,417,813,946 samples, 0.62%)</title><rect x="1097.1" y="181" width="7.3" height="15.0" fill="rgb(246,190,45)" rx="2" ry="2" />
<text  x="1100.10" y="191.5" ></text>
</g>
<g >
<title>handle_mm_fault (414,947,499 samples, 0.02%)</title><rect x="1110.6" y="245" width="0.2" height="15.0" fill="rgb(234,135,32)" rx="2" ry="2" />
<text  x="1113.62" y="255.5" ></text>
</g>
<g >
<title>x64_sys_call (227,791,598 samples, 0.01%)</title><rect x="1110.9" y="213" width="0.1" height="15.0" fill="rgb(247,194,46)" rx="2" ry="2" />
<text  x="1113.88" y="223.5" ></text>
</g>
<g >
<title>&lt;&amp;std::os::unix::net::stream::UnixStream as std::io::Read&gt;::read (655,697,136 samples, 0.03%)</title><rect x="10.0" y="309" width="0.4" height="15.0" fill="rgb(241,169,40)" rx="2" ry="2" />
<text  x="13.00" y="319.5" ></text>
</g>
<g >
<title>&lt;serde_path_to_error::de::TrackedSeed&lt;X&gt; as serde_core::de::DeserializeSeed&gt;::deserialize (262,499,505 samples, 0.01%)</title><rect x="1111.1" y="293" width="0.1" height="15.0" fill="rgb(209,22,5)" rx="2" ry="2" />
<text  x="1114.06" y="303.5" ></text>
</g>
<g >
<title>exc_page_fault (194,733,196 samples, 0.01%)</title><rect x="10.2" y="53" width="0.1" height="15.0" fill="rgb(212,35,8)" rx="2" ry="2" />
<text  x="13.19" y="63.5" ></text>
</g>
<g >
<title>[libc.so.6] (789,485,683 samples, 0.04%)</title><rect x="1113.6" y="293" width="0.4" height="15.0" fill="rgb(223,84,20)" rx="2" ry="2" />
<text  x="1116.58" y="303.5" ></text>
</g>
<g >
<title>tokio-runtime-w (2,173,582,958,091 samples, 100.00%)</title><rect x="10.0" y="341" width="1180.0" height="15.0" fill="rgb(223,84,20)" rx="2" ry="2" />
<text  x="13.00" y="351.5" >tokio-runtime-w</text>
</g>
<g >
<title>entry_SYSCALL_64_after_hwframe (655,697,136 samples, 0.03%)</title><rect x="10.0" y="277" width="0.4" height="15.0" fill="rgb(218,63,15)" rx="2" ry="2" />
<text  x="13.00" y="287.5" ></text>
</g>
<g >
<title>timekeeping_advance (249,945,054 samples, 0.01%)</title><rect x="1096.4" y="165" width="0.1" height="15.0" fill="rgb(227,104,25)" rx="2" ry="2" />
<text  x="1099.38" y="175.5" ></text>
</g>
<g >
<title>do_anonymous_page (349,230,625 samples, 0.02%)</title><rect x="1110.7" y="197" width="0.1" height="15.0" fill="rgb(238,155,37)" rx="2" ry="2" />
<text  x="1113.65" y="207.5" ></text>
</g>
<g >
<title>&lt;&amp;mio::net::tcp::stream::TcpStream as std::io::Write&gt;::write_vectored (227,791,598 samples, 0.01%)</title><rect x="1110.9" y="293" width="0.1" height="15.0" fill="rgb(238,152,36)" rx="2" ry="2" />
<text  x="1113.88" y="303.5" ></text>
</g>
<g >
<title>sysvec_apic_timer_interrupt (18,077,972,637 samples, 0.83%)</title><rect x="1095.7" y="293" width="9.8" height="15.0" fill="rgb(220,69,16)" rx="2" ry="2" />
<text  x="1098.72" y="303.5" ></text>
</g>
<g >
<title>tick_sched_handle (14,495,044,931 samples, 0.67%)</title><rect x="1096.5" y="213" width="7.9" height="15.0" fill="rgb(219,68,16)" rx="2" ry="2" />
<text  x="1099.51" y="223.5" ></text>
</g>
<g >
<title>tick_nohz_highres_handler (15,641,558,493 samples, 0.72%)</title><rect x="1095.9" y="229" width="8.5" height="15.0" fill="rgb(215,50,11)" rx="2" ry="2" />
<text  x="1098.89" y="239.5" ></text>
</g>
<g >
<title>&lt;serde_core::de::impls::&lt;impl serde_core::de::Deserialize for alloc::vec::Vec&lt;T&gt;&gt;::deserialize::VecVisitor&lt;T&gt; as serde_core::de::Visitor&gt;::visit_seq (293,999,278 samples, 0.01%)</title><rect x="1105.8" y="325" width="0.2" height="15.0" fill="rgb(214,45,10)" rx="2" ry="2" />
<text  x="1108.81" y="335.5" ></text>
</g>
<g >
<title>update_wall_time (249,945,054 samples, 0.01%)</title><rect x="1096.4" y="181" width="0.1" height="15.0" fill="rgb(207,11,2)" rx="2" ry="2" />
<text  x="1099.38" y="191.5" ></text>
</g>
</g>
</svg>
