<?xml version="1.0" standalone="no"?>
<!DOCTYPE svg PUBLIC "-//W3C//DTD SVG 1.1//EN" "http://www.w3.org/Graphics/SVG/1.1/DTD/svg11.dtd">
<svg version="1.1" width="1200" height="358" onload="init(evt)" viewBox="0 0 1200 358" xmlns="http://www.w3.org/2000/svg" xmlns:xlink="http://www.w3.org/1999/xlink">
<!-- Flame graph stack visualization. See https://github.com/brendangregg/FlameGraph for latest version, and http://www.brendangregg.com/flamegraphs.html for examples. -->
<!-- NOTES:  -->
<defs>
	<linearGradient id="background" y1="0" y2="1" x1="0" x2="0" >
		<stop stop-color="#eeeeee" offset="5%" />
		<stop stop-color="#eeeeb0" offset="95%" />
	</linearGradient>
</defs>
<style type="text/css">
	text { font-family:Verdana; font-size:12px; fill:rgb(0,0,0); }
	#search, #ignorecase { opacity:0.1; cursor:pointer; }
	#search:hover, #search.show, #ignorecase:hover, #ignorecase.show { opacity:1; }
	#subtitle { text-anchor:middle; font-color:rgb(160,160,160); }
	#title { text-anchor:middle; font-size:17px}
	#unzoom { cursor:pointer; }
	#frames > *:hover { stroke:black; stroke-width:0.5; cursor:pointer; }
	.hide { display:none; }
	.parent { opacity:0.5; }
</style>
<script type="text/ecmascript">
<![CDATA[
	"use strict";
	var details, searchbtn, unzoombtn, matchedtxt, svg, searching, currentSearchTerm, ignorecase, ignorecaseBtn;
	function init(evt) {
		details = document.getElementById("details").firstChild;
		searchbtn = document.getElementById("search");
		ignorecaseBtn = document.getElementById("ignorecase");
		unzoombtn = document.getElementById("unzoom");
		matchedtxt = document.getElementById("matched");
		svg = document.getElementsByTagName("svg")[0];
		searching = 0;
		currentSearchTerm = null;

		// use GET parameters to restore a flamegraphs state.
		var params = get_params();
		if (params.x && params.y)
			zoom(find_group(document.querySelector('[x="' + params.x + '"][y="' + params.y + '"]')));
                if (params.s) search(params.s);
	}

	// event listeners
	window.addEventListener("click", function(e) {
		var target = find_group(e.target);
		if (target) {
			if (target.nodeName == "a") {
				if (e.ctrlKey === false) return;
				e.preventDefault();
			}
			if (target.classList.contains("parent")) unzoom(true);
			zoom(target);
			if (!document.querySelector('.parent')) {
				// we have basically done a clearzoom so clear the url
				var params = get_params();
				if (params.x) delete params.x;
				if (params.y) delete params.y;
				history.replaceState(null, null, parse_params(params));
				unzoombtn.classList.add("hide");
				return;
			}

			// set parameters for zoom state
			var el = target.querySelector("rect");
			if (el && el.attributes && el.attributes.y && el.attributes._orig_x) {
				var params = get_params()
				params.x = el.attributes._orig_x.value;
				params.y = el.attributes.y.value;
				history.replaceState(null, null, parse_params(params));
			}
		}
		else if (e.target.id == "unzoom") clearzoom();
		else if (e.target.id == "search") search_prompt();
		else if (e.target.id == "ignorecase") toggle_ignorecase();
	}, false)

	// mouse-over for info
	// show
	window.addEventListener("mouseover", function(e) {
		var target = find_group(e.target);
		if (target) details.nodeValue = "Function: " + g_to_text(target);
	}, false)

	// clear
	window.addEventListener("mouseout", function(e) {
		var target = find_group(e.target);
		if (target) details.nodeValue = ' ';
	}, false)

	// ctrl-F for search
	// ctrl-I to toggle case-sensitive search
	window.addEventListener("keydown",function (e) {
		if (e.keyCode === 114 || (e.ctrlKey && e.keyCode === 70)) {
			e.preventDefault();
			search_prompt();
		}
		else if (e.ctrlKey && e.keyCode === 73) {
			e.preventDefault();
			toggle_ignorecase();
		}
	}, false)

	// functions
	function get_params() {
		var params = {};
		var paramsarr = window.location.search.substr(1).split('&');
		for (var i = 0; i < paramsarr.length; ++i) {
			var tmp = paramsarr[i].split("=");
			if (!tmp[0] || !tmp[1]) continue;
			params[tmp[0]]  = decodeURIComponent(tmp[1]);
		}
		return params;
	}
	function parse_params(params) {
		var uri = "?";
		for (var key in params) {
			uri += key + '=' + encodeURIComponent(params[key]) + '&';
		}
		if (uri.slice(-1) == "&")
			uri = uri.substring(0, uri.length - 1);
		if (uri == '?')
			uri = window.location.href.split('?')[0];
		return uri;
	}
	function find_child(node, selector) {
		var children = node.querySelectorAll(selector);
		if (children.length) return children[0];
	}
	function find_group(node) {
		var parent = node.parentElement;
		if (!parent) return;
		if (parent.id == "frames") return node;
		return find_group(parent);
	}
	function orig_save(e, attr, val) {
		if (e.attributes["_orig_" + attr] != undefined) return;
		if (e.attributes[attr] == undefined) return;
		if (val == undefined) val = e.attributes[attr].value;
		e.setAttribute("_orig_" + attr, val);
	}
	function orig_load(e, attr) {
		if (e.attributes["_orig_"+attr] == undefined) return;
		e.attributes[attr].value = e.attributes["_orig_" + attr].value;
		e.removeAttribute("_orig_"+attr);
	}
	function g_to_text(e) {
		var text = find_child(e, "title").firstChild.nodeValue;
		return (text)
	}
	function g_to_func(e) {
		var func = g_to_text(e);
		// if there's any manipulation we want to do to the function
		// name before it's searched, do it here before returning.
		return (func);
	}
	function update_text(e) {
		var r = find_child(e, "rect");
		var t = find_child(e, "text");
		var w = parseFloat(r.attributes.width.value) -3;
		var txt = find_child(e, "title").textContent.replace(/\([^(]*\)$/,"");
		t.attributes.x.value = parseFloat(r.attributes.x.value) + 3;

		// Smaller than this size won't fit anything
		if (w < 2 * 12 * 0.59) {
			t.textContent = "";
			return;
		}

		t.textContent = txt;
		var sl = t.getSubStringLength(0, txt.length);
		// check if only whitespace or if we can fit the entire string into width w
		if (/^ *$/.test(txt) || sl < w)
			return;

		// this isn't perfect, but gives a good starting point
		// and avoids calling getSubStringLength too often
		var start = Math.floor((w/sl) * txt.length);
		for (var x = start; x > 0; x = x-2) {
			if (t.getSubStringLength(0, x + 2) <= w) {
				t.textContent = txt.substring(0, x) + "..";
				return;
			}
		}
		t.textContent = "";
	}

	// zoom
	function zoom_reset(e) {
		if (e.attributes != undefined) {
			orig_load(e, "x");
			orig_load(e, "width");
		}
		if (e.childNodes == undefined) return;
		for (var i = 0, c = e.childNodes; i < c.length; i++) {
			zoom_reset(c[i]);
		}
	}
	function zoom_child(e, x, ratio) {
		if (e.attributes != undefined) {
			if (e.attributes.x != undefined) {
				orig_save(e, "x");
				e.attributes.x.value = (parseFloat(e.attributes.x.value) - x - 10) * ratio + 10;
				if (e.tagName == "text")
					e.attributes.x.value = find_child(e.parentNode, "rect[x]").attributes.x.value + 3;
			}
			if (e.attributes.width != undefined) {
				orig_save(e, "width");
				e.attributes.width.value = parseFloat(e.attributes.width.value) * ratio;
			}
		}

		if (e.childNodes == undefined) return;
		for (var i = 0, c = e.childNodes; i < c.length; i++) {
			zoom_child(c[i], x - 10, ratio);
		}
	}
	function zoom_parent(e) {
		if (e.attributes) {
			if (e.attributes.x != undefined) {
				orig_save(e, "x");
				e.attributes.x.value = 10;
			}
			if (e.attributes.width != undefined) {
				orig_save(e, "width");
				e.attributes.width.value = parseInt(svg.width.baseVal.value) - (10 * 2);
			}
		}
		if (e.childNodes == undefined) return;
		for (var i = 0, c = e.childNodes; i < c.length; i++) {
			zoom_parent(c[i]);
		}
	}
	function zoom(node) {
		var attr = find_child(node, "rect").attributes;
		var width = parseFloat(attr.width.value);
		var xmin = parseFloat(attr.x.value);
		var xmax = parseFloat(xmin + width);
		var ymin = parseFloat(attr.y.value);
		var ratio = (svg.width.baseVal.value - 2 * 10) / width;

		// XXX: Workaround for JavaScript float issues (fix me)
		var fudge = 0.0001;

		unzoombtn.classList.remove("hide");

		var el = document.getElementById("frames").children;
		for (var i = 0; i < el.length; i++) {
			var e = el[i];
			var a = find_child(e, "rect").attributes;
			var ex = parseFloat(a.x.value);
			var ew = parseFloat(a.width.value);
			var upstack;
			// Is it an ancestor
			if (0 == 0) {
				upstack = parseFloat(a.y.value) > ymin;
			} else {
				upstack = parseFloat(a.y.value) < ymin;
			}
			if (upstack) {
				// Direct ancestor
				if (ex <= xmin && (ex+ew+fudge) >= xmax) {
					e.classList.add("parent");
					zoom_parent(e);
					update_text(e);
				}
				// not in current path
				else
					e.classList.add("hide");
			}
			// Children maybe
			else {
				// no common path
				if (ex < xmin || ex + fudge >= xmax) {
					e.classList.add("hide");
				}
				else {
					zoom_child(e, xmin, ratio);
					update_text(e);
				}
			}
		}
		search();
	}
	function unzoom(dont_update_text) {
		unzoombtn.classList.add("hide");
		var el = document.getElementById("frames").children;
		for(var i = 0; i < el.length; i++) {
			el[i].classList.remove("parent");
			el[i].classList.remove("hide");
			zoom_reset(el[i]);
			if(!dont_update_text) update_text(el[i]);
		}
		search();
	}
	function clearzoom() {
		unzoom();

		// remove zoom state
		var params = get_params();
		if (params.x) delete params.x;
		if (params.y) delete params.y;
		history.replaceState(null, null, parse_params(params));
	}

	// search
	function toggle_ignorecase() {
		ignorecase = !ignorecase;
		if (ignorecase) {
			ignorecaseBtn.classList.add("show");
		} else {
			ignorecaseBtn.classList.remove("show");
		}
		reset_search();
		search();
	}
	function reset_search() {
		var el = document.querySelectorAll("#frames rect");
		for (var i = 0; i < el.length; i++) {
			orig_load(el[i], "fill")
		}
		var params = get_params();
		delete params.s;
		history.replaceState(null, null, parse_params(params));
	}
	function search_prompt() {
		if (!searching) {
			var term = prompt("Enter a search term (regexp " +
			    "allowed, eg: ^ext4_)"
			    + (ignorecase ? ", ignoring case" : "")
			    + "\nPress Ctrl-i to toggle case sensitivity", "");
			if (term != null) search(term);
		} else {
			reset_search();
			searching = 0;
			currentSearchTerm = null;
			searchbtn.classList.remove("show");
			searchbtn.firstChild.nodeValue = "Search"
			matchedtxt.classList.add("hide");
			matchedtxt.firstChild.nodeValue = ""
		}
	}
	function search(term) {
		if (term) currentSearchTerm = term;
		if (currentSearchTerm === null) return;

		var re = new RegExp(currentSearchTerm, ignorecase ? 'i' : '');
		var el = document.getElementById("frames").children;
		var matches = new Object();
		var maxwidth = 0;
		for (var i = 0; i < el.length; i++) {
			var e = el[i];
			var func = g_to_func(e);
			var rect = find_child(e, "rect");
			if (func == null || rect == null)
				continue;

			// Save max width. Only works as we have a root frame
			var w = parseFloat(rect.attributes.width.value);
			if (w > maxwidth)
				maxwidth = w;

			if (func.match(re)) {
				// highlight
				var x = parseFloat(rect.attributes.x.value);
				orig_save(rect, "fill");
				rect.attributes.fill.value = "rgb(230,0,230)";

				// remember matches
				if (matches[x] == undefined) {
					matches[x] = w;
				} else {
					if (w > matches[x]) {
						// overwrite with parent
						matches[x] = w;
					}
				}
				searching = 1;
			}
		}
		if (!searching)
			return;
		var params = get_params();
		params.s = currentSearchTerm;
		history.replaceState(null, null, parse_params(params));

		searchbtn.classList.add("show");
		searchbtn.firstChild.nodeValue = "Reset Search";

		// calculate percent matched, excluding vertical overlap
		var count = 0;
		var lastx = -1;
		var lastw = 0;
		var keys = Array();
		for (k in matches) {
			if (matches.hasOwnProperty(k))
				keys.push(k);
		}
		// sort the matched frames by their x location
		// ascending, then width descending
		keys.sort(function(a, b){
			return a - b;
		});
		// Step through frames saving only the biggest bottom-up frames
		// thanks to the sort order. This relies on the tree property
		// where children are always smaller than their parents.
		var fudge = 0.0001;	// JavaScript floating point
		for (var k in keys) {
			var x = parseFloat(keys[k]);
			var w = matches[keys[k]];
			if (x >= lastx + lastw - fudge) {
				count += w;
				lastx = x;
				lastw = w;
			}
		}
		// display matched percent
		matchedtxt.classList.remove("hide");
		var pct = 100 * count / maxwidth;
		if (pct != 100) pct = pct.toFixed(1)
		matchedtxt.firstChild.nodeValue = "Matched: " + pct + "%";
	}
]]>
</script>
<rect x="0.0" y="0" width="1200.0" height="358.0" fill="url(#background)"  />
<text id="title" x="600.00" y="24" >Flame Graph</text>
<text id="details" x="10.00" y="341" > </text>
<text id="unzoom" x="10.00" y="24" class="hide">Reset Zoom</text>
<text id="search" x="1090.00" y="24" >Search</text>
<text id="ignorecase" x="1174.00" y="24" >ic</text>
<text id="matched" x="1090.00" y="341" > </text>
<g id="frames">
<g >
<title>sysvec_apic_timer_interrupt (246,527,358 samples, 0.01%)</title><rect x="1057.8" y="229" width="0.2" height="15.0" fill="rgb(220,69,16)" rx="2" ry="2" />
<text  x="1060.84" y="239.5" ></text>
</g>
<g >
<title>_ZN80_$LT$serde_json..de..SeqAccess$LT$R$GT$$u20$as$u20$serde_core..de..SeqAccess$GT$17next_element_seed16has_next_element17h087e193fb1d70ce3E.llvm.11463580434254068115 (1,101,975,536 samples, 0.05%)</title><rect x="1040.7" y="261" width="0.6" height="15.0" fill="rgb(236,145,34)" rx="2" ry="2" />
<text  x="1043.72" y="271.5" ></text>
</g>
<g >
<title>task_work_run (211,398,709 samples, 0.01%)</title><rect x="1020.3" y="197" width="0.2" height="15.0" fill="rgb(209,22,5)" rx="2" ry="2" />
<text  x="1023.35" y="207.5" ></text>
</g>
<g >
<title>update_load_avg (950,122,650 samples, 0.04%)</title><rect x="1018.9" y="101" width="0.6" height="15.0" fill="rgb(240,165,39)" rx="2" ry="2" />
<text  x="1021.92" y="111.5" ></text>
</g>
<g >
<title>up_read (246,635,359 samples, 0.01%)</title><rect x="1011.4" y="213" width="0.2" height="15.0" fill="rgb(209,18,4)" rx="2" ry="2" />
<text  x="1014.43" y="223.5" ></text>
</g>
<g >
<title>update_process_times (1,195,916,430 samples, 0.06%)</title><rect x="1185.8" y="149" width="0.6" height="15.0" fill="rgb(250,209,50)" rx="2" ry="2" />
<text  x="1188.78" y="159.5" ></text>
</g>
<g >
<title>account_user_time (458,634,646 samples, 0.02%)</title><rect x="1012.6" y="117" width="0.2" height="15.0" fill="rgb(225,96,23)" rx="2" ry="2" />
<text  x="1015.56" y="127.5" ></text>
</g>
<g >
<title>_raw_spin_lock (493,640,387 samples, 0.02%)</title><rect x="1010.8" y="149" width="0.3" height="15.0" fill="rgb(239,160,38)" rx="2" ry="2" />
<text  x="1013.78" y="159.5" ></text>
</g>
<g >
<title>core::slice::sort::shared::smallsort::small_sort_general_with_scratch (25,357,319,646 samples, 1.20%)</title><rect x="1043.9" y="261" width="14.1" height="15.0" fill="rgb(238,154,37)" rx="2" ry="2" />
<text  x="1046.85" y="271.5" ></text>
</g>
<g >
<title>_ZN9hashbrown3raw21RawTable$LT$T$C$A$GT$14reserve_rehash17hc28e9149a19b27d0E.llvm.14542094067284826683 (305,448,338 samples, 0.01%)</title><rect x="1041.3" y="261" width="0.2" height="15.0" fill="rgb(243,178,42)" rx="2" ry="2" />
<text  x="1044.33" y="271.5" ></text>
</g>
<g >
<title>update_process_times (13,125,294,765 samples, 0.62%)</title><rect x="1012.5" y="149" width="7.3" height="15.0" fill="rgb(250,209,50)" rx="2" ry="2" />
<text  x="1015.49" y="159.5" ></text>
</g>
<g >
<title>update_process_times (211,301,373 samples, 0.01%)</title><rect x="1057.9" y="133" width="0.1" height="15.0" fill="rgb(250,209,50)" rx="2" ry="2" />
<text  x="1060.86" y="143.5" ></text>
</g>
<g >
<title>__sysvec_apic_timer_interrupt (14,640,877,957 samples, 0.69%)</title><rect x="1012.1" y="229" width="8.1" height="15.0" fill="rgb(242,173,41)" rx="2" ry="2" />
<text  x="1015.05" y="239.5" ></text>
</g>
<g >
<title>realloc (1,236,135,968 samples, 0.06%)</title><rect x="1077.7" y="261" width="0.7" height="15.0" fill="rgb(246,189,45)" rx="2" ry="2" />
<text  x="1080.68" y="271.5" ></text>
</g>
<g >
<title>rep_movs_alternative (266,977,908 samples, 0.01%)</title><rect x="10.0" y="37" width="0.2" height="15.0" fill="rgb(205,1,0)" rx="2" ry="2" />
<text  x="13.04" y="47.5" ></text>
</g>
<g >
<title>asm_exc_page_fault (4,485,617,917 samples, 0.21%)</title><rect x="1009.1" y="261" width="2.5" height="15.0" fill="rgb(225,93,22)" rx="2" ry="2" />
<text  x="1012.12" y="271.5" ></text>
</g>
<g >
<title>simple_copy_to_iter (318,680,993 samples, 0.02%)</title><rect x="10.0" y="53" width="0.2" height="15.0" fill="rgb(228,110,26)" rx="2" ry="2" />
<text  x="13.01" y="63.5" ></text>
</g>
<g >
<title>do_user_addr_fault (3,099,596,802 samples, 0.15%)</title><rect x="1009.8" y="229" width="1.8" height="15.0" fill="rgb(228,108,25)" rx="2" ry="2" />
<text  x="1012.84" y="239.5" ></text>
</g>
<g >
<title>asm_sysvec_apic_timer_interrupt (3,150,090,783 samples, 0.15%)</title><rect x="1038.5" y="245" width="1.7" height="15.0" fill="rgb(232,127,30)" rx="2" ry="2" />
<text  x="1041.48" y="255.5" ></text>
</g>
<g >
<title>serde_json::de::Deserializer&lt;R&gt;::parse_decimal (4,811,055,740 samples, 0.23%)</title><rect x="1186.6" y="277" width="2.7" height="15.0" fill="rgb(228,108,25)" rx="2" ry="2" />
<text  x="1189.60" y="287.5" ></text>
</g>
<g >
<title>update_cfs_group (337,497,428 samples, 0.02%)</title><rect x="1019.5" y="117" width="0.2" height="15.0" fill="rgb(242,174,41)" rx="2" ry="2" />
<text  x="1022.55" y="127.5" ></text>
</g>
<g >
<title>__hrtimer_run_queues (1,231,135,358 samples, 0.06%)</title><rect x="1185.8" y="197" width="0.6" height="15.0" fill="rgb(237,150,35)" rx="2" ry="2" />
<text  x="1188.76" y="207.5" ></text>
</g>
<g >
<title>sysvec_apic_timer_interrupt (1,407,191,589 samples, 0.07%)</title><rect x="1185.7" y="245" width="0.8" height="15.0" fill="rgb(220,69,16)" rx="2" ry="2" />
<text  x="1188.68" y="255.5" ></text>
</g>
<g >
<title>__skb_datagram_iter (318,680,993 samples, 0.02%)</title><rect x="10.0" y="69" width="0.2" height="15.0" fill="rgb(244,179,42)" rx="2" ry="2" />
<text  x="13.01" y="79.5" ></text>
</g>
<g >
<title>tick_sched_handle (13,160,528,745 samples, 0.62%)</title><rect x="1012.5" y="165" width="7.3" height="15.0" fill="rgb(219,68,16)" rx="2" ry="2" />
<text  x="1015.47" y="175.5" ></text>
</g>
<g >
<title>x64_sys_call (489,376,876 samples, 0.02%)</title><rect x="10.0" y="197" width="0.3" height="15.0" fill="rgb(247,194,46)" rx="2" ry="2" />
<text  x="13.00" y="207.5" ></text>
</g>
<g >
<title>[unknown] (661,732,912 samples, 0.03%)</title><rect x="1040.3" y="261" width="0.3" height="15.0" fill="rgb(210,24,5)" rx="2" ry="2" />
<text  x="1043.26" y="271.5" ></text>
</g>
<g >
<title>all (2,118,679,976,962 samples, 100%)</title><rect x="10.0" y="309" width="1180.0" height="15.0" fill="rgb(213,39,9)" rx="2" ry="2" />
<text  x="13.00" y="319.5" ></text>
</g>
<g >
<title>serde_json::de::Deserializer&lt;R&gt;::parse_integer (1,300,748,694 samples, 0.06%)</title><rect x="1076.9" y="261" width="0.7" height="15.0" fill="rgb(228,107,25)" rx="2" ry="2" />
<text  x="1079.90" y="271.5" ></text>
</g>
<g >
<title>skb_copy_datagram_iter (318,680,993 samples, 0.02%)</title><rect x="10.0" y="85" width="0.2" height="15.0" fill="rgb(245,188,45)" rx="2" ry="2" />
<text  x="13.01" y="95.5" ></text>
</g>
<g >
<title>__sys_recvfrom (477,513,403 samples, 0.02%)</title><rect x="10.0" y="165" width="0.3" height="15.0" fill="rgb(247,197,47)" rx="2" ry="2" />
<text  x="13.01" y="175.5" ></text>
</g>
<g >
<title>tick_sched_handle (1,195,916,430 samples, 0.06%)</title><rect x="1185.8" y="165" width="0.6" height="15.0" fill="rgb(219,68,16)" rx="2" ry="2" />
<text  x="1188.78" y="175.5" ></text>
</g>
<g >
<title>hrtimer_interrupt (14,499,940,141 samples, 0.68%)</title><rect x="1012.1" y="213" width="8.1" height="15.0" fill="rgb(228,109,26)" rx="2" ry="2" />
<text  x="1015.09" y="223.5" ></text>
</g>
<g >
<title>irqentry_exit_to_user_mode (246,633,991 samples, 0.01%)</title><rect x="1020.3" y="213" width="0.2" height="15.0" fill="rgb(254,229,54)" rx="2" ry="2" />
<text  x="1023.33" y="223.5" ></text>
</g>
<g >
<title>asm_sysvec_apic_timer_interrupt (281,813,587 samples, 0.01%)</title><rect x="1064.7" y="245" width="0.1" height="15.0" fill="rgb(232,127,30)" rx="2" ry="2" />
<text  x="1067.66" y="255.5" ></text>
</g>
<g >
<title>down_read_trylock (598,826,211 samples, 0.03%)</title><rect x="1009.9" y="213" width="0.3" height="15.0" fill="rgb(219,66,15)" rx="2" ry="2" />
<text  x="1012.89" y="223.5" ></text>
</g>
<g >
<title>do_anonymous_page (275,939,097 samples, 0.01%)</title><rect x="1038.3" y="149" width="0.2" height="15.0" fill="rgb(238,155,37)" rx="2" ry="2" />
<text  x="1041.32" y="159.5" ></text>
</g>
<g >
<title>do_numa_page (775,399,322 samples, 0.04%)</title><rect x="1010.7" y="165" width="0.5" height="15.0" fill="rgb(208,14,3)" rx="2" ry="2" />
<text  x="1013.74" y="175.5" ></text>
</g>
<g >
<title>asm_exc_page_fault (455,030,304 samples, 0.02%)</title><rect x="1038.2" y="245" width="0.3" height="15.0" fill="rgb(225,93,22)" rx="2" ry="2" />
<text  x="1041.23" y="255.5" ></text>
</g>
<g >
<title>perf_adjust_freq_unthr_context (9,383,291,350 samples, 0.44%)</title><rect x="1013.2" y="101" width="5.2" height="15.0" fill="rgb(236,146,35)" rx="2" ry="2" />
<text  x="1016.20" y="111.5" ></text>
</g>
<g >
<title>do_user_addr_fault (331,134,265 samples, 0.02%)</title><rect x="1038.3" y="213" width="0.2" height="15.0" fill="rgb(228,108,25)" rx="2" ry="2" />
<text  x="1041.29" y="223.5" ></text>
</g>
<g >
<title>[unknown] (80,218,932,353 samples, 3.79%)</title><rect x="1033.0" y="277" width="44.6" height="15.0" fill="rgb(210,24,5)" rx="2" ry="2" />
<text  x="1035.96" y="287.5" >[unk..</text>
</g>
<g >
<title>core::slice::sort::shared::smallsort::small_sort_general_with_scratch (25,221,029,271 samples, 1.19%)</title><rect x="1079.3" y="277" width="14.1" height="15.0" fill="rgb(238,154,37)" rx="2" ry="2" />
<text  x="1082.30" y="287.5" ></text>
</g>
<g >
<title>core::slice::sort::stable::quicksort::quicksort (166,617,256,645 samples, 7.86%)</title><rect x="1093.7" y="277" width="92.8" height="15.0" fill="rgb(231,123,29)" rx="2" ry="2" />
<text  x="1096.66" y="287.5" >core::slice..</text>
</g>
<g >
<title>asm_sysvec_apic_timer_interrupt (422,723,342 samples, 0.02%)</title><rect x="1093.1" y="261" width="0.3" height="15.0" fill="rgb(232,127,30)" rx="2" ry="2" />
<text  x="1096.11" y="271.5" ></text>
</g>
<g >
<title>asm_sysvec_apic_timer_interrupt (6,373,437,408 samples, 0.30%)</title><rect x="1182.9" y="261" width="3.6" height="15.0" fill="rgb(232,127,30)" rx="2" ry="2" />
<text  x="1185.91" y="271.5" ></text>
</g>
<g >
<title>tick_sched_handle (246,527,358 samples, 0.01%)</title><rect x="1057.8" y="149" width="0.2" height="15.0" fill="rgb(219,68,16)" rx="2" ry="2" />
<text  x="1060.84" y="159.5" ></text>
</g>
<g >
<title>update_curr_se (213,001,201 samples, 0.01%)</title><rect x="1018.8" y="85" width="0.1" height="15.0" fill="rgb(218,64,15)" rx="2" ry="2" />
<text  x="1021.80" y="95.5" ></text>
</g>
<g >
<title>hrtimer_interrupt (1,301,589,306 samples, 0.06%)</title><rect x="1185.7" y="213" width="0.8" height="15.0" fill="rgb(228,109,26)" rx="2" ry="2" />
<text  x="1188.74" y="223.5" ></text>
</g>
<g >
<title>[libc.so.6] (20,396,674,890 samples, 0.96%)</title><rect x="1021.6" y="277" width="11.4" height="15.0" fill="rgb(223,84,20)" rx="2" ry="2" />
<text  x="1024.60" y="287.5" ></text>
</g>
<g >
<title>native_queued_spin_lock_slowpath (493,640,387 samples, 0.02%)</title><rect x="1010.8" y="133" width="0.3" height="15.0" fill="rgb(238,153,36)" rx="2" ry="2" />
<text  x="1013.78" y="143.5" ></text>
</g>
<g >
<title>__update_load_avg_cfs_rq (246,652,405 samples, 0.01%)</title><rect x="1019.2" y="85" width="0.1" height="15.0" fill="rgb(228,107,25)" rx="2" ry="2" />
<text  x="1022.16" y="95.5" ></text>
</g>
<g >
<title>exc_page_fault (331,134,265 samples, 0.02%)</title><rect x="1038.3" y="229" width="0.2" height="15.0" fill="rgb(212,35,8)" rx="2" ry="2" />
<text  x="1041.29" y="239.5" ></text>
</g>
<g >
<title>&lt;&amp;mio::net::tcp::stream::TcpStream as std::io::Read&gt;::read (516,373,079 samples, 0.02%)</title><rect x="10.0" y="277" width="0.3" height="15.0" fill="rgb(254,229,54)" rx="2" ry="2" />
<text  x="13.00" y="287.5" ></text>
</g>
<g >
<title>tokio-runtime-w (2,118,679,976,962 samples, 100.00%)</title><rect x="10.0" y="293" width="1180.0" height="15.0" fill="rgb(223,84,20)" rx="2" ry="2" />
<text  x="13.00" y="303.5" >tokio-runtime-w</text>
</g>
<g >
<title>entry_SYSCALL_64_after_hwframe (489,376,876 samples, 0.02%)</title><rect x="10.0" y="229" width="0.3" height="15.0" fill="rgb(218,63,15)" rx="2" ry="2" />
<text  x="13.00" y="239.5" ></text>
</g>
<g >
<title>&lt;serde_core::de::impls::&lt;impl serde_core::de::Deserialize for alloc::vec::Vec&lt;T&gt;&gt;::deserialize::VecVisitor&lt;T&gt; as serde_core::de::Visitor&gt;::visit_seq (280,062,874 samples, 0.01%)</title><rect x="1020.9" y="277" width="0.2" height="15.0" fill="rgb(214,45,10)" rx="2" ry="2" />
<text  x="1023.93" y="287.5" ></text>
</g>
<g >
<title>irqentry_exit (246,633,991 samples, 0.01%)</title><rect x="1020.3" y="229" width="0.2" height="15.0" fill="rgb(219,66,15)" rx="2" ry="2" />
<text  x="1023.33" y="239.5" ></text>
</g>
<g >
<title>&lt;serde_path_to_error::de::TrackedSeed&lt;X&gt; as serde_core::de::DeserializeSeed&gt;::deserialize (830,976,729 samples, 0.04%)</title><rect x="1021.1" y="277" width="0.5" height="15.0" fill="rgb(209,22,5)" rx="2" ry="2" />
<text  x="1024.13" y="287.5" ></text>
</g>
<g >
<title>&lt;serde_path_to_error::de::TrackedSeed&lt;X&gt; as serde_core::de::DeserializeSeed&gt;::deserialize (180,732,547 samples, 0.01%)</title><rect x="1040.4" y="245" width="0.1" height="15.0" fill="rgb(209,22,5)" rx="2" ry="2" />
<text  x="1043.45" y="255.5" ></text>
</g>
<g >
<title>sysvec_apic_timer_interrupt (15,241,433,368 samples, 0.72%)</title><rect x="1012.1" y="245" width="8.4" height="15.0" fill="rgb(220,69,16)" rx="2" ry="2" />
<text  x="1015.05" y="255.5" ></text>
</g>
<g >
<title>arch_scale_freq_tick (282,391,831 samples, 0.01%)</title><rect x="1013.0" y="117" width="0.2" height="15.0" fill="rgb(252,219,52)" rx="2" ry="2" />
<text  x="1016.03" y="127.5" ></text>
</g>
<g >
<title>[libc.so.6] (5,560,799,167 samples, 0.26%)</title><rect x="1037.2" y="261" width="3.1" height="15.0" fill="rgb(223,84,20)" rx="2" ry="2" />
<text  x="1040.16" y="271.5" ></text>
</g>
<g >
<title>core::slice::sort::shared::pivot::median3_rec (4,191,708,638 samples, 0.20%)</title><rect x="1041.5" y="261" width="2.4" height="15.0" fill="rgb(218,62,14)" rx="2" ry="2" />
<text  x="1044.52" y="271.5" ></text>
</g>
<g >
<title>handle_pte_fault (1,445,648,395 samples, 0.07%)</title><rect x="1010.4" y="181" width="0.8" height="15.0" fill="rgb(217,57,13)" rx="2" ry="2" />
<text  x="1013.36" y="191.5" ></text>
</g>
<g >
<title>&lt;&amp;std::os::unix::net::stream::UnixStream as std::io::Read&gt;::read (489,376,876 samples, 0.02%)</title><rect x="10.0" y="261" width="0.3" height="15.0" fill="rgb(241,169,40)" rx="2" ry="2" />
<text  x="13.00" y="271.5" ></text>
</g>
<g >
<title>tcp_recvmsg (442,271,829 samples, 0.02%)</title><rect x="10.0" y="117" width="0.3" height="15.0" fill="rgb(234,135,32)" rx="2" ry="2" />
<text  x="13.01" y="127.5" ></text>
</g>
<g >
<title>&lt;alloc::vec::Vec&lt;T&gt; as alloc::vec::spec_from_iter::SpecFromIter&lt;T,I&gt;&gt;::from_iter (1,814,546,477,182 samples, 85.65%)</title><rect x="10.3" y="277" width="1010.6" height="15.0" fill="rgb(229,112,26)" rx="2" ry="2" />
<text  x="13.30" y="287.5" >&lt;alloc::vec::Vec&lt;T&gt; as alloc::vec::spec_from_iter::SpecFromIter&lt;T,I&gt;&gt;::from_iter</text>
</g>
<g >
<title>scheduler_tick (211,301,373 samples, 0.01%)</title><rect x="1057.9" y="117" width="0.1" height="15.0" fill="rgb(246,190,45)" rx="2" ry="2" />
<text  x="1060.86" y="127.5" ></text>
</g>
<g >
<title>tick_nohz_highres_handler (13,513,213,619 samples, 0.64%)</title><rect x="1012.3" y="181" width="7.5" height="15.0" fill="rgb(215,50,11)" rx="2" ry="2" />
<text  x="1015.27" y="191.5" ></text>
</g>
<g >
<title>do_anonymous_page (212,123,446 samples, 0.01%)</title><rect x="1010.6" y="165" width="0.1" height="15.0" fill="rgb(238,155,37)" rx="2" ry="2" />
<text  x="1013.62" y="175.5" ></text>
</g>
<g >
<title>perf_event_task_tick (843,592,845 samples, 0.04%)</title><rect x="1185.8" y="117" width="0.5" height="15.0" fill="rgb(205,3,0)" rx="2" ry="2" />
<text  x="1188.83" y="127.5" ></text>
</g>
<g >
<title>core::slice::sort::stable::drift::sort (458,080,340 samples, 0.02%)</title><rect x="1093.4" y="277" width="0.2" height="15.0" fill="rgb(248,198,47)" rx="2" ry="2" />
<text  x="1096.35" y="287.5" ></text>
</g>
<g >
<title>tick_program_event (316,553,819 samples, 0.01%)</title><rect x="1020.0" y="197" width="0.2" height="15.0" fill="rgb(241,166,39)" rx="2" ry="2" />
<text  x="1022.99" y="207.5" ></text>
</g>
<g >
<title>asm_sysvec_apic_timer_interrupt (634,028,022 samples, 0.03%)</title><rect x="1057.6" y="245" width="0.4" height="15.0" fill="rgb(232,127,30)" rx="2" ry="2" />
<text  x="1060.62" y="255.5" ></text>
</g>
<g >
<title>update_curr (636,491,598 samples, 0.03%)</title><rect x="1018.6" y="101" width="0.3" height="15.0" fill="rgb(227,105,25)" rx="2" ry="2" />
<text  x="1021.57" y="111.5" ></text>
</g>
<g >
<title>__x64_sys_recvfrom (477,513,403 samples, 0.02%)</title><rect x="10.0" y="181" width="0.3" height="15.0" fill="rgb(224,88,21)" rx="2" ry="2" />
<text  x="13.01" y="191.5" ></text>
</g>
<g >
<title>hrtimer_interrupt (246,527,358 samples, 0.01%)</title><rect x="1057.8" y="197" width="0.2" height="15.0" fill="rgb(228,109,26)" rx="2" ry="2" />
<text  x="1060.84" y="207.5" ></text>
</g>
<g >
<title>core::slice::sort::stable::drift::sort (21,074,485,303 samples, 0.99%)</title><rect x="1064.8" y="261" width="11.8" height="15.0" fill="rgb(248,198,47)" rx="2" ry="2" />
<text  x="1067.82" y="271.5" ></text>
</g>
<g >
<title>inet_recvmsg (442,271,829 samples, 0.02%)</title><rect x="10.0" y="133" width="0.3" height="15.0" fill="rgb(206,5,1)" rx="2" ry="2" />
<text  x="13.01" y="143.5" ></text>
</g>
<g >
<title>core::slice::sort::shared::pivot::median3_rec (1,478,938,524 samples, 0.07%)</title><rect x="1078.5" y="277" width="0.8" height="15.0" fill="rgb(218,62,14)" rx="2" ry="2" />
<text  x="1081.48" y="287.5" ></text>
</g>
<g >
<title>perf_adjust_freq_unthr_context (843,592,845 samples, 0.04%)</title><rect x="1185.8" y="101" width="0.5" height="15.0" fill="rgb(236,146,35)" rx="2" ry="2" />
<text  x="1188.83" y="111.5" ></text>
</g>
<g >
<title>handle_pte_fault (290,309,846 samples, 0.01%)</title><rect x="1038.3" y="165" width="0.2" height="15.0" fill="rgb(217,57,13)" rx="2" ry="2" />
<text  x="1041.32" y="175.5" ></text>
</g>
<g >
<title>tick_nohz_highres_handler (1,231,135,358 samples, 0.06%)</title><rect x="1185.8" y="181" width="0.6" height="15.0" fill="rgb(215,50,11)" rx="2" ry="2" />
<text  x="1188.76" y="191.5" ></text>
</g>
<g >
<title>do_syscall_64 (489,376,876 samples, 0.02%)</title><rect x="10.0" y="213" width="0.3" height="15.0" fill="rgb(209,20,4)" rx="2" ry="2" />
<text  x="13.00" y="223.5" ></text>
</g>
<g >
<title>serde_json::de::Deserializer&lt;R&gt;::parse_decimal (243,553,871 samples, 0.01%)</title><rect x="1076.8" y="261" width="0.1" height="15.0" fill="rgb(228,108,25)" rx="2" ry="2" />
<text  x="1079.77" y="271.5" ></text>
</g>
<g >
<title>__hrtimer_run_queues (246,527,358 samples, 0.01%)</title><rect x="1057.8" y="181" width="0.2" height="15.0" fill="rgb(237,150,35)" rx="2" ry="2" />
<text  x="1060.84" y="191.5" ></text>
</g>
<g >
<title>hashbrown::map::HashMap&lt;K,V,S,A&gt;::insert (290,808,521 samples, 0.01%)</title><rect x="1076.6" y="261" width="0.1" height="15.0" fill="rgb(221,75,18)" rx="2" ry="2" />
<text  x="1079.56" y="271.5" ></text>
</g>
<g >
<title>__hrtimer_run_queues (13,654,137,282 samples, 0.64%)</title><rect x="1012.2" y="197" width="7.6" height="15.0" fill="rgb(237,150,35)" rx="2" ry="2" />
<text  x="1015.19" y="207.5" ></text>
</g>
<g >
<title>&lt;&amp;mut serde_json::de::Deserializer&lt;R&gt; as serde_core::de::Deserializer&gt;::deserialize_f32 (2,592,934,241 samples, 0.12%)</title><rect x="1033.0" y="261" width="1.4" height="15.0" fill="rgb(241,169,40)" rx="2" ry="2" />
<text  x="1035.96" y="271.5" ></text>
</g>
<g >
<title>handle_mm_fault (304,018,168 samples, 0.01%)</title><rect x="1038.3" y="197" width="0.2" height="15.0" fill="rgb(234,135,32)" rx="2" ry="2" />
<text  x="1041.31" y="207.5" ></text>
</g>
<g >
<title>perf_event_task_tick (9,383,291,350 samples, 0.44%)</title><rect x="1013.2" y="117" width="5.2" height="15.0" fill="rgb(205,3,0)" rx="2" ry="2" />
<text  x="1016.20" y="127.5" ></text>
</g>
<g >
<title>__sysvec_apic_timer_interrupt (1,407,191,589 samples, 0.07%)</title><rect x="1185.7" y="229" width="0.8" height="15.0" fill="rgb(242,173,41)" rx="2" ry="2" />
<text  x="1188.68" y="239.5" ></text>
</g>
<g >
<title>&lt;serde_json::de::SeqAccess&lt;R&gt; as serde_core::de::SeqAccess&gt;::next_element_seed (2,087,168,159 samples, 0.10%)</title><rect x="1034.8" y="261" width="1.1" height="15.0" fill="rgb(253,222,53)" rx="2" ry="2" />
<text  x="1037.78" y="271.5" ></text>
</g>
<g >
<title>lock_vma_under_rcu (246,641,851 samples, 0.01%)</title><rect x="1011.2" y="213" width="0.2" height="15.0" fill="rgb(251,211,50)" rx="2" ry="2" />
<text  x="1014.23" y="223.5" ></text>
</g>
<g >
<title>scheduler_tick (12,366,651,591 samples, 0.58%)</title><rect x="1012.9" y="133" width="6.9" height="15.0" fill="rgb(246,190,45)" rx="2" ry="2" />
<text  x="1015.91" y="143.5" ></text>
</g>
<g >
<title>_ZN5alloc7raw_vec11finish_grow17hbd73bd63ab428510E.llvm.16204179389407672222 (1,289,124,060 samples, 0.06%)</title><rect x="1077.6" y="277" width="0.8" height="15.0" fill="rgb(216,52,12)" rx="2" ry="2" />
<text  x="1080.65" y="287.5" ></text>
</g>
<g >
<title>asm_sysvec_apic_timer_interrupt (16,016,629,416 samples, 0.76%)</title><rect x="1011.6" y="261" width="8.9" height="15.0" fill="rgb(232,127,30)" rx="2" ry="2" />
<text  x="1014.62" y="271.5" ></text>
</g>
<g >
<title>handle_mm_fault (1,797,978,395 samples, 0.08%)</title><rect x="1010.2" y="213" width="1.0" height="15.0" fill="rgb(234,135,32)" rx="2" ry="2" />
<text  x="1013.23" y="223.5" ></text>
</g>
<g >
<title>&lt;serde_core::de::impls::&lt;impl serde_core::de::Deserialize for alloc::vec::Vec&lt;T&gt;&gt;::deserialize::VecVisitor&lt;T&gt; as serde_core::de::Visitor&gt;::visit_seq (635,621,731 samples, 0.03%)</title><rect x="1034.4" y="261" width="0.4" height="15.0" fill="rgb(214,45,10)" rx="2" ry="2" />
<text  x="1037.43" y="271.5" ></text>
</g>
<g >
<title>&lt;serde_path_to_error::de::TrackedSeed&lt;X&gt; as serde_core::de::DeserializeSeed&gt;::deserialize (2,139,427,958 samples, 0.10%)</title><rect x="1036.0" y="261" width="1.2" height="15.0" fill="rgb(209,22,5)" rx="2" ry="2" />
<text  x="1038.97" y="271.5" ></text>
</g>
<g >
<title>_raw_spin_lock (317,207,932 samples, 0.01%)</title><rect x="1010.4" y="165" width="0.2" height="15.0" fill="rgb(239,160,38)" rx="2" ry="2" />
<text  x="1013.44" y="175.5" ></text>
</g>
<g >
<title>ktime_get (282,211,896 samples, 0.01%)</title><rect x="1012.3" y="165" width="0.1" height="15.0" fill="rgb(207,10,2)" rx="2" ry="2" />
<text  x="1015.27" y="175.5" ></text>
</g>
<g >
<title>task_tick_fair (1,833,763,984 samples, 0.09%)</title><rect x="1018.4" y="117" width="1.1" height="15.0" fill="rgb(217,57,13)" rx="2" ry="2" />
<text  x="1021.43" y="127.5" ></text>
</g>
<g >
<title>asm_sysvec_apic_timer_interrupt (352,278,247 samples, 0.02%)</title><rect x="1032.8" y="261" width="0.2" height="15.0" fill="rgb(232,127,30)" rx="2" ry="2" />
<text  x="1035.76" y="271.5" ></text>
</g>
<g >
<title>core::slice::sort::shared::smallsort::sort8_stable (5,566,614,429 samples, 0.26%)</title><rect x="1061.7" y="261" width="3.1" height="15.0" fill="rgb(250,210,50)" rx="2" ry="2" />
<text  x="1064.72" y="271.5" ></text>
</g>
<g >
<title>scheduler_tick (1,090,217,227 samples, 0.05%)</title><rect x="1185.8" y="133" width="0.6" height="15.0" fill="rgb(246,190,45)" rx="2" ry="2" />
<text  x="1188.83" y="143.5" ></text>
</g>
<g >
<title>__sysvec_apic_timer_interrupt (246,527,358 samples, 0.01%)</title><rect x="1057.8" y="213" width="0.2" height="15.0" fill="rgb(242,173,41)" rx="2" ry="2" />
<text  x="1060.84" y="223.5" ></text>
</g>
<g >
<title>__handle_mm_fault (304,018,168 samples, 0.01%)</title><rect x="1038.3" y="181" width="0.2" height="15.0" fill="rgb(207,9,2)" rx="2" ry="2" />
<text  x="1041.31" y="191.5" ></text>
</g>
<g >
<title>[libc.so.6] (528,116,085 samples, 0.02%)</title><rect x="1078.0" y="229" width="0.3" height="15.0" fill="rgb(223,84,20)" rx="2" ry="2" />
<text  x="1081.04" y="239.5" ></text>
</g>
<g >
<title>ktime_get_update_offsets_now (246,651,730 samples, 0.01%)</title><rect x="1019.8" y="197" width="0.2" height="15.0" fill="rgb(243,178,42)" rx="2" ry="2" />
<text  x="1022.82" y="207.5" ></text>
</g>
<g >
<title>__handle_mm_fault (1,657,048,865 samples, 0.08%)</title><rect x="1010.2" y="197" width="1.0" height="15.0" fill="rgb(207,9,2)" rx="2" ry="2" />
<text  x="1013.25" y="207.5" ></text>
</g>
<g >
<title>tcp_recvmsg_locked (442,271,829 samples, 0.02%)</title><rect x="10.0" y="101" width="0.3" height="15.0" fill="rgb(226,100,24)" rx="2" ry="2" />
<text  x="13.01" y="111.5" ></text>
</g>
<g >
<title>sync_regs (597,645,107 samples, 0.03%)</title><rect x="1020.6" y="261" width="0.3" height="15.0" fill="rgb(228,106,25)" rx="2" ry="2" />
<text  x="1023.58" y="271.5" ></text>
</g>
<g >
<title>[libc.so.6] (862,971,985 samples, 0.04%)</title><rect x="1077.9" y="245" width="0.5" height="15.0" fill="rgb(223,84,20)" rx="2" ry="2" />
<text  x="1080.89" y="255.5" ></text>
</g>
<g >
<title>task_tick_fair (211,397,317 samples, 0.01%)</title><rect x="1186.3" y="117" width="0.1" height="15.0" fill="rgb(217,57,13)" rx="2" ry="2" />
<text  x="1189.30" y="127.5" ></text>
</g>
<g >
<title>serde_json::de::Deserializer&lt;R&gt;::parse_integer (1,227,323,738 samples, 0.06%)</title><rect x="1189.3" y="277" width="0.7" height="15.0" fill="rgb(228,107,25)" rx="2" ry="2" />
<text  x="1192.28" y="287.5" ></text>
</g>
<g >
<title>account_process_tick (458,634,646 samples, 0.02%)</title><rect x="1012.6" y="133" width="0.2" height="15.0" fill="rgb(234,136,32)" rx="2" ry="2" />
<text  x="1015.56" y="143.5" ></text>
</g>
<g >
<title>core::slice::sort::shared::smallsort::sort4_stable (6,728,128,561 samples, 0.32%)</title><rect x="1058.0" y="261" width="3.7" height="15.0" fill="rgb(226,99,23)" rx="2" ry="2" />
<text  x="1060.97" y="271.5" ></text>
</g>
<g >
<title>exc_page_fault (3,340,223,143 samples, 0.16%)</title><rect x="1009.8" y="245" width="1.8" height="15.0" fill="rgb(212,35,8)" rx="2" ry="2" />
<text  x="1012.76" y="255.5" ></text>
</g>
<g >
<title>tick_nohz_highres_handler (246,527,358 samples, 0.01%)</title><rect x="1057.8" y="165" width="0.2" height="15.0" fill="rgb(215,50,11)" rx="2" ry="2" />
<text  x="1060.84" y="175.5" ></text>
</g>
<g >
<title>recv (489,376,876 samples, 0.02%)</title><rect x="10.0" y="245" width="0.3" height="15.0" fill="rgb(222,82,19)" rx="2" ry="2" />
<text  x="13.00" y="255.5" ></text>
</g>
<g >
<title>sock_recvmsg (477,513,403 samples, 0.02%)</title><rect x="10.0" y="149" width="0.3" height="15.0" fill="rgb(206,5,1)" rx="2" ry="2" />
<text  x="13.01" y="159.5" ></text>
</g>
<g >
<title>clockevents_program_event (210,847,248 samples, 0.01%)</title><rect x="1020.0" y="181" width="0.1" height="15.0" fill="rgb(244,182,43)" rx="2" ry="2" />
<text  x="1023.03" y="191.5" ></text>
</g>
</g>
</svg>
