<?xml version="1.0" standalone="no"?>
<!DOCTYPE svg PUBLIC "-//W3C//DTD SVG 1.1//EN" "http://www.w3.org/Graphics/SVG/1.1/DTD/svg11.dtd">
<svg version="1.1" width="1200" height="390" onload="init(evt)" viewBox="0 0 1200 390" xmlns="http://www.w3.org/2000/svg" xmlns:xlink="http://www.w3.org/1999/xlink">
<!-- Flame graph stack visualization. See https://github.com/brendangregg/FlameGraph for latest version, and http://www.brendangregg.com/flamegraphs.html for examples. -->
<!-- NOTES:  -->
<defs>
	<linearGradient id="background" y1="0" y2="1" x1="0" x2="0" >
		<stop stop-color="#eeeeee" offset="5%" />
		<stop stop-color="#eeeeb0" offset="95%" />
	</linearGradient>
</defs>
<style type="text/css">
	text { font-family:Verdana; font-size:12px; fill:rgb(0,0,0); }
	#search, #ignorecase { opacity:0.1; cursor:pointer; }
	#search:hover, #search.show, #ignorecase:hover, #ignorecase.show { opacity:1; }
	#subtitle { text-anchor:middle; font-color:rgb(160,160,160); }
	#title { text-anchor:middle; font-size:17px}
	#unzoom { cursor:pointer; }
	#frames > *:hover { stroke:black; stroke-width:0.5; cursor:pointer; }
	.hide { display:none; }
	.parent { opacity:0.5; }
</style>
<script type="text/ecmascript">
<![CDATA[
	"use strict";
	var details, searchbtn, unzoombtn, matchedtxt, svg, searching, currentSearchTerm, ignorecase, ignorecaseBtn;
	function init(evt) {
		details = document.getElementById("details").firstChild;
		searchbtn = document.getElementById("search");
		ignorecaseBtn = document.getElementById("ignorecase");
		unzoombtn = document.getElementById("unzoom");
		matchedtxt = document.getElementById("matched");
		svg = document.getElementsByTagName("svg")[0];
		searching = 0;
		currentSearchTerm = null;

		// use GET parameters to restore a flamegraphs state.
		var params = get_params();
		if (params.x && params.y)
			zoom(find_group(document.querySelector('[x="' + params.x + '"][y="' + params.y + '"]')));
                if (params.s) search(params.s);
	}

	// event listeners
	window.addEventListener("click", function(e) {
		var target = find_group(e.target);
		if (target) {
			if (target.nodeName == "a") {
				if (e.ctrlKey === false) return;
				e.preventDefault();
			}
			if (target.classList.contains("parent")) unzoom(true);
			zoom(target);
			if (!document.querySelector('.parent')) {
				// we have basically done a clearzoom so clear the url
				var params = get_params();
				if (params.x) delete params.x;
				if (params.y) delete params.y;
				history.replaceState(null, null, parse_params(params));
				unzoombtn.classList.add("hide");
				return;
			}

			// set parameters for zoom state
			var el = target.querySelector("rect");
			if (el && el.attributes && el.attributes.y && el.attributes._orig_x) {
				var params = get_params()
				params.x = el.attributes._orig_x.value;
				params.y = el.attributes.y.value;
				history.replaceState(null, null, parse_params(params));
			}
		}
		else if (e.target.id == "unzoom") clearzoom();
		else if (e.target.id == "search") search_prompt();
		else if (e.target.id == "ignorecase") toggle_ignorecase();
	}, false)

	// mouse-over for info
	// show
	window.addEventListener("mouseover", function(e) {
		var target = find_group(e.target);
		if (target) details.nodeValue = "Function: " + g_to_text(target);
	}, false)

	// clear
	window.addEventListener("mouseout", function(e) {
		var target = find_group(e.target);
		if (target) details.nodeValue = ' ';
	}, false)

	// ctrl-F for search
	// ctrl-I to toggle case-sensitive search
	window.addEventListener("keydown",function (e) {
		if (e.keyCode === 114 || (e.ctrlKey && e.keyCode === 70)) {
			e.preventDefault();
			search_prompt();
		}
		else if (e.ctrlKey && e.keyCode === 73) {
			e.preventDefault();
			toggle_ignorecase();
		}
	}, false)

	// functions
	function get_params() {
		var params = {};
		var paramsarr = window.location.search.substr(1).split('&');
		for (var i = 0; i < paramsarr.length; ++i) {
			var tmp = paramsarr[i].split("=");
			if (!tmp[0] || !tmp[1]) continue;
			params[tmp[0]]  = decodeURIComponent(tmp[1]);
		}
		return params;
	}
	function parse_params(params) {
		var uri = "?";
		for (var key in params) {
			uri += key + '=' + encodeURIComponent(params[key]) + '&';
		}
		if (uri.slice(-1) == "&")
			uri = uri.substring(0, uri.length - 1);
		if (uri == '?')
			uri = window.location.href.split('?')[0];
		return uri;
	}
	function find_child(node, selector) {
		var children = node.querySelectorAll(selector);
		if (children.length) return children[0];
	}
	function find_group(node) {
		var parent = node.parentElement;
		if (!parent) return;
		if (parent.id == "frames") return node;
		return find_group(parent);
	}
	function orig_save(e, attr, val) {
		if (e.attributes["_orig_" + attr] != undefined) return;
		if (e.attributes[attr] == undefined) return;
		if (val == undefined) val = e.attributes[attr].value;
		e.setAttribute("_orig_" + attr, val);
	}
	function orig_load(e, attr) {
		if (e.attributes["_orig_"+attr] == undefined) return;
		e.attributes[attr].value = e.attributes["_orig_" + attr].value;
		e.removeAttribute("_orig_"+attr);
	}
	function g_to_text(e) {
		var text = find_child(e, "title").firstChild.nodeValue;
		return (text)
	}
	function g_to_func(e) {
		var func = g_to_text(e);
		// if there's any manipulation we want to do to the function
		// name before it's searched, do it here before returning.
		return (func);
	}
	function update_text(e) {
		var r = find_child(e, "rect");
		var t = find_child(e, "text");
		var w = parseFloat(r.attributes.width.value) -3;
		var txt = find_child(e, "title").textContent.replace(/\([^(]*\)$/,"");
		t.attributes.x.value = parseFloat(r.attributes.x.value) + 3;

		// Smaller than this size won't fit anything
		if (w < 2 * 12 * 0.59) {
			t.textContent = "";
			return;
		}

		t.textContent = txt;
		var sl = t.getSubStringLength(0, txt.length);
		// check if only whitespace or if we can fit the entire string into width w
		if (/^ *$/.test(txt) || sl < w)
			return;

		// this isn't perfect, but gives a good starting point
		// and avoids calling getSubStringLength too often
		var start = Math.floor((w/sl) * txt.length);
		for (var x = start; x > 0; x = x-2) {
			if (t.getSubStringLength(0, x + 2) <= w) {
				t.textContent = txt.substring(0, x) + "..";
				return;
			}
		}
		t.textContent = "";
	}

	// zoom
	function zoom_reset(e) {
		if (e.attributes != undefined) {
			orig_load(e, "x");
			orig_load(e, "width");
		}
		if (e.childNodes == undefined) return;
		for (var i = 0, c = e.childNodes; i < c.length; i++) {
			zoom_reset(c[i]);
		}
	}
	function zoom_child(e, x, ratio) {
		if (e.attributes != undefined) {
			if (e.attributes.x != undefined) {
				orig_save(e, "x");
				e.attributes.x.value = (parseFloat(e.attributes.x.value) - x - 10) * ratio + 10;
				if (e.tagName == "text")
					e.attributes.x.value = find_child(e.parentNode, "rect[x]").attributes.x.value + 3;
			}
			if (e.attributes.width != undefined) {
				orig_save(e, "width");
				e.attributes.width.value = parseFloat(e.attributes.width.value) * ratio;
			}
		}

		if (e.childNodes == undefined) return;
		for (var i = 0, c = e.childNodes; i < c.length; i++) {
			zoom_child(c[i], x - 10, ratio);
		}
	}
	function zoom_parent(e) {
		if (e.attributes) {
			if (e.attributes.x != undefined) {
				orig_save(e, "x");
				e.attributes.x.value = 10;
			}
			if (e.attributes.width != undefined) {
				orig_save(e, "width");
				e.attributes.width.value = parseInt(svg.width.baseVal.value) - (10 * 2);
			}
		}
		if (e.childNodes == undefined) return;
		for (var i = 0, c = e.childNodes; i < c.length; i++) {
			zoom_parent(c[i]);
		}
	}
	function zoom(node) {
		var attr = find_child(node, "rect").attributes;
		var width = parseFloat(attr.width.value);
		var xmin = parseFloat(attr.x.value);
		var xmax = parseFloat(xmin + width);
		var ymin = parseFloat(attr.y.value);
		var ratio = (svg.width.baseVal.value - 2 * 10) / width;

		// XXX: Workaround for JavaScript float issues (fix me)
		var fudge = 0.0001;

		unzoombtn.classList.remove("hide");

		var el = document.getElementById("frames").children;
		for (var i = 0; i < el.length; i++) {
			var e = el[i];
			var a = find_child(e, "rect").attributes;
			var ex = parseFloat(a.x.value);
			var ew = parseFloat(a.width.value);
			var upstack;
			// Is it an ancestor
			if (0 == 0) {
				upstack = parseFloat(a.y.value) > ymin;
			} else {
				upstack = parseFloat(a.y.value) < ymin;
			}
			if (upstack) {
				// Direct ancestor
				if (ex <= xmin && (ex+ew+fudge) >= xmax) {
					e.classList.add("parent");
					zoom_parent(e);
					update_text(e);
				}
				// not in current path
				else
					e.classList.add("hide");
			}
			// Children maybe
			else {
				// no common path
				if (ex < xmin || ex + fudge >= xmax) {
					e.classList.add("hide");
				}
				else {
					zoom_child(e, xmin, ratio);
					update_text(e);
				}
			}
		}
		search();
	}
	function unzoom(dont_update_text) {
		unzoombtn.classList.add("hide");
		var el = document.getElementById("frames").children;
		for(var i = 0; i < el.length; i++) {
			el[i].classList.remove("parent");
			el[i].classList.remove("hide");
			zoom_reset(el[i]);
			if(!dont_update_text) update_text(el[i]);
		}
		search();
	}
	function clearzoom() {
		unzoom();

		// remove zoom state
		var params = get_params();
		if (params.x) delete params.x;
		if (params.y) delete params.y;
		history.replaceState(null, null, parse_params(params));
	}

	// search
	function toggle_ignorecase() {
		ignorecase = !ignorecase;
		if (ignorecase) {
			ignorecaseBtn.classList.add("show");
		} else {
			ignorecaseBtn.classList.remove("show");
		}
		reset_search();
		search();
	}
	function reset_search() {
		var el = document.querySelectorAll("#frames rect");
		for (var i = 0; i < el.length; i++) {
			orig_load(el[i], "fill")
		}
		var params = get_params();
		delete params.s;
		history.replaceState(null, null, parse_params(params));
	}
	function search_prompt() {
		if (!searching) {
			var term = prompt("Enter a search term (regexp " +
			    "allowed, eg: ^ext4_)"
			    + (ignorecase ? ", ignoring case" : "")
			    + "\nPress Ctrl-i to toggle case sensitivity", "");
			if (term != null) search(term);
		} else {
			reset_search();
			searching = 0;
			currentSearchTerm = null;
			searchbtn.classList.remove("show");
			searchbtn.firstChild.nodeValue = "Search"
			matchedtxt.classList.add("hide");
			matchedtxt.firstChild.nodeValue = ""
		}
	}
	function search(term) {
		if (term) currentSearchTerm = term;
		if (currentSearchTerm === null) return;

		var re = new RegExp(currentSearchTerm, ignorecase ? 'i' : '');
		var el = document.getElementById("frames").children;
		var matches = new Object();
		var maxwidth = 0;
		for (var i = 0; i < el.length; i++) {
			var e = el[i];
			var func = g_to_func(e);
			var rect = find_child(e, "rect");
			if (func == null || rect == null)
				continue;

			// Save max width. Only works as we have a root frame
			var w = parseFloat(rect.attributes.width.value);
			if (w > maxwidth)
				maxwidth = w;

			if (func.match(re)) {
				// highlight
				var x = parseFloat(rect.attributes.x.value);
				orig_save(rect, "fill");
				rect.attributes.fill.value = "rgb(230,0,230)";

				// remember matches
				if (matches[x] == undefined) {
					matches[x] = w;
				} else {
					if (w > matches[x]) {
						// overwrite with parent
						matches[x] = w;
					}
				}
				searching = 1;
			}
		}
		if (!searching)
			return;
		var params = get_params();
		params.s = currentSearchTerm;
		history.replaceState(null, null, parse_params(params));

		searchbtn.classList.add("show");
		searchbtn.firstChild.nodeValue = "Reset Search";

		// calculate percent matched, excluding vertical overlap
		var count = 0;
		var lastx = -1;
		var lastw = 0;
		var keys = Array();
		for (k in matches) {
			if (matches.hasOwnProperty(k))
				keys.push(k);
		}
		// sort the matched frames by their x location
		// ascending, then width descending
		keys.sort(function(a, b){
			return a - b;
		});
		// Step through frames saving only the biggest bottom-up frames
		// thanks to the sort order. This relies on the tree property
		// where children are always smaller than their parents.
		var fudge = 0.0001;	// JavaScript floating point
		for (var k in keys) {
			var x = parseFloat(keys[k]);
			var w = matches[keys[k]];
			if (x >= lastx + lastw - fudge) {
				count += w;
				lastx = x;
				lastw = w;
			}
		}
		// display matched percent
		matchedtxt.classList.remove("hide");
		var pct = 100 * count / maxwidth;
		if (pct != 100) pct = pct.toFixed(1)
		matchedtxt.firstChild.nodeValue = "Matched: " + pct + "%";
	}
]]>
</script>
<rect x="0.0" y="0" width="1200.0" height="390.0" fill="url(#background)"  />
<text id="title" x="600.00" y="24" >Flame Graph</text>
<text id="details" x="10.00" y="373" > </text>
<text id="unzoom" x="10.00" y="24" class="hide">Reset Zoom</text>
<text id="search" x="1090.00" y="24" >Search</text>
<text id="ignorecase" x="1174.00" y="24" >ic</text>
<text id="matched" x="1090.00" y="373" > </text>
<g id="frames">
<g >
<title>x86_pmu_enable (253,670,691 samples, 0.01%)</title><rect x="1030.0" y="117" width="0.2" height="15.0" fill="rgb(244,179,43)" rx="2" ry="2" />
<text  x="1033.02" y="127.5" ></text>
</g>
<g >
<title>handle_mm_fault (231,867,175 samples, 0.01%)</title><rect x="1049.1" y="229" width="0.1" height="15.0" fill="rgb(234,135,32)" rx="2" ry="2" />
<text  x="1052.12" y="239.5" ></text>
</g>
<g >
<title>mem_cgroup_commit_charge (707,712,062 samples, 0.03%)</title><rect x="1181.8" y="165" width="0.4" height="15.0" fill="rgb(239,158,37)" rx="2" ry="2" />
<text  x="1184.79" y="175.5" ></text>
</g>
<g >
<title>[libc.so.6] (3,859,119,214 samples, 0.18%)</title><rect x="1048.1" y="293" width="2.1" height="15.0" fill="rgb(223,84,20)" rx="2" ry="2" />
<text  x="1051.06" y="303.5" ></text>
</g>
<g >
<title>&lt;&amp;mut serde_json::de::Deserializer&lt;R&gt; as serde_core::de::Deserializer&gt;::deserialize_f32 (2,336,623,961 samples, 0.11%)</title><rect x="1043.8" y="293" width="1.3" height="15.0" fill="rgb(241,169,40)" rx="2" ry="2" />
<text  x="1046.79" y="303.5" ></text>
</g>
<g >
<title>__hrtimer_run_queues (1,109,815,695 samples, 0.05%)</title><rect x="1185.7" y="229" width="0.6" height="15.0" fill="rgb(237,150,35)" rx="2" ry="2" />
<text  x="1188.70" y="239.5" ></text>
</g>
<g >
<title>update_curr (483,095,518 samples, 0.02%)</title><rect x="1030.4" y="133" width="0.3" height="15.0" fill="rgb(227,105,25)" rx="2" ry="2" />
<text  x="1033.45" y="143.5" ></text>
</g>
<g >
<title>core::slice::sort::shared::pivot::median3_rec (4,096,766,106 samples, 0.19%)</title><rect x="1051.5" y="293" width="2.2" height="15.0" fill="rgb(218,62,14)" rx="2" ry="2" />
<text  x="1054.51" y="303.5" ></text>
</g>
<g >
<title>asm_sysvec_apic_timer_interrupt (1,659,418,199 samples, 0.08%)</title><rect x="1049.2" y="277" width="0.9" height="15.0" fill="rgb(232,127,30)" rx="2" ry="2" />
<text  x="1052.24" y="287.5" ></text>
</g>
<g >
<title>&lt;serde_path_to_error::de::TrackedSeed&lt;X&gt; as serde_core::de::DeserializeSeed&gt;::deserialize (294,586,601 samples, 0.01%)</title><rect x="1050.3" y="277" width="0.2" height="15.0" fill="rgb(209,22,5)" rx="2" ry="2" />
<text  x="1053.35" y="287.5" ></text>
</g>
<g >
<title>core::slice::sort::shared::pivot::median3_rec (957,774,705 samples, 0.04%)</title><rect x="1088.5" y="309" width="0.6" height="15.0" fill="rgb(218,62,14)" rx="2" ry="2" />
<text  x="1091.54" y="319.5" ></text>
</g>
<g >
<title>asm_exc_page_fault (408,005,011 samples, 0.02%)</title><rect x="1049.0" y="277" width="0.2" height="15.0" fill="rgb(225,93,22)" rx="2" ry="2" />
<text  x="1052.02" y="287.5" ></text>
</g>
<g >
<title>__x64_sys_recvfrom (447,223,633 samples, 0.02%)</title><rect x="10.0" y="213" width="0.2" height="15.0" fill="rgb(224,88,21)" rx="2" ry="2" />
<text  x="13.01" y="223.5" ></text>
</g>
<g >
<title>tick_do_update_jiffies64 (294,028,876 samples, 0.01%)</title><rect x="1024.4" y="181" width="0.1" height="15.0" fill="rgb(208,14,3)" rx="2" ry="2" />
<text  x="1027.38" y="191.5" ></text>
</g>
<g >
<title>sync_regs (320,589,931 samples, 0.01%)</title><rect x="1032.4" y="293" width="0.2" height="15.0" fill="rgb(228,106,25)" rx="2" ry="2" />
<text  x="1035.39" y="303.5" ></text>
</g>
<g >
<title>zap_pmd_range.isra.0 (673,546,593 samples, 0.03%)</title><rect x="1189.6" y="69" width="0.4" height="15.0" fill="rgb(244,180,43)" rx="2" ry="2" />
<text  x="1192.64" y="79.5" ></text>
</g>
<g >
<title>unmap_vmas (673,546,593 samples, 0.03%)</title><rect x="1189.6" y="117" width="0.4" height="15.0" fill="rgb(243,176,42)" rx="2" ry="2" />
<text  x="1192.64" y="127.5" ></text>
</g>
<g >
<title>asm_sysvec_apic_timer_interrupt (493,506,738 samples, 0.02%)</title><rect x="1067.9" y="277" width="0.3" height="15.0" fill="rgb(232,127,30)" rx="2" ry="2" />
<text  x="1070.92" y="287.5" ></text>
</g>
<g >
<title>sysvec_apic_timer_interrupt (1,251,853,888 samples, 0.06%)</title><rect x="1185.7" y="277" width="0.6" height="15.0" fill="rgb(220,69,16)" rx="2" ry="2" />
<text  x="1188.66" y="287.5" ></text>
</g>
<g >
<title>asm_exc_page_fault (643,011,179 samples, 0.03%)</title><rect x="1023.4" y="293" width="0.4" height="15.0" fill="rgb(225,93,22)" rx="2" ry="2" />
<text  x="1026.42" y="303.5" ></text>
</g>
<g >
<title>&lt;serde_core::de::impls::&lt;impl serde_core::de::Deserialize for alloc::vec::Vec&lt;T&gt;&gt;::deserialize::VecVisitor&lt;T&gt; as serde_core::de::Visitor&gt;::visit_seq (236,551,241 samples, 0.01%)</title><rect x="1032.6" y="309" width="0.1" height="15.0" fill="rgb(214,45,10)" rx="2" ry="2" />
<text  x="1035.56" y="319.5" ></text>
</g>
<g >
<title>update_process_times (12,984,728,967 samples, 0.60%)</title><rect x="1024.5" y="181" width="7.1" height="15.0" fill="rgb(250,209,50)" rx="2" ry="2" />
<text  x="1027.54" y="191.5" ></text>
</g>
<g >
<title>skb_copy_datagram_iter (341,921,129 samples, 0.02%)</title><rect x="10.0" y="117" width="0.2" height="15.0" fill="rgb(245,188,45)" rx="2" ry="2" />
<text  x="13.03" y="127.5" ></text>
</g>
<g >
<title>tokio-runtime-w (2,178,461,482,588 samples, 100.00%)</title><rect x="10.0" y="325" width="1180.0" height="15.0" fill="rgb(223,84,20)" rx="2" ry="2" />
<text  x="13.00" y="335.5" >tokio-runtime-w</text>
</g>
<g >
<title>&lt;alloc::vec::Vec&lt;T&gt; as alloc::vec::spec_from_iter::SpecFromIter&lt;T,I&gt;&gt;::from_iter (1,887,342,656,912 samples, 86.64%)</title><rect x="10.2" y="309" width="1022.4" height="15.0" fill="rgb(229,112,26)" rx="2" ry="2" />
<text  x="13.25" y="319.5" >&lt;alloc::vec::Vec&lt;T&gt; as alloc::vec::spec_from_iter::SpecFromIter&lt;T,I&gt;&gt;::from_iter</text>
</g>
<g >
<title>kick_ilb (213,318,769 samples, 0.01%)</title><rect x="1031.2" y="117" width="0.1" height="15.0" fill="rgb(240,163,39)" rx="2" ry="2" />
<text  x="1034.17" y="127.5" ></text>
</g>
<g >
<title>__irq_exit_rcu (214,870,901 samples, 0.01%)</title><rect x="1032.0" y="245" width="0.1" height="15.0" fill="rgb(227,101,24)" rx="2" ry="2" />
<text  x="1034.96" y="255.5" ></text>
</g>
<g >
<title>do_user_addr_fault (4,811,624,802 samples, 0.22%)</title><rect x="1181.2" y="261" width="2.6" height="15.0" fill="rgb(228,108,25)" rx="2" ry="2" />
<text  x="1184.17" y="271.5" ></text>
</g>
<g >
<title>__munmap (1,266,963,850 samples, 0.06%)</title><rect x="1189.3" y="261" width="0.7" height="15.0" fill="rgb(211,29,7)" rx="2" ry="2" />
<text  x="1192.31" y="271.5" ></text>
</g>
<g >
<title>serde_json::de::Deserializer&lt;R&gt;::parse_decimal (230,054,727 samples, 0.01%)</title><rect x="1086.9" y="293" width="0.1" height="15.0" fill="rgb(228,108,25)" rx="2" ry="2" />
<text  x="1089.91" y="303.5" ></text>
</g>
<g >
<title>account_process_tick (504,413,651 samples, 0.02%)</title><rect x="1024.6" y="165" width="0.3" height="15.0" fill="rgb(234,136,32)" rx="2" ry="2" />
<text  x="1027.58" y="175.5" ></text>
</g>
<g >
<title>tick_nohz_highres_handler (1,074,597,085 samples, 0.05%)</title><rect x="1185.7" y="213" width="0.6" height="15.0" fill="rgb(215,50,11)" rx="2" ry="2" />
<text  x="1188.72" y="223.5" ></text>
</g>
<g >
<title>sock_recvmsg (447,223,633 samples, 0.02%)</title><rect x="10.0" y="181" width="0.2" height="15.0" fill="rgb(206,5,1)" rx="2" ry="2" />
<text  x="13.01" y="191.5" ></text>
</g>
<g >
<title>asm_sysvec_apic_timer_interrupt (15,729,293,196 samples, 0.72%)</title><rect x="1023.8" y="293" width="8.5" height="15.0" fill="rgb(232,127,30)" rx="2" ry="2" />
<text  x="1026.77" y="303.5" ></text>
</g>
<g >
<title>rep_movs_alternative (273,495,228 samples, 0.01%)</title><rect x="10.1" y="69" width="0.1" height="15.0" fill="rgb(205,1,0)" rx="2" ry="2" />
<text  x="13.06" y="79.5" ></text>
</g>
<g >
<title>handle_mm_fault (422,534,884 samples, 0.02%)</title><rect x="1023.5" y="245" width="0.2" height="15.0" fill="rgb(234,135,32)" rx="2" ry="2" />
<text  x="1026.50" y="255.5" ></text>
</g>
<g >
<title>handle_pte_fault (259,022,694 samples, 0.01%)</title><rect x="1023.6" y="213" width="0.1" height="15.0" fill="rgb(217,57,13)" rx="2" ry="2" />
<text  x="1026.56" y="223.5" ></text>
</g>
<g >
<title>clear_page_erms (643,780,141 samples, 0.03%)</title><rect x="1182.8" y="101" width="0.3" height="15.0" fill="rgb(229,113,27)" rx="2" ry="2" />
<text  x="1185.79" y="111.5" ></text>
</g>
<g >
<title>perf_event_task_tick (860,140,495 samples, 0.04%)</title><rect x="1185.8" y="149" width="0.4" height="15.0" fill="rgb(205,3,0)" rx="2" ry="2" />
<text  x="1188.78" y="159.5" ></text>
</g>
<g >
<title>core::slice::sort::shared::smallsort::sort4_stable (7,366,235,576 samples, 0.34%)</title><rect x="1068.2" y="293" width="4.0" height="15.0" fill="rgb(226,99,23)" rx="2" ry="2" />
<text  x="1071.19" y="303.5" ></text>
</g>
<g >
<title>x64_sys_call (447,223,633 samples, 0.02%)</title><rect x="10.0" y="229" width="0.2" height="15.0" fill="rgb(247,194,46)" rx="2" ry="2" />
<text  x="13.01" y="239.5" ></text>
</g>
<g >
<title>tlb_batch_pages_flush (487,663,732 samples, 0.02%)</title><rect x="1189.4" y="101" width="0.2" height="15.0" fill="rgb(234,133,32)" rx="2" ry="2" />
<text  x="1192.37" y="111.5" ></text>
</g>
<g >
<title>[libc.so.6] (897,878,138 samples, 0.04%)</title><rect x="1087.9" y="277" width="0.5" height="15.0" fill="rgb(223,84,20)" rx="2" ry="2" />
<text  x="1090.94" y="287.5" ></text>
</g>
<g >
<title>__skb_datagram_iter (341,921,129 samples, 0.02%)</title><rect x="10.0" y="101" width="0.2" height="15.0" fill="rgb(244,179,42)" rx="2" ry="2" />
<text  x="13.03" y="111.5" ></text>
</g>
<g >
<title>all (2,178,461,482,588 samples, 100%)</title><rect x="10.0" y="341" width="1180.0" height="15.0" fill="rgb(213,39,9)" rx="2" ry="2" />
<text  x="13.00" y="351.5" ></text>
</g>
<g >
<title>core::slice::sort::shared::smallsort::small_sort_general_with_scratch (24,648,994,710 samples, 1.13%)</title><rect x="1089.1" y="309" width="13.3" height="15.0" fill="rgb(238,154,37)" rx="2" ry="2" />
<text  x="1092.06" y="319.5" ></text>
</g>
<g >
<title>hrtimer_active (211,421,279 samples, 0.01%)</title><rect x="1030.3" y="133" width="0.1" height="15.0" fill="rgb(212,34,8)" rx="2" ry="2" />
<text  x="1033.31" y="143.5" ></text>
</g>
<g >
<title>lru_add_fn (213,238,841 samples, 0.01%)</title><rect x="1183.3" y="133" width="0.1" height="15.0" fill="rgb(208,14,3)" rx="2" ry="2" />
<text  x="1186.29" y="143.5" ></text>
</g>
<g >
<title>handle_pte_fault (205,060,628 samples, 0.01%)</title><rect x="1049.1" y="197" width="0.1" height="15.0" fill="rgb(217,57,13)" rx="2" ry="2" />
<text  x="1052.12" y="207.5" ></text>
</g>
<g >
<title>[unknown] (793,727,973 samples, 0.04%)</title><rect x="1050.2" y="293" width="0.4" height="15.0" fill="rgb(210,24,5)" rx="2" ry="2" />
<text  x="1053.16" y="303.5" ></text>
</g>
<g >
<title>_ZN5alloc7raw_vec11finish_grow17hbd73bd63ab428510E.llvm.4766911908140185779 (1,331,738,450 samples, 0.06%)</title><rect x="1087.7" y="309" width="0.7" height="15.0" fill="rgb(205,2,0)" rx="2" ry="2" />
<text  x="1090.70" y="319.5" ></text>
</g>
<g >
<title>tick_sched_handle (1,004,128,653 samples, 0.05%)</title><rect x="1185.8" y="197" width="0.5" height="15.0" fill="rgb(219,68,16)" rx="2" ry="2" />
<text  x="1188.76" y="207.5" ></text>
</g>
<g >
<title>asm_sysvec_apic_timer_interrupt (496,468,000 samples, 0.02%)</title><rect x="1102.1" y="293" width="0.3" height="15.0" fill="rgb(232,127,30)" rx="2" ry="2" />
<text  x="1105.14" y="303.5" ></text>
</g>
<g >
<title>update_load_avg (708,480,240 samples, 0.03%)</title><rect x="1030.7" y="133" width="0.4" height="15.0" fill="rgb(240,165,39)" rx="2" ry="2" />
<text  x="1033.71" y="143.5" ></text>
</g>
<g >
<title>task_work_run (217,391,779 samples, 0.01%)</title><rect x="1032.1" y="229" width="0.1" height="15.0" fill="rgb(209,22,5)" rx="2" ry="2" />
<text  x="1035.11" y="239.5" ></text>
</g>
<g >
<title>__x64_sys_munmap (1,266,963,850 samples, 0.06%)</title><rect x="1189.3" y="197" width="0.7" height="15.0" fill="rgb(206,7,1)" rx="2" ry="2" />
<text  x="1192.31" y="207.5" ></text>
</g>
<g >
<title>__hrtimer_run_queues (13,525,487,891 samples, 0.62%)</title><rect x="1024.2" y="229" width="7.4" height="15.0" fill="rgb(237,150,35)" rx="2" ry="2" />
<text  x="1027.25" y="239.5" ></text>
</g>
<g >
<title>do_syscall_64 (458,027,518 samples, 0.02%)</title><rect x="10.0" y="245" width="0.2" height="15.0" fill="rgb(209,20,4)" rx="2" ry="2" />
<text  x="13.00" y="255.5" ></text>
</g>
<g >
<title>update_process_times (1,004,128,653 samples, 0.05%)</title><rect x="1185.8" y="181" width="0.5" height="15.0" fill="rgb(250,209,50)" rx="2" ry="2" />
<text  x="1188.76" y="191.5" ></text>
</g>
<g >
<title>__handle_mm_fault (205,060,628 samples, 0.01%)</title><rect x="1049.1" y="213" width="0.1" height="15.0" fill="rgb(207,9,2)" rx="2" ry="2" />
<text  x="1052.12" y="223.5" ></text>
</g>
<g >
<title>handle_pte_fault (4,453,196,607 samples, 0.20%)</title><rect x="1181.2" y="213" width="2.5" height="15.0" fill="rgb(217,57,13)" rx="2" ry="2" />
<text  x="1184.25" y="223.5" ></text>
</g>
<g >
<title>inet_recvmsg (447,223,633 samples, 0.02%)</title><rect x="10.0" y="165" width="0.2" height="15.0" fill="rgb(206,5,1)" rx="2" ry="2" />
<text  x="13.01" y="175.5" ></text>
</g>
<g >
<title>__sysvec_apic_timer_interrupt (14,304,279,199 samples, 0.66%)</title><rect x="1024.2" y="261" width="7.7" height="15.0" fill="rgb(242,173,41)" rx="2" ry="2" />
<text  x="1027.19" y="271.5" ></text>
</g>
<g >
<title>exc_page_fault (492,964,665 samples, 0.02%)</title><rect x="1023.5" y="277" width="0.3" height="15.0" fill="rgb(212,35,8)" rx="2" ry="2" />
<text  x="1026.50" y="287.5" ></text>
</g>
<g >
<title>tcp_recvmsg (447,223,633 samples, 0.02%)</title><rect x="10.0" y="149" width="0.2" height="15.0" fill="rgb(234,135,32)" rx="2" ry="2" />
<text  x="13.01" y="159.5" ></text>
</g>
<g >
<title>irqentry_exit_to_user_mode (255,649,062 samples, 0.01%)</title><rect x="1032.1" y="245" width="0.1" height="15.0" fill="rgb(254,229,54)" rx="2" ry="2" />
<text  x="1035.09" y="255.5" ></text>
</g>
<g >
<title>sysvec_apic_timer_interrupt (14,953,785,083 samples, 0.69%)</title><rect x="1024.2" y="277" width="8.1" height="15.0" fill="rgb(220,69,16)" rx="2" ry="2" />
<text  x="1027.19" y="287.5" ></text>
</g>
<g >
<title>__update_load_avg_cfs_rq (211,801,593 samples, 0.01%)</title><rect x="1030.9" y="117" width="0.1" height="15.0" fill="rgb(228,107,25)" rx="2" ry="2" />
<text  x="1033.86" y="127.5" ></text>
</g>
<g >
<title>tick_sched_do_timer (399,730,968 samples, 0.02%)</title><rect x="1024.3" y="197" width="0.2" height="15.0" fill="rgb(227,104,25)" rx="2" ry="2" />
<text  x="1027.32" y="207.5" ></text>
</g>
<g >
<title>&lt;&amp;std::os::unix::net::stream::UnixStream as std::io::Read&gt;::read (458,027,518 samples, 0.02%)</title><rect x="10.0" y="293" width="0.2" height="15.0" fill="rgb(241,169,40)" rx="2" ry="2" />
<text  x="13.00" y="303.5" ></text>
</g>
<g >
<title>do_user_addr_fault (244,793,386 samples, 0.01%)</title><rect x="1049.1" y="245" width="0.1" height="15.0" fill="rgb(228,108,25)" rx="2" ry="2" />
<text  x="1052.11" y="255.5" ></text>
</g>
<g >
<title>irq_exit_rcu (252,892,042 samples, 0.01%)</title><rect x="1032.0" y="261" width="0.1" height="15.0" fill="rgb(254,227,54)" rx="2" ry="2" />
<text  x="1034.96" y="271.5" ></text>
</g>
<g >
<title>recv (458,027,518 samples, 0.02%)</title><rect x="10.0" y="277" width="0.2" height="15.0" fill="rgb(222,82,19)" rx="2" ry="2" />
<text  x="13.00" y="287.5" ></text>
</g>
<g >
<title>perf_adjust_freq_unthr_context (9,266,013,968 samples, 0.43%)</title><rect x="1025.1" y="133" width="5.1" height="15.0" fill="rgb(236,146,35)" rx="2" ry="2" />
<text  x="1028.14" y="143.5" ></text>
</g>
<g >
<title>zap_pte_range (638,353,806 samples, 0.03%)</title><rect x="1189.7" y="53" width="0.3" height="15.0" fill="rgb(231,120,28)" rx="2" ry="2" />
<text  x="1192.65" y="63.5" ></text>
</g>
<g >
<title>unmap_region (1,231,738,425 samples, 0.06%)</title><rect x="1189.3" y="133" width="0.7" height="15.0" fill="rgb(219,64,15)" rx="2" ry="2" />
<text  x="1192.33" y="143.5" ></text>
</g>
<g >
<title>tcp_recvmsg_locked (407,717,193 samples, 0.02%)</title><rect x="10.0" y="133" width="0.2" height="15.0" fill="rgb(226,100,24)" rx="2" ry="2" />
<text  x="13.03" y="143.5" ></text>
</g>
<g >
<title>serde_json::de::Deserializer&lt;R&gt;::parse_integer (1,042,836,871 samples, 0.05%)</title><rect x="1188.7" y="309" width="0.6" height="15.0" fill="rgb(228,107,25)" rx="2" ry="2" />
<text  x="1191.70" y="319.5" ></text>
</g>
<g >
<title>simple_copy_to_iter (341,921,129 samples, 0.02%)</title><rect x="10.0" y="85" width="0.2" height="15.0" fill="rgb(228,110,26)" rx="2" ry="2" />
<text  x="13.03" y="95.5" ></text>
</g>
<g >
<title>core::slice::sort::stable::drift::sort (494,615,013 samples, 0.02%)</title><rect x="1102.4" y="309" width="0.3" height="15.0" fill="rgb(248,198,47)" rx="2" ry="2" />
<text  x="1105.41" y="319.5" ></text>
</g>
<g >
<title>__mem_cgroup_charge (2,312,059,008 samples, 0.11%)</title><rect x="1181.3" y="181" width="1.2" height="15.0" fill="rgb(218,60,14)" rx="2" ry="2" />
<text  x="1184.29" y="191.5" ></text>
</g>
<g >
<title>do_syscall_64 (1,266,963,850 samples, 0.06%)</title><rect x="1189.3" y="229" width="0.7" height="15.0" fill="rgb(209,20,4)" rx="2" ry="2" />
<text  x="1192.31" y="239.5" ></text>
</g>
<g >
<title>hrtimer_interrupt (1,109,815,695 samples, 0.05%)</title><rect x="1185.7" y="245" width="0.6" height="15.0" fill="rgb(228,109,26)" rx="2" ry="2" />
<text  x="1188.70" y="255.5" ></text>
</g>
<g >
<title>vma_alloc_folio (1,002,789,014 samples, 0.05%)</title><rect x="1182.7" y="165" width="0.5" height="15.0" fill="rgb(245,187,44)" rx="2" ry="2" />
<text  x="1185.67" y="175.5" ></text>
</g>
<g >
<title>release_pages (487,663,732 samples, 0.02%)</title><rect x="1189.4" y="69" width="0.2" height="15.0" fill="rgb(228,106,25)" rx="2" ry="2" />
<text  x="1192.37" y="79.5" ></text>
</g>
<g >
<title>update_wall_time (258,789,369 samples, 0.01%)</title><rect x="1024.4" y="165" width="0.1" height="15.0" fill="rgb(207,11,2)" rx="2" ry="2" />
<text  x="1027.40" y="175.5" ></text>
</g>
<g >
<title>do_vmi_align_munmap (1,266,963,850 samples, 0.06%)</title><rect x="1189.3" y="149" width="0.7" height="15.0" fill="rgb(211,29,7)" rx="2" ry="2" />
<text  x="1192.31" y="159.5" ></text>
</g>
<g >
<title>lru_gen_del_folio.constprop.0 (211,707,480 samples, 0.01%)</title><rect x="1189.5" y="53" width="0.1" height="15.0" fill="rgb(224,91,21)" rx="2" ry="2" />
<text  x="1192.52" y="63.5" ></text>
</g>
<g >
<title>[libc.so.6] (1,266,963,850 samples, 0.06%)</title><rect x="1189.3" y="277" width="0.7" height="15.0" fill="rgb(223,84,20)" rx="2" ry="2" />
<text  x="1192.31" y="287.5" ></text>
</g>
<g >
<title>tick_nohz_highres_handler (13,490,253,700 samples, 0.62%)</title><rect x="1024.3" y="213" width="7.3" height="15.0" fill="rgb(215,50,11)" rx="2" ry="2" />
<text  x="1027.27" y="223.5" ></text>
</g>
<g >
<title>[libc.so.6] (19,437,105,725 samples, 0.89%)</title><rect x="1033.3" y="309" width="10.5" height="15.0" fill="rgb(223,84,20)" rx="2" ry="2" />
<text  x="1036.27" y="319.5" ></text>
</g>
<g >
<title>&lt;serde_path_to_error::de::TrackedSeed&lt;X&gt; as serde_core::de::DeserializeSeed&gt;::deserialize (912,530,030 samples, 0.04%)</title><rect x="1032.8" y="309" width="0.5" height="15.0" fill="rgb(209,22,5)" rx="2" ry="2" />
<text  x="1035.77" y="319.5" ></text>
</g>
<g >
<title>folio_remove_rmap_ptes (212,479,330 samples, 0.01%)</title><rect x="1189.9" y="37" width="0.1" height="15.0" fill="rgb(219,68,16)" rx="2" ry="2" />
<text  x="1192.88" y="47.5" ></text>
</g>
<g >
<title>timekeeping_advance (220,531,433 samples, 0.01%)</title><rect x="1024.4" y="149" width="0.1" height="15.0" fill="rgb(227,104,25)" rx="2" ry="2" />
<text  x="1027.42" y="159.5" ></text>
</g>
<g >
<title>perf_adjust_freq_unthr_context (860,140,495 samples, 0.04%)</title><rect x="1185.8" y="133" width="0.4" height="15.0" fill="rgb(236,146,35)" rx="2" ry="2" />
<text  x="1188.78" y="143.5" ></text>
</g>
<g >
<title>account_user_time (504,413,651 samples, 0.02%)</title><rect x="1024.6" y="149" width="0.3" height="15.0" fill="rgb(225,96,23)" rx="2" ry="2" />
<text  x="1027.58" y="159.5" ></text>
</g>
<g >
<title>core::slice::sort::stable::drift::sort (20,801,117,085 samples, 0.95%)</title><rect x="1075.4" y="293" width="11.3" height="15.0" fill="rgb(248,198,47)" rx="2" ry="2" />
<text  x="1078.44" y="303.5" ></text>
</g>
<g >
<title>hrtimer_interrupt (14,195,687,160 samples, 0.65%)</title><rect x="1024.2" y="245" width="7.7" height="15.0" fill="rgb(228,109,26)" rx="2" ry="2" />
<text  x="1027.23" y="255.5" ></text>
</g>
<g >
<title>scheduler_tick (1,004,128,653 samples, 0.05%)</title><rect x="1185.8" y="165" width="0.5" height="15.0" fill="rgb(246,190,45)" rx="2" ry="2" />
<text  x="1188.76" y="175.5" ></text>
</g>
<g >
<title>ktime_get_update_offsets_now (248,332,746 samples, 0.01%)</title><rect x="1031.6" y="229" width="0.1" height="15.0" fill="rgb(243,178,42)" rx="2" ry="2" />
<text  x="1034.59" y="239.5" ></text>
</g>
<g >
<title>clockevents_program_event (245,893,341 samples, 0.01%)</title><rect x="1031.8" y="213" width="0.1" height="15.0" fill="rgb(244,182,43)" rx="2" ry="2" />
<text  x="1034.79" y="223.5" ></text>
</g>
<g >
<title>perf_event_task_tick (9,374,738,832 samples, 0.43%)</title><rect x="1025.1" y="149" width="5.1" height="15.0" fill="rgb(205,3,0)" rx="2" ry="2" />
<text  x="1028.10" y="159.5" ></text>
</g>
<g >
<title>scheduler_tick (12,338,447,032 samples, 0.57%)</title><rect x="1024.9" y="165" width="6.7" height="15.0" fill="rgb(246,190,45)" rx="2" ry="2" />
<text  x="1027.89" y="175.5" ></text>
</g>
<g >
<title>intel_pmu_enable_all (253,670,691 samples, 0.01%)</title><rect x="1030.0" y="101" width="0.2" height="15.0" fill="rgb(205,4,1)" rx="2" ry="2" />
<text  x="1033.02" y="111.5" ></text>
</g>
<g >
<title>&lt;serde_json::de::SeqAccess&lt;R&gt; as serde_core::de::SeqAccess&gt;::next_element_seed (2,060,760,406 samples, 0.09%)</title><rect x="1045.4" y="293" width="1.1" height="15.0" fill="rgb(253,222,53)" rx="2" ry="2" />
<text  x="1048.38" y="303.5" ></text>
</g>
<g >
<title>alloc_anon_folio (1,178,948,767 samples, 0.05%)</title><rect x="1182.6" y="181" width="0.6" height="15.0" fill="rgb(223,86,20)" rx="2" ry="2" />
<text  x="1185.58" y="191.5" ></text>
</g>
<g >
<title>core::slice::sort::shared::smallsort::small_sort_general_with_scratch (26,694,440,651 samples, 1.23%)</title><rect x="1053.7" y="293" width="14.5" height="15.0" fill="rgb(238,154,37)" rx="2" ry="2" />
<text  x="1056.73" y="303.5" ></text>
</g>
<g >
<title>folio_add_lru (354,177,577 samples, 0.02%)</title><rect x="1183.2" y="165" width="0.2" height="15.0" fill="rgb(208,17,4)" rx="2" ry="2" />
<text  x="1186.21" y="175.5" ></text>
</g>
<g >
<title>tick_sched_handle (12,984,728,967 samples, 0.60%)</title><rect x="1024.5" y="197" width="7.1" height="15.0" fill="rgb(219,68,16)" rx="2" ry="2" />
<text  x="1027.54" y="207.5" ></text>
</g>
<g >
<title>__sys_recvfrom (447,223,633 samples, 0.02%)</title><rect x="10.0" y="197" width="0.2" height="15.0" fill="rgb(247,197,47)" rx="2" ry="2" />
<text  x="13.01" y="207.5" ></text>
</g>
<g >
<title>native_write_msr (253,670,691 samples, 0.01%)</title><rect x="1030.0" y="85" width="0.2" height="15.0" fill="rgb(237,151,36)" rx="2" ry="2" />
<text  x="1033.02" y="95.5" ></text>
</g>
<g >
<title>cfree (1,266,963,850 samples, 0.06%)</title><rect x="1189.3" y="293" width="0.7" height="15.0" fill="rgb(223,86,20)" rx="2" ry="2" />
<text  x="1192.31" y="303.5" ></text>
</g>
<g >
<title>realloc (1,230,020,098 samples, 0.06%)</title><rect x="1087.8" y="293" width="0.6" height="15.0" fill="rgb(246,189,45)" rx="2" ry="2" />
<text  x="1090.76" y="303.5" ></text>
</g>
<g >
<title>do_user_addr_fault (492,964,665 samples, 0.02%)</title><rect x="1023.5" y="261" width="0.3" height="15.0" fill="rgb(228,108,25)" rx="2" ry="2" />
<text  x="1026.50" y="271.5" ></text>
</g>
<g >
<title>handle_mm_fault (4,667,675,185 samples, 0.21%)</title><rect x="1181.2" y="245" width="2.5" height="15.0" fill="rgb(234,135,32)" rx="2" ry="2" />
<text  x="1184.21" y="255.5" ></text>
</g>
<g >
<title>tick_program_event (316,154,592 samples, 0.01%)</title><rect x="1031.7" y="229" width="0.2" height="15.0" fill="rgb(241,166,39)" rx="2" ry="2" />
<text  x="1034.75" y="239.5" ></text>
</g>
<g >
<title>folio_batch_move_lru (318,919,366 samples, 0.01%)</title><rect x="1183.2" y="149" width="0.2" height="15.0" fill="rgb(207,10,2)" rx="2" ry="2" />
<text  x="1186.23" y="159.5" ></text>
</g>
<g >
<title>entry_SYSCALL_64_after_hwframe (458,027,518 samples, 0.02%)</title><rect x="10.0" y="261" width="0.2" height="15.0" fill="rgb(218,63,15)" rx="2" ry="2" />
<text  x="13.00" y="271.5" ></text>
</g>
<g >
<title>handle_softirqs (214,870,901 samples, 0.01%)</title><rect x="1032.0" y="229" width="0.1" height="15.0" fill="rgb(238,156,37)" rx="2" ry="2" />
<text  x="1034.96" y="239.5" ></text>
</g>
<g >
<title>folio_add_lru_vma (354,177,577 samples, 0.02%)</title><rect x="1183.2" y="181" width="0.2" height="15.0" fill="rgb(252,216,51)" rx="2" ry="2" />
<text  x="1186.21" y="191.5" ></text>
</g>
<g >
<title>&lt;&amp;mio::net::tcp::stream::TcpStream as std::io::Read&gt;::read (458,027,518 samples, 0.02%)</title><rect x="10.0" y="309" width="0.2" height="15.0" fill="rgb(254,229,54)" rx="2" ry="2" />
<text  x="13.00" y="319.5" ></text>
</g>
<g >
<title>__sysvec_apic_timer_interrupt (1,145,043,261 samples, 0.05%)</title><rect x="1185.7" y="261" width="0.6" height="15.0" fill="rgb(242,173,41)" rx="2" ry="2" />
<text  x="1188.68" y="271.5" ></text>
</g>
<g >
<title>trigger_load_balance (319,455,528 samples, 0.01%)</title><rect x="1031.1" y="149" width="0.2" height="15.0" fill="rgb(228,108,26)" rx="2" ry="2" />
<text  x="1034.13" y="159.5" ></text>
</g>
<g >
<title>alloc_pages_mpol (897,110,719 samples, 0.04%)</title><rect x="1182.7" y="149" width="0.5" height="15.0" fill="rgb(254,227,54)" rx="2" ry="2" />
<text  x="1185.71" y="159.5" ></text>
</g>
<g >
<title>sync_regs (396,296,279 samples, 0.02%)</title><rect x="1186.4" y="293" width="0.2" height="15.0" fill="rgb(228,106,25)" rx="2" ry="2" />
<text  x="1189.40" y="303.5" ></text>
</g>
<g >
<title>unmap_page_range (673,546,593 samples, 0.03%)</title><rect x="1189.6" y="85" width="0.4" height="15.0" fill="rgb(206,5,1)" rx="2" ry="2" />
<text  x="1192.64" y="95.5" ></text>
</g>
<g >
<title>__alloc_pages (788,387,688 samples, 0.04%)</title><rect x="1182.7" y="133" width="0.5" height="15.0" fill="rgb(233,129,30)" rx="2" ry="2" />
<text  x="1185.75" y="143.5" ></text>
</g>
<g >
<title>do_vmi_munmap (1,266,963,850 samples, 0.06%)</title><rect x="1189.3" y="165" width="0.7" height="15.0" fill="rgb(253,223,53)" rx="2" ry="2" />
<text  x="1192.31" y="175.5" ></text>
</g>
<g >
<title>x64_sys_call (1,266,963,850 samples, 0.06%)</title><rect x="1189.3" y="213" width="0.7" height="15.0" fill="rgb(247,194,46)" rx="2" ry="2" />
<text  x="1192.31" y="223.5" ></text>
</g>
<g >
<title>asm_sysvec_apic_timer_interrupt (285,069,309 samples, 0.01%)</title><rect x="1043.6" y="293" width="0.2" height="15.0" fill="rgb(232,127,30)" rx="2" ry="2" />
<text  x="1046.64" y="303.5" ></text>
</g>
<g >
<title>__handle_mm_fault (4,488,522,006 samples, 0.21%)</title><rect x="1181.2" y="229" width="2.5" height="15.0" fill="rgb(207,9,2)" rx="2" ry="2" />
<text  x="1184.23" y="239.5" ></text>
</g>
<g >
<title>__rcu_read_unlock (220,430,795 samples, 0.01%)</title><rect x="1181.4" y="165" width="0.2" height="15.0" fill="rgb(253,224,53)" rx="2" ry="2" />
<text  x="1184.44" y="175.5" ></text>
</g>
<g >
<title>core::slice::sort::shared::smallsort::sort8_stable (6,013,234,411 samples, 0.28%)</title><rect x="1072.2" y="293" width="3.2" height="15.0" fill="rgb(250,210,50)" rx="2" ry="2" />
<text  x="1075.18" y="303.5" ></text>
</g>
<g >
<title>core::slice::sort::stable::quicksort::quicksort (154,878,717,689 samples, 7.11%)</title><rect x="1102.7" y="309" width="83.9" height="15.0" fill="rgb(231,123,29)" rx="2" ry="2" />
<text  x="1105.72" y="319.5" >core::sli..</text>
</g>
<g >
<title>nohz_balancer_kick (284,740,788 samples, 0.01%)</title><rect x="1031.2" y="133" width="0.1" height="15.0" fill="rgb(225,93,22)" rx="2" ry="2" />
<text  x="1034.15" y="143.5" ></text>
</g>
<g >
<title>do_anonymous_page (191,852,682 samples, 0.01%)</title><rect x="1049.1" y="181" width="0.1" height="15.0" fill="rgb(238,155,37)" rx="2" ry="2" />
<text  x="1052.12" y="191.5" ></text>
</g>
<g >
<title>vector_db_skeleton::db::VectorDB::search (1,266,963,850 samples, 0.06%)</title><rect x="1189.3" y="309" width="0.7" height="15.0" fill="rgb(223,85,20)" rx="2" ry="2" />
<text  x="1192.31" y="319.5" ></text>
</g>
<g >
<title>do_anonymous_page (4,382,737,339 samples, 0.20%)</title><rect x="1181.3" y="197" width="2.3" height="15.0" fill="rgb(238,155,37)" rx="2" ry="2" />
<text  x="1184.27" y="207.5" ></text>
</g>
<g >
<title>entry_SYSCALL_64_after_hwframe (1,266,963,850 samples, 0.06%)</title><rect x="1189.3" y="245" width="0.7" height="15.0" fill="rgb(218,63,15)" rx="2" ry="2" />
<text  x="1192.31" y="255.5" ></text>
</g>
<g >
<title>exc_page_fault (270,666,482 samples, 0.01%)</title><rect x="1049.1" y="261" width="0.1" height="15.0" fill="rgb(212,35,8)" rx="2" ry="2" />
<text  x="1052.09" y="271.5" ></text>
</g>
<g >
<title>__handle_mm_fault (332,381,261 samples, 0.02%)</title><rect x="1023.5" y="229" width="0.2" height="15.0" fill="rgb(207,9,2)" rx="2" ry="2" />
<text  x="1026.52" y="239.5" ></text>
</g>
<g >
<title>update_cfs_group (246,561,650 samples, 0.01%)</title><rect x="1031.3" y="149" width="0.1" height="15.0" fill="rgb(242,174,41)" rx="2" ry="2" />
<text  x="1034.31" y="159.5" ></text>
</g>
<g >
<title>unmap_single_vma (673,546,593 samples, 0.03%)</title><rect x="1189.6" y="101" width="0.4" height="15.0" fill="rgb(225,93,22)" rx="2" ry="2" />
<text  x="1192.64" y="111.5" ></text>
</g>
<g >
<title>get_page_from_freelist (750,510,778 samples, 0.03%)</title><rect x="1182.8" y="117" width="0.4" height="15.0" fill="rgb(252,218,52)" rx="2" ry="2" />
<text  x="1185.77" y="127.5" ></text>
</g>
<g >
<title>[unknown] (81,011,237,810 samples, 3.72%)</title><rect x="1043.8" y="309" width="43.9" height="15.0" fill="rgb(210,24,5)" rx="2" ry="2" />
<text  x="1046.79" y="319.5" >[unk..</text>
</g>
<g >
<title>asm_exc_page_fault (5,948,241,148 samples, 0.27%)</title><rect x="1180.6" y="293" width="3.2" height="15.0" fill="rgb(225,93,22)" rx="2" ry="2" />
<text  x="1183.57" y="303.5" ></text>
</g>
<g >
<title>get_mem_cgroup_from_mm (425,956,280 samples, 0.02%)</title><rect x="1181.6" y="165" width="0.2" height="15.0" fill="rgb(218,61,14)" rx="2" ry="2" />
<text  x="1184.56" y="175.5" ></text>
</g>
<g >
<title>serde_json::de::Deserializer&lt;R&gt;::parse_integer (1,160,371,290 samples, 0.05%)</title><rect x="1087.0" y="293" width="0.7" height="15.0" fill="rgb(228,107,25)" rx="2" ry="2" />
<text  x="1090.03" y="303.5" ></text>
</g>
<g >
<title>serde_json::de::Deserializer&lt;R&gt;::parse_decimal (3,515,877,986 samples, 0.16%)</title><rect x="1186.8" y="309" width="1.9" height="15.0" fill="rgb(228,108,25)" rx="2" ry="2" />
<text  x="1189.80" y="319.5" ></text>
</g>
<g >
<title>task_tick_fair (1,755,331,675 samples, 0.08%)</title><rect x="1030.2" y="149" width="0.9" height="15.0" fill="rgb(217,57,13)" rx="2" ry="2" />
<text  x="1033.18" y="159.5" ></text>
</g>
<g >
<title>__vm_munmap (1,266,963,850 samples, 0.06%)</title><rect x="1189.3" y="181" width="0.7" height="15.0" fill="rgb(231,121,28)" rx="2" ry="2" />
<text  x="1192.31" y="191.5" ></text>
</g>
<g >
<title>hashbrown::map::HashMap&lt;K,V,S,A&gt;::insert (363,765,897 samples, 0.02%)</title><rect x="1086.7" y="293" width="0.2" height="15.0" fill="rgb(221,75,18)" rx="2" ry="2" />
<text  x="1089.71" y="303.5" ></text>
</g>
<g >
<title>free_pages_and_swap_cache (487,663,732 samples, 0.02%)</title><rect x="1189.4" y="85" width="0.2" height="15.0" fill="rgb(222,82,19)" rx="2" ry="2" />
<text  x="1192.37" y="95.5" ></text>
</g>
<g >
<title>try_charge_memcg (640,669,573 samples, 0.03%)</title><rect x="1182.2" y="165" width="0.3" height="15.0" fill="rgb(210,27,6)" rx="2" ry="2" />
<text  x="1185.19" y="175.5" ></text>
</g>
<g >
<title>asm_sysvec_apic_timer_interrupt (4,695,852,078 samples, 0.22%)</title><rect x="1183.8" y="293" width="2.5" height="15.0" fill="rgb(232,127,30)" rx="2" ry="2" />
<text  x="1186.80" y="303.5" ></text>
</g>
<g >
<title>tlb_finish_mmu (522,955,611 samples, 0.02%)</title><rect x="1189.4" y="117" width="0.2" height="15.0" fill="rgb(251,212,50)" rx="2" ry="2" />
<text  x="1192.35" y="127.5" ></text>
</g>
<g >
<title>do_numa_page (185,114,954 samples, 0.01%)</title><rect x="1023.6" y="197" width="0.1" height="15.0" fill="rgb(208,14,3)" rx="2" ry="2" />
<text  x="1026.60" y="207.5" ></text>
</g>
<g >
<title>irqentry_exit (255,649,062 samples, 0.01%)</title><rect x="1032.1" y="261" width="0.1" height="15.0" fill="rgb(219,66,15)" rx="2" ry="2" />
<text  x="1035.09" y="271.5" ></text>
</g>
<g >
<title>_ZN80_$LT$serde_json..de..SeqAccess$LT$R$GT$$u20$as$u20$serde_core..de..SeqAccess$GT$17next_element_seed16has_next_element17h087e193fb1d70ce3E.llvm.2730265038961672826 (1,217,841,680 samples, 0.06%)</title><rect x="1050.7" y="293" width="0.6" height="15.0" fill="rgb(219,65,15)" rx="2" ry="2" />
<text  x="1053.68" y="303.5" ></text>
</g>
<g >
<title>exc_page_fault (4,882,832,984 samples, 0.22%)</title><rect x="1181.2" y="277" width="2.6" height="15.0" fill="rgb(212,35,8)" rx="2" ry="2" />
<text  x="1184.15" y="287.5" ></text>
</g>
<g >
<title>&lt;serde_path_to_error::de::TrackedSeed&lt;X&gt; as serde_core::de::DeserializeSeed&gt;::deserialize (2,746,869,254 samples, 0.13%)</title><rect x="1046.6" y="293" width="1.5" height="15.0" fill="rgb(209,22,5)" rx="2" ry="2" />
<text  x="1049.58" y="303.5" ></text>
</g>
<g >
<title>&lt;serde_core::de::impls::&lt;impl serde_core::de::Deserialize for alloc::vec::Vec&lt;T&gt;&gt;::deserialize::VecVisitor&lt;T&gt; as serde_core::de::Visitor&gt;::visit_seq (481,308,934 samples, 0.02%)</title><rect x="1045.1" y="293" width="0.3" height="15.0" fill="rgb(214,45,10)" rx="2" ry="2" />
<text  x="1048.12" y="303.5" ></text>
</g>
<g >
<title>[libc.so.6] (589,353,703 samples, 0.03%)</title><rect x="1088.1" y="261" width="0.3" height="15.0" fill="rgb(223,84,20)" rx="2" ry="2" />
<text  x="1091.08" y="271.5" ></text>
</g>
</g>
</svg>
