<?xml version="1.0" standalone="no"?>
<!DOCTYPE svg PUBLIC "-//W3C//DTD SVG 1.1//EN" "http://www.w3.org/Graphics/SVG/1.1/DTD/svg11.dtd">
<svg version="1.1" width="1200" height="374" onload="init(evt)" viewBox="0 0 1200 374" xmlns="http://www.w3.org/2000/svg" xmlns:xlink="http://www.w3.org/1999/xlink">
<!-- Flame graph stack visualization. See https://github.com/brendangregg/FlameGraph for latest version, and http://www.brendangregg.com/flamegraphs.html for examples. -->
<!-- NOTES:  -->
<defs>
	<linearGradient id="background" y1="0" y2="1" x1="0" x2="0" >
		<stop stop-color="#eeeeee" offset="5%" />
		<stop stop-color="#eeeeb0" offset="95%" />
	</linearGradient>
</defs>
<style type="text/css">
	text { font-family:Verdana; font-size:12px; fill:rgb(0,0,0); }
	#search, #ignorecase { opacity:0.1; cursor:pointer; }
	#search:hover, #search.show, #ignorecase:hover, #ignorecase.show { opacity:1; }
	#subtitle { text-anchor:middle; font-color:rgb(160,160,160); }
	#title { text-anchor:middle; font-size:17px}
	#unzoom { cursor:pointer; }
	#frames > *:hover { stroke:black; stroke-width:0.5; cursor:pointer; }
	.hide { display:none; }
	.parent { opacity:0.5; }
</style>
<script type="text/ecmascript">
<![CDATA[
	"use strict";
	var details, searchbtn, unzoombtn, matchedtxt, svg, searching, currentSearchTerm, ignorecase, ignorecaseBtn;
	function init(evt) {
		details = document.getElementById("details").firstChild;
		searchbtn = document.getElementById("search");
		ignorecaseBtn = document.getElementById("ignorecase");
		unzoombtn = document.getElementById("unzoom");
		matchedtxt = document.getElementById("matched");
		svg = document.getElementsByTagName("svg")[0];
		searching = 0;
		currentSearchTerm = null;

		// use GET parameters to restore a flamegraphs state.
		var params = get_params();
		if (params.x && params.y)
			zoom(find_group(document.querySelector('[x="' + params.x + '"][y="' + params.y + '"]')));
                if (params.s) search(params.s);
	}

	// event listeners
	window.addEventListener("click", function(e) {
		var target = find_group(e.target);
		if (target) {
			if (target.nodeName == "a") {
				if (e.ctrlKey === false) return;
				e.preventDefault();
			}
			if (target.classList.contains("parent")) unzoom(true);
			zoom(target);
			if (!document.querySelector('.parent')) {
				// we have basically done a clearzoom so clear the url
				var params = get_params();
				if (params.x) delete params.x;
				if (params.y) delete params.y;
				history.replaceState(null, null, parse_params(params));
				unzoombtn.classList.add("hide");
				return;
			}

			// set parameters for zoom state
			var el = target.querySelector("rect");
			if (el && el.attributes && el.attributes.y && el.attributes._orig_x) {
				var params = get_params()
				params.x = el.attributes._orig_x.value;
				params.y = el.attributes.y.value;
				history.replaceState(null, null, parse_params(params));
			}
		}
		else if (e.target.id == "unzoom") clearzoom();
		else if (e.target.id == "search") search_prompt();
		else if (e.target.id == "ignorecase") toggle_ignorecase();
	}, false)

	// mouse-over for info
	// show
	window.addEventListener("mouseover", function(e) {
		var target = find_group(e.target);
		if (target) details.nodeValue = "Function: " + g_to_text(target);
	}, false)

	// clear
	window.addEventListener("mouseout", function(e) {
		var target = find_group(e.target);
		if (target) details.nodeValue = ' ';
	}, false)

	// ctrl-F for search
	// ctrl-I to toggle case-sensitive search
	window.addEventListener("keydown",function (e) {
		if (e.keyCode === 114 || (e.ctrlKey && e.keyCode === 70)) {
			e.preventDefault();
			search_prompt();
		}
		else if (e.ctrlKey && e.keyCode === 73) {
			e.preventDefault();
			toggle_ignorecase();
		}
	}, false)

	// functions
	function get_params() {
		var params = {};
		var paramsarr = window.location.search.substr(1).split('&');
		for (var i = 0; i < paramsarr.length; ++i) {
			var tmp = paramsarr[i].split("=");
			if (!tmp[0] || !tmp[1]) continue;
			params[tmp[0]]  = decodeURIComponent(tmp[1]);
		}
		return params;
	}
	function parse_params(params) {
		var uri = "?";
		for (var key in params) {
			uri += key + '=' + encodeURIComponent(params[key]) + '&';
		}
		if (uri.slice(-1) == "&")
			uri = uri.substring(0, uri.length - 1);
		if (uri == '?')
			uri = window.location.href.split('?')[0];
		return uri;
	}
	function find_child(node, selector) {
		var children = node.querySelectorAll(selector);
		if (children.length) return children[0];
	}
	function find_group(node) {
		var parent = node.parentElement;
		if (!parent) return;
		if (parent.id == "frames") return node;
		return find_group(parent);
	}
	function orig_save(e, attr, val) {
		if (e.attributes["_orig_" + attr] != undefined) return;
		if (e.attributes[attr] == undefined) return;
		if (val == undefined) val = e.attributes[attr].value;
		e.setAttribute("_orig_" + attr, val);
	}
	function orig_load(e, attr) {
		if (e.attributes["_orig_"+attr] == undefined) return;
		e.attributes[attr].value = e.attributes["_orig_" + attr].value;
		e.removeAttribute("_orig_"+attr);
	}
	function g_to_text(e) {
		var text = find_child(e, "title").firstChild.nodeValue;
		return (text)
	}
	function g_to_func(e) {
		var func = g_to_text(e);
		// if there's any manipulation we want to do to the function
		// name before it's searched, do it here before returning.
		return (func);
	}
	function update_text(e) {
		var r = find_child(e, "rect");
		var t = find_child(e, "text");
		var w = parseFloat(r.attributes.width.value) -3;
		var txt = find_child(e, "title").textContent.replace(/\([^(]*\)$/,"");
		t.attributes.x.value = parseFloat(r.attributes.x.value) + 3;

		// Smaller than this size won't fit anything
		if (w < 2 * 12 * 0.59) {
			t.textContent = "";
			return;
		}

		t.textContent = txt;
		var sl = t.getSubStringLength(0, txt.length);
		// check if only whitespace or if we can fit the entire string into width w
		if (/^ *$/.test(txt) || sl < w)
			return;

		// this isn't perfect, but gives a good starting point
		// and avoids calling getSubStringLength too often
		var start = Math.floor((w/sl) * txt.length);
		for (var x = start; x > 0; x = x-2) {
			if (t.getSubStringLength(0, x + 2) <= w) {
				t.textContent = txt.substring(0, x) + "..";
				return;
			}
		}
		t.textContent = "";
	}

	// zoom
	function zoom_reset(e) {
		if (e.attributes != undefined) {
			orig_load(e, "x");
			orig_load(e, "width");
		}
		if (e.childNodes == undefined) return;
		for (var i = 0, c = e.childNodes; i < c.length; i++) {
			zoom_reset(c[i]);
		}
	}
	function zoom_child(e, x, ratio) {
		if (e.attributes != undefined) {
			if (e.attributes.x != undefined) {
				orig_save(e, "x");
				e.attributes.x.value = (parseFloat(e.attributes.x.value) - x - 10) * ratio + 10;
				if (e.tagName == "text")
					e.attributes.x.value = find_child(e.parentNode, "rect[x]").attributes.x.value + 3;
			}
			if (e.attributes.width != undefined) {
				orig_save(e, "width");
				e.attributes.width.value = parseFloat(e.attributes.width.value) * ratio;
			}
		}

		if (e.childNodes == undefined) return;
		for (var i = 0, c = e.childNodes; i < c.length; i++) {
			zoom_child(c[i], x - 10, ratio);
		}
	}
	function zoom_parent(e) {
		if (e.attributes) {
			if (e.attributes.x != undefined) {
				orig_save(e, "x");
				e.attributes.x.value = 10;
			}
			if (e.attributes.width != undefined) {
				orig_save(e, "width");
				e.attributes.width.value = parseInt(svg.width.baseVal.value) - (10 * 2);
			}
		}
		if (e.childNodes == undefined) return;
		for (var i = 0, c = e.childNodes; i < c.length; i++) {
			zoom_parent(c[i]);
		}
	}
	function zoom(node) {
		var attr = find_child(node, "rect").attributes;
		var width = parseFloat(attr.width.value);
		var xmin = parseFloat(attr.x.value);
		var xmax = parseFloat(xmin + width);
		var ymin = parseFloat(attr.y.value);
		var ratio = (svg.width.baseVal.value - 2 * 10) / width;

		// XXX: Workaround for JavaScript float issues (fix me)
		var fudge = 0.0001;

		unzoombtn.classList.remove("hide");

		var el = document.getElementById("frames").children;
		for (var i = 0; i < el.length; i++) {
			var e = el[i];
			var a = find_child(e, "rect").attributes;
			var ex = parseFloat(a.x.value);
			var ew = parseFloat(a.width.value);
			var upstack;
			// Is it an ancestor
			if (0 == 0) {
				upstack = parseFloat(a.y.value) > ymin;
			} else {
				upstack = parseFloat(a.y.value) < ymin;
			}
			if (upstack) {
				// Direct ancestor
				if (ex <= xmin && (ex+ew+fudge) >= xmax) {
					e.classList.add("parent");
					zoom_parent(e);
					update_text(e);
				}
				// not in current path
				else
					e.classList.add("hide");
			}
			// Children maybe
			else {
				// no common path
				if (ex < xmin || ex + fudge >= xmax) {
					e.classList.add("hide");
				}
				else {
					zoom_child(e, xmin, ratio);
					update_text(e);
				}
			}
		}
		search();
	}
	function unzoom(dont_update_text) {
		unzoombtn.classList.add("hide");
		var el = document.getElementById("frames").children;
		for(var i = 0; i < el.length; i++) {
			el[i].classList.remove("parent");
			el[i].classList.remove("hide");
			zoom_reset(el[i]);
			if(!dont_update_text) update_text(el[i]);
		}
		search();
	}
	function clearzoom() {
		unzoom();

		// remove zoom state
		var params = get_params();
		if (params.x) delete params.x;
		if (params.y) delete params.y;
		history.replaceState(null, null, parse_params(params));
	}

	// search
	function toggle_ignorecase() {
		ignorecase = !ignorecase;
		if (ignorecase) {
			ignorecaseBtn.classList.add("show");
		} else {
			ignorecaseBtn.classList.remove("show");
		}
		reset_search();
		search();
	}
	function reset_search() {
		var el = document.querySelectorAll("#frames rect");
		for (var i = 0; i < el.length; i++) {
			orig_load(el[i], "fill")
		}
		var params = get_params();
		delete params.s;
		history.replaceState(null, null, parse_params(params));
	}
	function search_prompt() {
		if (!searching) {
			var term = prompt("Enter a search term (regexp " +
			    "allowed, eg: ^ext4_)"
			    + (ignorecase ? ", ignoring case" : "")
			    + "\nPress Ctrl-i to toggle case sensitivity", "");
			if (term != null) search(term);
		} else {
			reset_search();
			searching = 0;
			currentSearchTerm = null;
			searchbtn.classList.remove("show");
			searchbtn.firstChild.nodeValue = "Search"
			matchedtxt.classList.add("hide");
			matchedtxt.firstChild.nodeValue = ""
		}
	}
	function search(term) {
		if (term) currentSearchTerm = term;
		if (currentSearchTerm === null) return;

		var re = new RegExp(currentSearchTerm, ignorecase ? 'i' : '');
		var el = document.getElementById("frames").children;
		var matches = new Object();
		var maxwidth = 0;
		for (var i = 0; i < el.length; i++) {
			var e = el[i];
			var func = g_to_func(e);
			var rect = find_child(e, "rect");
			if (func == null || rect == null)
				continue;

			// Save max width. Only works as we have a root frame
			var w = parseFloat(rect.attributes.width.value);
			if (w > maxwidth)
				maxwidth = w;

			if (func.match(re)) {
				// highlight
				var x = parseFloat(rect.attributes.x.value);
				orig_save(rect, "fill");
				rect.attributes.fill.value = "rgb(230,0,230)";

				// remember matches
				if (matches[x] == undefined) {
					matches[x] = w;
				} else {
					if (w > matches[x]) {
						// overwrite with parent
						matches[x] = w;
					}
				}
				searching = 1;
			}
		}
		if (!searching)
			return;
		var params = get_params();
		params.s = currentSearchTerm;
		history.replaceState(null, null, parse_params(params));

		searchbtn.classList.add("show");
		searchbtn.firstChild.nodeValue = "Reset Search";

		// calculate percent matched, excluding vertical overlap
		var count = 0;
		var lastx = -1;
		var lastw = 0;
		var keys = Array();
		for (k in matches) {
			if (matches.hasOwnProperty(k))
				keys.push(k);
		}
		// sort the matched frames by their x location
		// ascending, then width descending
		keys.sort(function(a, b){
			return a - b;
		});
		// Step through frames saving only the biggest bottom-up frames
		// thanks to the sort order. This relies on the tree property
		// where children are always smaller than their parents.
		var fudge = 0.0001;	// JavaScript floating point
		for (var k in keys) {
			var x = parseFloat(keys[k]);
			var w = matches[keys[k]];
			if (x >= lastx + lastw - fudge) {
				count += w;
				lastx = x;
				lastw = w;
			}
		}
		// display matched percent
		matchedtxt.classList.remove("hide");
		var pct = 100 * count / maxwidth;
		if (pct != 100) pct = pct.toFixed(1)
		matchedtxt.firstChild.nodeValue = "Matched: " + pct + "%";
	}
]]>
</script>
<rect x="0.0" y="0" width="1200.0" height="374.0" fill="url(#background)"  />
<text id="title" x="600.00" y="24" >Flame Graph</text>
<text id="details" x="10.00" y="357" > </text>
<text id="unzoom" x="10.00" y="24" class="hide">Reset Zoom</text>
<text id="search" x="1090.00" y="24" >Search</text>
<text id="ignorecase" x="1174.00" y="24" >ic</text>
<text id="matched" x="1090.00" y="357" > </text>
<g id="frames">
<g >
<title>core::slice::sort::shared::smallsort::sort4_stable (5,961,475,361 samples, 0.29%)</title><rect x="23.4" y="293" width="3.4" height="15.0" fill="rgb(226,99,23)" rx="2" ry="2" />
<text  x="26.41" y="303.5" ></text>
</g>
<g >
<title>core::slice::sort::unstable::quicksort::quicksort (138,507,577,568 samples, 6.64%)</title><rect x="30.0" y="293" width="78.4" height="15.0" fill="rgb(215,47,11)" rx="2" ry="2" />
<text  x="32.99" y="303.5" >core::sli..</text>
</g>
<g >
<title>__x64_sys_munmap (1,233,215,128 samples, 0.06%)</title><rect x="10.3" y="181" width="0.7" height="15.0" fill="rgb(206,7,1)" rx="2" ry="2" />
<text  x="13.34" y="191.5" ></text>
</g>
<g >
<title>&lt;serde_json::de::SeqAccess&lt;R&gt; as serde_core::de::SeqAccess&gt;::next_element_seed (1,715,816,658 samples, 0.08%)</title><rect x="13.6" y="277" width="0.9" height="15.0" fill="rgb(253,222,53)" rx="2" ry="2" />
<text  x="16.55" y="287.5" ></text>
</g>
<g >
<title>__mem_cgroup_charge (1,550,009,255 samples, 0.07%)</title><rect x="1176.8" y="165" width="0.9" height="15.0" fill="rgb(218,60,14)" rx="2" ry="2" />
<text  x="1179.79" y="175.5" ></text>
</g>
<g >
<title>handle_pte_fault (344,417,977 samples, 0.02%)</title><rect x="16.2" y="181" width="0.2" height="15.0" fill="rgb(217,57,13)" rx="2" ry="2" />
<text  x="19.23" y="191.5" ></text>
</g>
<g >
<title>unmap_page_range (634,186,733 samples, 0.03%)</title><rect x="10.7" y="69" width="0.3" height="15.0" fill="rgb(206,5,1)" rx="2" ry="2" />
<text  x="13.68" y="79.5" ></text>
</g>
<g >
<title>&lt;serde_core::de::impls::&lt;impl serde_core::de::Deserialize for alloc::vec::Vec&lt;T&gt;&gt;::deserialize::VecVisitor&lt;T&gt; as serde_core::de::Visitor&gt;::visit_seq (582,159,405 samples, 0.03%)</title><rect x="13.2" y="277" width="0.4" height="15.0" fill="rgb(214,45,10)" rx="2" ry="2" />
<text  x="16.22" y="287.5" ></text>
</g>
<g >
<title>&lt;&amp;mio::net::tcp::stream::TcpStream as std::io::Write&gt;::write_vectored (221,035,434 samples, 0.01%)</title><rect x="16.5" y="261" width="0.1" height="15.0" fill="rgb(238,152,36)" rx="2" ry="2" />
<text  x="19.45" y="271.5" ></text>
</g>
<g >
<title>zap_pmd_range.isra.0 (598,951,571 samples, 0.03%)</title><rect x="10.7" y="53" width="0.3" height="15.0" fill="rgb(244,180,43)" rx="2" ry="2" />
<text  x="13.68" y="63.5" ></text>
</g>
<g >
<title>core::slice::sort::shared::pivot::median3_rec (1,756,236,411 samples, 0.08%)</title><rect x="22.4" y="293" width="1.0" height="15.0" fill="rgb(218,62,14)" rx="2" ry="2" />
<text  x="25.41" y="303.5" ></text>
</g>
<g >
<title>folio_batch_move_lru (352,126,800 samples, 0.02%)</title><rect x="1178.9" y="133" width="0.2" height="15.0" fill="rgb(207,10,2)" rx="2" ry="2" />
<text  x="1181.86" y="143.5" ></text>
</g>
<g >
<title>update_process_times (13,163,377,024 samples, 0.63%)</title><rect x="1181.1" y="165" width="7.5" height="15.0" fill="rgb(250,209,50)" rx="2" ry="2" />
<text  x="1184.12" y="175.5" ></text>
</g>
<g >
<title>hrtimer_interrupt (15,224,041,432 samples, 0.73%)</title><rect x="1180.5" y="229" width="8.6" height="15.0" fill="rgb(228,109,26)" rx="2" ry="2" />
<text  x="1183.50" y="239.5" ></text>
</g>
<g >
<title>&lt;&amp;std::os::unix::net::stream::UnixStream as std::io::Write&gt;::write_vectored (185,813,622 samples, 0.01%)</title><rect x="16.5" y="245" width="0.1" height="15.0" fill="rgb(225,93,22)" rx="2" ry="2" />
<text  x="19.45" y="255.5" ></text>
</g>
<g >
<title>do_anonymous_page (4,827,220,503 samples, 0.23%)</title><rect x="1176.7" y="181" width="2.7" height="15.0" fill="rgb(238,155,37)" rx="2" ry="2" />
<text  x="1179.69" y="191.5" ></text>
</g>
<g >
<title>perf_adjust_freq_unthr_context (9,952,892,753 samples, 0.48%)</title><rect x="1181.9" y="117" width="5.6" height="15.0" fill="rgb(236,146,35)" rx="2" ry="2" />
<text  x="1184.86" y="127.5" ></text>
</g>
<g >
<title>_ZN9hashbrown3map28HashMap$LT$K$C$V$C$S$C$A$GT$6insert17h8e8c19612877736eE.llvm.3539773618105576604 (529,229,266 samples, 0.03%)</title><rect x="17.8" y="277" width="0.3" height="15.0" fill="rgb(231,123,29)" rx="2" ry="2" />
<text  x="20.82" y="287.5" ></text>
</g>
<g >
<title>clockevents_program_event (317,259,697 samples, 0.02%)</title><rect x="1188.9" y="197" width="0.2" height="15.0" fill="rgb(244,182,43)" rx="2" ry="2" />
<text  x="1191.94" y="207.5" ></text>
</g>
<g >
<title>simple_copy_to_iter (349,860,484 samples, 0.02%)</title><rect x="10.1" y="69" width="0.2" height="15.0" fill="rgb(228,110,26)" rx="2" ry="2" />
<text  x="13.07" y="79.5" ></text>
</g>
<g >
<title>folio_add_lru_vma (422,579,623 samples, 0.02%)</title><rect x="1178.8" y="165" width="0.3" height="15.0" fill="rgb(252,216,51)" rx="2" ry="2" />
<text  x="1181.84" y="175.5" ></text>
</g>
<g >
<title>sysvec_apic_timer_interrupt (811,324,206 samples, 0.04%)</title><rect x="107.9" y="261" width="0.5" height="15.0" fill="rgb(220,69,16)" rx="2" ry="2" />
<text  x="110.93" y="271.5" ></text>
</g>
<g >
<title>irqentry_exit (281,870,681 samples, 0.01%)</title><rect x="1189.3" y="245" width="0.2" height="15.0" fill="rgb(219,66,15)" rx="2" ry="2" />
<text  x="1192.34" y="255.5" ></text>
</g>
<g >
<title>get_page_from_freelist (1,410,135,230 samples, 0.07%)</title><rect x="1178.0" y="101" width="0.8" height="15.0" fill="rgb(252,218,52)" rx="2" ry="2" />
<text  x="1181.03" y="111.5" ></text>
</g>
<g >
<title>entry_SYSCALL_64_after_hwframe (1,233,215,128 samples, 0.06%)</title><rect x="10.3" y="229" width="0.7" height="15.0" fill="rgb(218,63,15)" rx="2" ry="2" />
<text  x="13.34" y="239.5" ></text>
</g>
<g >
<title>rmqueue (353,259,082 samples, 0.02%)</title><rect x="1178.6" y="85" width="0.2" height="15.0" fill="rgb(226,98,23)" rx="2" ry="2" />
<text  x="1181.62" y="95.5" ></text>
</g>
<g >
<title>update_curr (422,602,505 samples, 0.02%)</title><rect x="1187.7" y="117" width="0.2" height="15.0" fill="rgb(227,105,25)" rx="2" ry="2" />
<text  x="1190.70" y="127.5" ></text>
</g>
<g >
<title>handle_mm_fault (6,143,481,568 samples, 0.29%)</title><rect x="1176.2" y="229" width="3.5" height="15.0" fill="rgb(234,135,32)" rx="2" ry="2" />
<text  x="1179.23" y="239.5" ></text>
</g>
<g >
<title>irq_exit_rcu (211,404,477 samples, 0.01%)</title><rect x="1189.2" y="245" width="0.1" height="15.0" fill="rgb(254,227,54)" rx="2" ry="2" />
<text  x="1192.22" y="255.5" ></text>
</g>
<g >
<title>do_anonymous_page (331,231,604 samples, 0.02%)</title><rect x="16.2" y="165" width="0.2" height="15.0" fill="rgb(238,155,37)" rx="2" ry="2" />
<text  x="19.23" y="175.5" ></text>
</g>
<g >
<title>serde_json::de::Deserializer&lt;R&gt;::parse_integer (762,005,146 samples, 0.04%)</title><rect x="110.4" y="293" width="0.5" height="15.0" fill="rgb(228,107,25)" rx="2" ry="2" />
<text  x="113.44" y="303.5" ></text>
</g>
<g >
<title>tick_nohz_highres_handler (13,940,561,698 samples, 0.67%)</title><rect x="1180.7" y="197" width="7.9" height="15.0" fill="rgb(215,50,11)" rx="2" ry="2" />
<text  x="1183.68" y="207.5" ></text>
</g>
<g >
<title>&lt;serde_path_to_error::de::TrackedSeed&lt;X&gt; as serde_core::de::DeserializeSeed&gt;::deserialize (253,584,741 samples, 0.01%)</title><rect x="16.7" y="261" width="0.1" height="15.0" fill="rgb(209,22,5)" rx="2" ry="2" />
<text  x="19.66" y="271.5" ></text>
</g>
<g >
<title>handle_pte_fault (5,508,349,244 samples, 0.26%)</title><rect x="1176.5" y="197" width="3.1" height="15.0" fill="rgb(217,57,13)" rx="2" ry="2" />
<text  x="1179.53" y="207.5" ></text>
</g>
<g >
<title>ktime_get (246,644,119 samples, 0.01%)</title><rect x="1180.7" y="181" width="0.1" height="15.0" fill="rgb(207,10,2)" rx="2" ry="2" />
<text  x="1183.68" y="191.5" ></text>
</g>
<g >
<title>__x64_sys_recvfrom (552,640,235 samples, 0.03%)</title><rect x="10.0" y="197" width="0.3" height="15.0" fill="rgb(224,88,21)" rx="2" ry="2" />
<text  x="13.02" y="207.5" ></text>
</g>
<g >
<title>entry_SYSCALL_64_after_hwframe (593,518,146 samples, 0.03%)</title><rect x="10.0" y="245" width="0.3" height="15.0" fill="rgb(218,63,15)" rx="2" ry="2" />
<text  x="13.00" y="255.5" ></text>
</g>
<g >
<title>mem_cgroup_commit_charge (528,360,445 samples, 0.03%)</title><rect x="1177.2" y="149" width="0.3" height="15.0" fill="rgb(239,158,37)" rx="2" ry="2" />
<text  x="1180.23" y="159.5" ></text>
</g>
<g >
<title>serde_json::de::Deserializer&lt;R&gt;::parse_decimal (346,396,729 samples, 0.02%)</title><rect x="20.8" y="277" width="0.2" height="15.0" fill="rgb(228,108,25)" rx="2" ry="2" />
<text  x="23.79" y="287.5" ></text>
</g>
<g >
<title>[libc.so.6] (660,763,023 samples, 0.03%)</title><rect x="16.1" y="277" width="0.4" height="15.0" fill="rgb(223,84,20)" rx="2" ry="2" />
<text  x="19.08" y="287.5" ></text>
</g>
<g >
<title>sync_regs (634,514,016 samples, 0.03%)</title><rect x="1189.6" y="277" width="0.4" height="15.0" fill="rgb(228,106,25)" rx="2" ry="2" />
<text  x="1192.64" y="287.5" ></text>
</g>
<g >
<title>__lruvec_stat_mod_folio (317,090,159 samples, 0.02%)</title><rect x="1179.1" y="149" width="0.2" height="15.0" fill="rgb(246,191,45)" rx="2" ry="2" />
<text  x="1182.12" y="159.5" ></text>
</g>
<g >
<title>get_mem_cgroup_from_mm (704,585,103 samples, 0.03%)</title><rect x="1176.8" y="149" width="0.4" height="15.0" fill="rgb(218,61,14)" rx="2" ry="2" />
<text  x="1179.83" y="159.5" ></text>
</g>
<g >
<title>_ZN80_$LT$serde_json..de..SeqAccess$LT$R$GT$$u20$as$u20$serde_core..de..SeqAccess$GT$17next_element_seed16has_next_element17h087e193fb1d70ce3E.llvm.1355582495623327245 (1,515,204,202 samples, 0.07%)</title><rect x="17.0" y="277" width="0.8" height="15.0" fill="rgb(232,124,29)" rx="2" ry="2" />
<text  x="19.97" y="287.5" ></text>
</g>
<g >
<title>&lt;axum::json::Json&lt;T&gt; as axum_core::response::into_response::IntoResponse&gt;::into_response (1,233,215,128 samples, 0.06%)</title><rect x="10.3" y="293" width="0.7" height="15.0" fill="rgb(236,145,34)" rx="2" ry="2" />
<text  x="13.34" y="303.5" ></text>
</g>
<g >
<title>asm_exc_page_fault (8,282,760,919 samples, 0.40%)</title><rect x="1175.3" y="277" width="4.6" height="15.0" fill="rgb(225,93,22)" rx="2" ry="2" />
<text  x="1178.26" y="287.5" ></text>
</g>
<g >
<title>rep_movs_alternative (268,315,831 samples, 0.01%)</title><rect x="10.1" y="53" width="0.2" height="15.0" fill="rgb(205,1,0)" rx="2" ry="2" />
<text  x="13.10" y="63.5" ></text>
</g>
<g >
<title>do_syscall_64 (1,233,215,128 samples, 0.06%)</title><rect x="10.3" y="213" width="0.7" height="15.0" fill="rgb(209,20,4)" rx="2" ry="2" />
<text  x="13.34" y="223.5" ></text>
</g>
<g >
<title>do_vmi_munmap (1,233,215,128 samples, 0.06%)</title><rect x="10.3" y="149" width="0.7" height="15.0" fill="rgb(253,223,53)" rx="2" ry="2" />
<text  x="13.34" y="159.5" ></text>
</g>
<g >
<title>entry_SYSCALL_64_after_hwframe (185,813,622 samples, 0.01%)</title><rect x="16.5" y="213" width="0.1" height="15.0" fill="rgb(218,63,15)" rx="2" ry="2" />
<text  x="19.45" y="223.5" ></text>
</g>
<g >
<title>tcp_recvmsg_locked (493,545,740 samples, 0.02%)</title><rect x="10.1" y="117" width="0.2" height="15.0" fill="rgb(226,100,24)" rx="2" ry="2" />
<text  x="13.06" y="127.5" ></text>
</g>
<g >
<title>tlb_batch_pages_flush (563,792,212 samples, 0.03%)</title><rect x="10.4" y="85" width="0.3" height="15.0" fill="rgb(234,133,32)" rx="2" ry="2" />
<text  x="13.36" y="95.5" ></text>
</g>
<g >
<title>tokio-runtime-w (2,084,859,883,737 samples, 100.00%)</title><rect x="10.0" y="309" width="1180.0" height="15.0" fill="rgb(223,84,20)" rx="2" ry="2" />
<text  x="13.00" y="319.5" >tokio-runtime-w</text>
</g>
<g >
<title>handle_mm_fault (357,620,132 samples, 0.02%)</title><rect x="16.2" y="213" width="0.2" height="15.0" fill="rgb(234,135,32)" rx="2" ry="2" />
<text  x="19.23" y="223.5" ></text>
</g>
<g >
<title>[unknown] (17,302,659,986 samples, 0.83%)</title><rect x="11.7" y="293" width="9.8" height="15.0" fill="rgb(210,24,5)" rx="2" ry="2" />
<text  x="14.72" y="303.5" ></text>
</g>
<g >
<title>_raw_spin_lock (246,632,360 samples, 0.01%)</title><rect x="1176.6" y="181" width="0.1" height="15.0" fill="rgb(239,160,38)" rx="2" ry="2" />
<text  x="1179.55" y="191.5" ></text>
</g>
<g >
<title>exc_page_fault (6,858,341,893 samples, 0.33%)</title><rect x="1176.1" y="261" width="3.8" height="15.0" fill="rgb(212,35,8)" rx="2" ry="2" />
<text  x="1179.06" y="271.5" ></text>
</g>
<g >
<title>&lt;serde_path_to_error::de::TrackedSeed&lt;X&gt; as serde_core::de::DeserializeSeed&gt;::deserialize (637,295,648 samples, 0.03%)</title><rect x="11.3" y="293" width="0.4" height="15.0" fill="rgb(209,22,5)" rx="2" ry="2" />
<text  x="14.35" y="303.5" ></text>
</g>
<g >
<title>exc_page_fault (369,712,150 samples, 0.02%)</title><rect x="16.2" y="245" width="0.2" height="15.0" fill="rgb(212,35,8)" rx="2" ry="2" />
<text  x="19.23" y="255.5" ></text>
</g>
<g >
<title>__irq_exit_rcu (211,404,477 samples, 0.01%)</title><rect x="1189.2" y="229" width="0.1" height="15.0" fill="rgb(227,101,24)" rx="2" ry="2" />
<text  x="1192.22" y="239.5" ></text>
</g>
<g >
<title>inet_recvmsg (552,640,235 samples, 0.03%)</title><rect x="10.0" y="149" width="0.3" height="15.0" fill="rgb(206,5,1)" rx="2" ry="2" />
<text  x="13.02" y="159.5" ></text>
</g>
<g >
<title>[libc.so.6] (1,233,215,128 samples, 0.06%)</title><rect x="10.3" y="261" width="0.7" height="15.0" fill="rgb(223,84,20)" rx="2" ry="2" />
<text  x="13.34" y="271.5" ></text>
</g>
<g >
<title>&lt;&amp;mut serde_json::de::Deserializer&lt;R&gt; as serde_core::de::Deserializer&gt;::deserialize_f32 (2,576,734,196 samples, 0.12%)</title><rect x="11.7" y="277" width="1.5" height="15.0" fill="rgb(241,169,40)" rx="2" ry="2" />
<text  x="14.72" y="287.5" ></text>
</g>
<g >
<title>perf_adjust_freq_unthr_context (564,766,038 samples, 0.03%)</title><rect x="107.9" y="117" width="0.3" height="15.0" fill="rgb(236,146,35)" rx="2" ry="2" />
<text  x="110.93" y="127.5" ></text>
</g>
<g >
<title>tcp_recvmsg (552,640,235 samples, 0.03%)</title><rect x="10.0" y="133" width="0.3" height="15.0" fill="rgb(234,135,32)" rx="2" ry="2" />
<text  x="13.02" y="143.5" ></text>
</g>
<g >
<title>alloc_pages_mpol (1,551,062,071 samples, 0.07%)</title><rect x="1177.9" y="133" width="0.9" height="15.0" fill="rgb(254,227,54)" rx="2" ry="2" />
<text  x="1180.95" y="143.5" ></text>
</g>
<g >
<title>folio_prep_large_rmappable (281,850,302 samples, 0.01%)</title><rect x="1177.8" y="149" width="0.1" height="15.0" fill="rgb(215,46,11)" rx="2" ry="2" />
<text  x="1180.79" y="159.5" ></text>
</g>
<g >
<title>task_tick_fair (1,446,534,385 samples, 0.07%)</title><rect x="1187.5" y="133" width="0.9" height="15.0" fill="rgb(217,57,13)" rx="2" ry="2" />
<text  x="1190.54" y="143.5" ></text>
</g>
<g >
<title>asm_sysvec_apic_timer_interrupt (16,914,227,223 samples, 0.81%)</title><rect x="1179.9" y="277" width="9.6" height="15.0" fill="rgb(232,127,30)" rx="2" ry="2" />
<text  x="1182.95" y="287.5" ></text>
</g>
<g >
<title>tick_sched_handle (705,627,388 samples, 0.03%)</title><rect x="107.9" y="181" width="0.4" height="15.0" fill="rgb(219,68,16)" rx="2" ry="2" />
<text  x="110.93" y="191.5" ></text>
</g>
<g >
<title>do_user_addr_fault (6,670,598,769 samples, 0.32%)</title><rect x="1176.1" y="245" width="3.8" height="15.0" fill="rgb(228,108,25)" rx="2" ry="2" />
<text  x="1179.09" y="255.5" ></text>
</g>
<g >
<title>core::hash::BuildHasher::hash_one (192,581,563 samples, 0.01%)</title><rect x="18.3" y="277" width="0.1" height="15.0" fill="rgb(250,209,50)" rx="2" ry="2" />
<text  x="21.26" y="287.5" ></text>
</g>
<g >
<title>tick_nohz_highres_handler (705,627,388 samples, 0.03%)</title><rect x="107.9" y="197" width="0.4" height="15.0" fill="rgb(215,50,11)" rx="2" ry="2" />
<text  x="110.93" y="207.5" ></text>
</g>
<g >
<title>__hrtimer_run_queues (14,091,673,488 samples, 0.68%)</title><rect x="1180.6" y="213" width="8.0" height="15.0" fill="rgb(237,150,35)" rx="2" ry="2" />
<text  x="1183.60" y="223.5" ></text>
</g>
<g >
<title>_ZN5alloc7raw_vec11finish_grow17hbd73bd63ab428510E.llvm.16459164039633511558 (1,290,368,093 samples, 0.06%)</title><rect x="21.5" y="293" width="0.8" height="15.0" fill="rgb(247,193,46)" rx="2" ry="2" />
<text  x="24.54" y="303.5" ></text>
</g>
<g >
<title>hrtimer_interrupt (811,324,206 samples, 0.04%)</title><rect x="107.9" y="229" width="0.5" height="15.0" fill="rgb(228,109,26)" rx="2" ry="2" />
<text  x="110.93" y="239.5" ></text>
</g>
<g >
<title>update_load_avg (635,247,434 samples, 0.03%)</title><rect x="1187.9" y="117" width="0.4" height="15.0" fill="rgb(240,165,39)" rx="2" ry="2" />
<text  x="1190.94" y="127.5" ></text>
</g>
<g >
<title>sysvec_apic_timer_interrupt (16,071,734,324 samples, 0.77%)</title><rect x="1180.4" y="261" width="9.1" height="15.0" fill="rgb(220,69,16)" rx="2" ry="2" />
<text  x="1183.42" y="271.5" ></text>
</g>
<g >
<title>&lt;&amp;mio::net::tcp::stream::TcpStream as std::io::Read&gt;::read (593,518,146 samples, 0.03%)</title><rect x="10.0" y="293" width="0.3" height="15.0" fill="rgb(254,229,54)" rx="2" ry="2" />
<text  x="13.00" y="303.5" ></text>
</g>
<g >
<title>x64_sys_call (567,642,993 samples, 0.03%)</title><rect x="10.0" y="213" width="0.3" height="15.0" fill="rgb(247,194,46)" rx="2" ry="2" />
<text  x="13.01" y="223.5" ></text>
</g>
<g >
<title>__vm_munmap (1,233,215,128 samples, 0.06%)</title><rect x="10.3" y="165" width="0.7" height="15.0" fill="rgb(231,121,28)" rx="2" ry="2" />
<text  x="13.34" y="175.5" ></text>
</g>
<g >
<title>do_syscall_64 (185,813,622 samples, 0.01%)</title><rect x="16.5" y="197" width="0.1" height="15.0" fill="rgb(209,20,4)" rx="2" ry="2" />
<text  x="19.45" y="207.5" ></text>
</g>
<g >
<title>timekeeping_advance (248,725,634 samples, 0.01%)</title><rect x="1181.0" y="133" width="0.1" height="15.0" fill="rgb(227,104,25)" rx="2" ry="2" />
<text  x="1183.98" y="143.5" ></text>
</g>
<g >
<title>[libc.so.6] (943,162,392 samples, 0.05%)</title><rect x="21.7" y="261" width="0.6" height="15.0" fill="rgb(223,84,20)" rx="2" ry="2" />
<text  x="24.73" y="271.5" ></text>
</g>
<g >
<title>scheduler_tick (12,282,082,915 samples, 0.59%)</title><rect x="1181.6" y="149" width="7.0" height="15.0" fill="rgb(246,190,45)" rx="2" ry="2" />
<text  x="1184.62" y="159.5" ></text>
</g>
<g >
<title>sock_recvmsg (552,640,235 samples, 0.03%)</title><rect x="10.0" y="165" width="0.3" height="15.0" fill="rgb(206,5,1)" rx="2" ry="2" />
<text  x="13.02" y="175.5" ></text>
</g>
<g >
<title>clear_page_erms (880,728,299 samples, 0.04%)</title><rect x="1178.1" y="85" width="0.5" height="15.0" fill="rgb(229,113,27)" rx="2" ry="2" />
<text  x="1181.11" y="95.5" ></text>
</g>
<g >
<title>do_vmi_align_munmap (1,233,215,128 samples, 0.06%)</title><rect x="10.3" y="133" width="0.7" height="15.0" fill="rgb(211,29,7)" rx="2" ry="2" />
<text  x="13.34" y="143.5" ></text>
</g>
<g >
<title>free_unref_page_list (317,180,219 samples, 0.02%)</title><rect x="10.5" y="37" width="0.1" height="15.0" fill="rgb(221,77,18)" rx="2" ry="2" />
<text  x="13.46" y="47.5" ></text>
</g>
<g >
<title>scheduler_tick (670,391,754 samples, 0.03%)</title><rect x="107.9" y="149" width="0.4" height="15.0" fill="rgb(246,190,45)" rx="2" ry="2" />
<text  x="110.93" y="159.5" ></text>
</g>
<g >
<title>&lt;serde_path_to_error::de::TrackedSeed&lt;X&gt; as serde_core::de::DeserializeSeed&gt;::deserialize (2,614,431,891 samples, 0.13%)</title><rect x="14.6" y="277" width="1.5" height="15.0" fill="rgb(209,22,5)" rx="2" ry="2" />
<text  x="17.60" y="287.5" ></text>
</g>
<g >
<title>folio_add_new_anon_rmap (422,792,910 samples, 0.02%)</title><rect x="1179.1" y="165" width="0.2" height="15.0" fill="rgb(233,133,31)" rx="2" ry="2" />
<text  x="1182.08" y="175.5" ></text>
</g>
<g >
<title>handle_softirqs (211,404,477 samples, 0.01%)</title><rect x="1189.2" y="213" width="0.1" height="15.0" fill="rgb(238,156,37)" rx="2" ry="2" />
<text  x="1192.22" y="223.5" ></text>
</g>
<g >
<title>unmap_single_vma (634,186,733 samples, 0.03%)</title><rect x="10.7" y="85" width="0.3" height="15.0" fill="rgb(225,93,22)" rx="2" ry="2" />
<text  x="13.68" y="95.5" ></text>
</g>
<g >
<title>unmap_region (1,233,215,128 samples, 0.06%)</title><rect x="10.3" y="117" width="0.7" height="15.0" fill="rgb(219,64,15)" rx="2" ry="2" />
<text  x="13.34" y="127.5" ></text>
</g>
<g >
<title>zap_pte_range (563,715,416 samples, 0.03%)</title><rect x="10.7" y="37" width="0.3" height="15.0" fill="rgb(231,120,28)" rx="2" ry="2" />
<text  x="13.70" y="47.5" ></text>
</g>
<g >
<title>vma_alloc_folio (1,586,292,634 samples, 0.08%)</title><rect x="1177.9" y="149" width="0.9" height="15.0" fill="rgb(245,187,44)" rx="2" ry="2" />
<text  x="1180.95" y="159.5" ></text>
</g>
<g >
<title>[unknown] (840,831,582 samples, 0.04%)</title><rect x="16.5" y="277" width="0.4" height="15.0" fill="rgb(210,24,5)" rx="2" ry="2" />
<text  x="19.45" y="287.5" ></text>
</g>
<g >
<title>perf_event_task_tick (10,059,720,030 samples, 0.48%)</title><rect x="1181.8" y="133" width="5.7" height="15.0" fill="rgb(205,3,0)" rx="2" ry="2" />
<text  x="1184.84" y="143.5" ></text>
</g>
<g >
<title>[libc.so.6] (722,075,357 samples, 0.03%)</title><rect x="21.8" y="245" width="0.4" height="15.0" fill="rgb(223,84,20)" rx="2" ry="2" />
<text  x="24.82" y="255.5" ></text>
</g>
<g >
<title>&lt;&amp;std::os::unix::net::stream::UnixStream as std::io::Read&gt;::read (593,518,146 samples, 0.03%)</title><rect x="10.0" y="277" width="0.3" height="15.0" fill="rgb(241,169,40)" rx="2" ry="2" />
<text  x="13.00" y="287.5" ></text>
</g>
<g >
<title>update_process_times (705,627,388 samples, 0.03%)</title><rect x="107.9" y="165" width="0.4" height="15.0" fill="rgb(250,209,50)" rx="2" ry="2" />
<text  x="110.93" y="175.5" ></text>
</g>
<g >
<title>realloc (1,226,460,041 samples, 0.06%)</title><rect x="21.6" y="277" width="0.7" height="15.0" fill="rgb(246,189,45)" rx="2" ry="2" />
<text  x="24.57" y="287.5" ></text>
</g>
<g >
<title>x86_pmu_enable (211,406,454 samples, 0.01%)</title><rect x="1187.4" y="101" width="0.1" height="15.0" fill="rgb(244,179,43)" rx="2" ry="2" />
<text  x="1190.38" y="111.5" ></text>
</g>
<g >
<title>tick_do_update_jiffies64 (283,957,414 samples, 0.01%)</title><rect x="1181.0" y="165" width="0.1" height="15.0" fill="rgb(208,14,3)" rx="2" ry="2" />
<text  x="1183.96" y="175.5" ></text>
</g>
<g >
<title>tick_sched_handle (13,163,377,024 samples, 0.63%)</title><rect x="1181.1" y="181" width="7.5" height="15.0" fill="rgb(219,68,16)" rx="2" ry="2" />
<text  x="1184.12" y="191.5" ></text>
</g>
<g >
<title>&lt;serde_core::de::impls::&lt;impl serde_core::de::Deserialize for alloc::vec::Vec&lt;T&gt;&gt;::deserialize::VecVisitor&lt;T&gt; as serde_core::de::Visitor&gt;::visit_seq (340,760,883 samples, 0.02%)</title><rect x="11.1" y="293" width="0.2" height="15.0" fill="rgb(214,45,10)" rx="2" ry="2" />
<text  x="14.08" y="303.5" ></text>
</g>
<g >
<title>core::slice::sort::shared::smallsort::sort8_stable (5,676,369,732 samples, 0.27%)</title><rect x="26.8" y="293" width="3.2" height="15.0" fill="rgb(250,210,50)" rx="2" ry="2" />
<text  x="29.78" y="303.5" ></text>
</g>
<g >
<title>serde_json::de::Deserializer&lt;R&gt;::parse_decimal (3,279,565,171 samples, 0.16%)</title><rect x="108.6" y="293" width="1.8" height="15.0" fill="rgb(228,108,25)" rx="2" ry="2" />
<text  x="111.59" y="303.5" ></text>
</g>
<g >
<title>do_numa_page (293,570,414 samples, 0.01%)</title><rect x="1179.4" y="181" width="0.2" height="15.0" fill="rgb(208,14,3)" rx="2" ry="2" />
<text  x="1182.42" y="191.5" ></text>
</g>
<g >
<title>tlb_finish_mmu (563,792,212 samples, 0.03%)</title><rect x="10.4" y="101" width="0.3" height="15.0" fill="rgb(251,212,50)" rx="2" ry="2" />
<text  x="13.36" y="111.5" ></text>
</g>
<g >
<title>release_pages (528,553,163 samples, 0.03%)</title><rect x="10.4" y="53" width="0.3" height="15.0" fill="rgb(228,106,25)" rx="2" ry="2" />
<text  x="13.36" y="63.5" ></text>
</g>
<g >
<title>recv (593,518,146 samples, 0.03%)</title><rect x="10.0" y="261" width="0.3" height="15.0" fill="rgb(222,82,19)" rx="2" ry="2" />
<text  x="13.00" y="271.5" ></text>
</g>
<g >
<title>do_syscall_64 (581,180,020 samples, 0.03%)</title><rect x="10.0" y="229" width="0.3" height="15.0" fill="rgb(209,20,4)" rx="2" ry="2" />
<text  x="13.01" y="239.5" ></text>
</g>
<g >
<title>ktime_get_update_offsets_now (422,749,401 samples, 0.02%)</title><rect x="1188.6" y="213" width="0.2" height="15.0" fill="rgb(243,178,42)" rx="2" ry="2" />
<text  x="1191.60" y="223.5" ></text>
</g>
<g >
<title>perf_event_task_tick (564,766,038 samples, 0.03%)</title><rect x="107.9" y="133" width="0.3" height="15.0" fill="rgb(205,3,0)" rx="2" ry="2" />
<text  x="110.93" y="143.5" ></text>
</g>
<g >
<title>__rmqueue_pcplist (353,259,082 samples, 0.02%)</title><rect x="1178.6" y="69" width="0.2" height="15.0" fill="rgb(230,118,28)" rx="2" ry="2" />
<text  x="1181.62" y="79.5" ></text>
</g>
<g >
<title>account_process_tick (564,180,281 samples, 0.03%)</title><rect x="1181.2" y="149" width="0.3" height="15.0" fill="rgb(234,136,32)" rx="2" ry="2" />
<text  x="1184.16" y="159.5" ></text>
</g>
<g >
<title>__munmap (1,233,215,128 samples, 0.06%)</title><rect x="10.3" y="245" width="0.7" height="15.0" fill="rgb(211,29,7)" rx="2" ry="2" />
<text  x="13.34" y="255.5" ></text>
</g>
<g >
<title>__alloc_pages (1,515,827,645 samples, 0.07%)</title><rect x="1178.0" y="117" width="0.8" height="15.0" fill="rgb(233,129,30)" rx="2" ry="2" />
<text  x="1180.97" y="127.5" ></text>
</g>
<g >
<title>asm_exc_page_fault (539,106,247 samples, 0.03%)</title><rect x="16.1" y="261" width="0.3" height="15.0" fill="rgb(225,93,22)" rx="2" ry="2" />
<text  x="19.13" y="271.5" ></text>
</g>
<g >
<title>__sys_recvfrom (552,640,235 samples, 0.03%)</title><rect x="10.0" y="181" width="0.3" height="15.0" fill="rgb(247,197,47)" rx="2" ry="2" />
<text  x="13.02" y="191.5" ></text>
</g>
<g >
<title>unmap_vmas (634,186,733 samples, 0.03%)</title><rect x="10.7" y="101" width="0.3" height="15.0" fill="rgb(243,176,42)" rx="2" ry="2" />
<text  x="13.68" y="111.5" ></text>
</g>
<g >
<title>tick_program_event (422,951,133 samples, 0.02%)</title><rect x="1188.9" y="213" width="0.2" height="15.0" fill="rgb(241,166,39)" rx="2" ry="2" />
<text  x="1191.88" y="223.5" ></text>
</g>
<g >
<title>cfree (1,233,215,128 samples, 0.06%)</title><rect x="10.3" y="277" width="0.7" height="15.0" fill="rgb(223,86,20)" rx="2" ry="2" />
<text  x="13.34" y="287.5" ></text>
</g>
<g >
<title>do_user_addr_fault (369,712,150 samples, 0.02%)</title><rect x="16.2" y="229" width="0.2" height="15.0" fill="rgb(228,108,25)" rx="2" ry="2" />
<text  x="19.23" y="239.5" ></text>
</g>
<g >
<title>account_user_time (564,180,281 samples, 0.03%)</title><rect x="1181.2" y="133" width="0.3" height="15.0" fill="rgb(225,96,23)" rx="2" ry="2" />
<text  x="1184.16" y="143.5" ></text>
</g>
<g >
<title>alloc_anon_folio (1,903,373,292 samples, 0.09%)</title><rect x="1177.8" y="165" width="1.0" height="15.0" fill="rgb(223,86,20)" rx="2" ry="2" />
<text  x="1180.77" y="175.5" ></text>
</g>
<g >
<title>folio_add_lru (422,579,623 samples, 0.02%)</title><rect x="1178.8" y="149" width="0.3" height="15.0" fill="rgb(208,17,4)" rx="2" ry="2" />
<text  x="1181.84" y="159.5" ></text>
</g>
<g >
<title>__skb_datagram_iter (365,096,837 samples, 0.02%)</title><rect x="10.1" y="85" width="0.2" height="15.0" fill="rgb(244,179,42)" rx="2" ry="2" />
<text  x="13.06" y="95.5" ></text>
</g>
<g >
<title>asm_sysvec_apic_timer_interrupt (811,324,206 samples, 0.04%)</title><rect x="107.9" y="277" width="0.5" height="15.0" fill="rgb(232,127,30)" rx="2" ry="2" />
<text  x="110.93" y="287.5" ></text>
</g>
<g >
<title>tick_sched_do_timer (495,288,852 samples, 0.02%)</title><rect x="1180.8" y="181" width="0.3" height="15.0" fill="rgb(227,104,25)" rx="2" ry="2" />
<text  x="1183.84" y="191.5" ></text>
</g>
<g >
<title>serde_json::de::Deserializer&lt;R&gt;::parse_integer (926,560,623 samples, 0.04%)</title><rect x="21.0" y="277" width="0.5" height="15.0" fill="rgb(228,107,25)" rx="2" ry="2" />
<text  x="23.98" y="287.5" ></text>
</g>
<g >
<title>update_wall_time (248,725,634 samples, 0.01%)</title><rect x="1181.0" y="149" width="0.1" height="15.0" fill="rgb(207,11,2)" rx="2" ry="2" />
<text  x="1183.98" y="159.5" ></text>
</g>
<g >
<title>x64_sys_call (1,233,215,128 samples, 0.06%)</title><rect x="10.3" y="197" width="0.7" height="15.0" fill="rgb(247,194,46)" rx="2" ry="2" />
<text  x="13.34" y="207.5" ></text>
</g>
<g >
<title>vector_db_skeleton::db::VectorDB::search (1,906,514,878,929 samples, 91.45%)</title><rect x="110.9" y="293" width="1079.1" height="15.0" fill="rgb(223,85,20)" rx="2" ry="2" />
<text  x="113.94" y="303.5" >vector_db_skeleton::db::VectorDB::search</text>
</g>
<g >
<title>try_charge_memcg (246,599,535 samples, 0.01%)</title><rect x="1177.5" y="149" width="0.2" height="15.0" fill="rgb(210,27,6)" rx="2" ry="2" />
<text  x="1180.53" y="159.5" ></text>
</g>
<g >
<title>writev (185,813,622 samples, 0.01%)</title><rect x="16.5" y="229" width="0.1" height="15.0" fill="rgb(216,50,12)" rx="2" ry="2" />
<text  x="19.45" y="239.5" ></text>
</g>
<g >
<title>__hrtimer_run_queues (705,627,388 samples, 0.03%)</title><rect x="107.9" y="213" width="0.4" height="15.0" fill="rgb(237,150,35)" rx="2" ry="2" />
<text  x="110.93" y="223.5" ></text>
</g>
<g >
<title>__sysvec_apic_timer_interrupt (811,324,206 samples, 0.04%)</title><rect x="107.9" y="245" width="0.5" height="15.0" fill="rgb(242,173,41)" rx="2" ry="2" />
<text  x="110.93" y="255.5" ></text>
</g>
<g >
<title>core::slice::sort::shared::pivot::median3_rec (4,203,667,750 samples, 0.20%)</title><rect x="18.4" y="277" width="2.4" height="15.0" fill="rgb(218,62,14)" rx="2" ry="2" />
<text  x="21.37" y="287.5" ></text>
</g>
<g >
<title>alloc::raw_vec::RawVec&lt;T,A&gt;::grow_one (209,412,853 samples, 0.01%)</title><rect x="22.3" y="293" width="0.1" height="15.0" fill="rgb(248,200,47)" rx="2" ry="2" />
<text  x="25.27" y="303.5" ></text>
</g>
<g >
<title>update_cfs_group (211,410,347 samples, 0.01%)</title><rect x="1188.4" y="133" width="0.2" height="15.0" fill="rgb(242,174,41)" rx="2" ry="2" />
<text  x="1191.43" y="143.5" ></text>
</g>
<g >
<title>__sysvec_apic_timer_interrupt (15,331,917,633 samples, 0.74%)</title><rect x="1180.4" y="245" width="8.7" height="15.0" fill="rgb(242,173,41)" rx="2" ry="2" />
<text  x="1183.44" y="255.5" ></text>
</g>
<g >
<title>skb_copy_datagram_iter (365,096,837 samples, 0.02%)</title><rect x="10.1" y="101" width="0.2" height="15.0" fill="rgb(245,188,45)" rx="2" ry="2" />
<text  x="13.06" y="111.5" ></text>
</g>
<g >
<title>irqentry_exit_to_user_mode (281,870,681 samples, 0.01%)</title><rect x="1189.3" y="229" width="0.2" height="15.0" fill="rgb(254,229,54)" rx="2" ry="2" />
<text  x="1192.34" y="239.5" ></text>
</g>
<g >
<title>__handle_mm_fault (5,826,437,520 samples, 0.28%)</title><rect x="1176.4" y="213" width="3.2" height="15.0" fill="rgb(207,9,2)" rx="2" ry="2" />
<text  x="1179.35" y="223.5" ></text>
</g>
<g >
<title>__handle_mm_fault (344,417,977 samples, 0.02%)</title><rect x="16.2" y="197" width="0.2" height="15.0" fill="rgb(207,9,2)" rx="2" ry="2" />
<text  x="19.23" y="207.5" ></text>
</g>
<g >
<title>all (2,084,859,883,737 samples, 100%)</title><rect x="10.0" y="325" width="1180.0" height="15.0" fill="rgb(213,39,9)" rx="2" ry="2" />
<text  x="13.00" y="335.5" ></text>
</g>
<g >
<title>_ZN9hashbrown3raw21RawTable$LT$T$C$A$GT$14reserve_rehash17hc28e9149a19b27d0E.llvm.9482099084947745970 (235,897,629 samples, 0.01%)</title><rect x="18.1" y="277" width="0.2" height="15.0" fill="rgb(250,209,50)" rx="2" ry="2" />
<text  x="21.12" y="287.5" ></text>
</g>
<g >
<title>free_pages_and_swap_cache (528,553,163 samples, 0.03%)</title><rect x="10.4" y="69" width="0.3" height="15.0" fill="rgb(222,82,19)" rx="2" ry="2" />
<text  x="13.36" y="79.5" ></text>
</g>
<g >
<title>x64_sys_call (185,813,622 samples, 0.01%)</title><rect x="16.5" y="181" width="0.1" height="15.0" fill="rgb(247,194,46)" rx="2" ry="2" />
<text  x="19.45" y="191.5" ></text>
</g>
<g >
<title>__cgroup_account_cputime_field (246,843,346 samples, 0.01%)</title><rect x="1181.2" y="117" width="0.2" height="15.0" fill="rgb(232,126,30)" rx="2" ry="2" />
<text  x="1184.24" y="127.5" ></text>
</g>
</g>
</svg>
