<?xml version="1.0" standalone="no"?>
<!DOCTYPE svg PUBLIC "-//W3C//DTD SVG 1.1//EN" "http://www.w3.org/Graphics/SVG/1.1/DTD/svg11.dtd">
<svg version="1.1" width="1200" height="422" onload="init(evt)" viewBox="0 0 1200 422" xmlns="http://www.w3.org/2000/svg" xmlns:xlink="http://www.w3.org/1999/xlink">
<!-- Flame graph stack visualization. See https://github.com/brendangregg/FlameGraph for latest version, and http://www.brendangregg.com/flamegraphs.html for examples. -->
<!-- NOTES:  -->
<defs>
	<linearGradient id="background" y1="0" y2="1" x1="0" x2="0" >
		<stop stop-color="#eeeeee" offset="5%" />
		<stop stop-color="#eeeeb0" offset="95%" />
	</linearGradient>
</defs>
<style type="text/css">
	text { font-family:Verdana; font-size:12px; fill:rgb(0,0,0); }
	#search, #ignorecase { opacity:0.1; cursor:pointer; }
	#search:hover, #search.show, #ignorecase:hover, #ignorecase.show { opacity:1; }
	#subtitle { text-anchor:middle; font-color:rgb(160,160,160); }
	#title { text-anchor:middle; font-size:17px}
	#unzoom { cursor:pointer; }
	#frames > *:hover { stroke:black; stroke-width:0.5; cursor:pointer; }
	.hide { display:none; }
	.parent { opacity:0.5; }
</style>
<script type="text/ecmascript">
<![CDATA[
	"use strict";
	var details, searchbtn, unzoombtn, matchedtxt, svg, searching, currentSearchTerm, ignorecase, ignorecaseBtn;
	function init(evt) {
		details = document.getElementById("details").firstChild;
		searchbtn = document.getElementById("search");
		ignorecaseBtn = document.getElementById("ignorecase");
		unzoombtn = document.getElementById("unzoom");
		matchedtxt = document.getElementById("matched");
		svg = document.getElementsByTagName("svg")[0];
		searching = 0;
		currentSearchTerm = null;

		// use GET parameters to restore a flamegraphs state.
		var params = get_params();
		if (params.x && params.y)
			zoom(find_group(document.querySelector('[x="' + params.x + '"][y="' + params.y + '"]')));
                if (params.s) search(params.s);
	}

	// event listeners
	window.addEventListener("click", function(e) {
		var target = find_group(e.target);
		if (target) {
			if (target.nodeName == "a") {
				if (e.ctrlKey === false) return;
				e.preventDefault();
			}
			if (target.classList.contains("parent")) unzoom(true);
			zoom(target);
			if (!document.querySelector('.parent')) {
				// we have basically done a clearzoom so clear the url
				var params = get_params();
				if (params.x) delete params.x;
				if (params.y) delete params.y;
				history.replaceState(null, null, parse_params(params));
				unzoombtn.classList.add("hide");
				return;
			}

			// set parameters for zoom state
			var el = target.querySelector("rect");
			if (el && el.attributes && el.attributes.y && el.attributes._orig_x) {
				var params = get_params()
				params.x = el.attributes._orig_x.value;
				params.y = el.attributes.y.value;
				history.replaceState(null, null, parse_params(params));
			}
		}
		else if (e.target.id == "unzoom") clearzoom();
		else if (e.target.id == "search") search_prompt();
		else if (e.target.id == "ignorecase") toggle_ignorecase();
	}, false)

	// mouse-over for info
	// show
	window.addEventListener("mouseover", function(e) {
		var target = find_group(e.target);
		if (target) details.nodeValue = "Function: " + g_to_text(target);
	}, false)

	// clear
	window.addEventListener("mouseout", function(e) {
		var target = find_group(e.target);
		if (target) details.nodeValue = ' ';
	}, false)

	// ctrl-F for search
	// ctrl-I to toggle case-sensitive search
	window.addEventListener("keydown",function (e) {
		if (e.keyCode === 114 || (e.ctrlKey && e.keyCode === 70)) {
			e.preventDefault();
			search_prompt();
		}
		else if (e.ctrlKey && e.keyCode === 73) {
			e.preventDefault();
			toggle_ignorecase();
		}
	}, false)

	// functions
	function get_params() {
		var params = {};
		var paramsarr = window.location.search.substr(1).split('&');
		for (var i = 0; i < paramsarr.length; ++i) {
			var tmp = paramsarr[i].split("=");
			if (!tmp[0] || !tmp[1]) continue;
			params[tmp[0]]  = decodeURIComponent(tmp[1]);
		}
		return params;
	}
	function parse_params(params) {
		var uri = "?";
		for (var key in params) {
			uri += key + '=' + encodeURIComponent(params[key]) + '&';
		}
		if (uri.slice(-1) == "&")
			uri = uri.substring(0, uri.length - 1);
		if (uri == '?')
			uri = window.location.href.split('?')[0];
		return uri;
	}
	function find_child(node, selector) {
		var children = node.querySelectorAll(selector);
		if (children.length) return children[0];
	}
	function find_group(node) {
		var parent = node.parentElement;
		if (!parent) return;
		if (parent.id == "frames") return node;
		return find_group(parent);
	}
	function orig_save(e, attr, val) {
		if (e.attributes["_orig_" + attr] != undefined) return;
		if (e.attributes[attr] == undefined) return;
		if (val == undefined) val = e.attributes[attr].value;
		e.setAttribute("_orig_" + attr, val);
	}
	function orig_load(e, attr) {
		if (e.attributes["_orig_"+attr] == undefined) return;
		e.attributes[attr].value = e.attributes["_orig_" + attr].value;
		e.removeAttribute("_orig_"+attr);
	}
	function g_to_text(e) {
		var text = find_child(e, "title").firstChild.nodeValue;
		return (text)
	}
	function g_to_func(e) {
		var func = g_to_text(e);
		// if there's any manipulation we want to do to the function
		// name before it's searched, do it here before returning.
		return (func);
	}
	function update_text(e) {
		var r = find_child(e, "rect");
		var t = find_child(e, "text");
		var w = parseFloat(r.attributes.width.value) -3;
		var txt = find_child(e, "title").textContent.replace(/\([^(]*\)$/,"");
		t.attributes.x.value = parseFloat(r.attributes.x.value) + 3;

		// Smaller than this size won't fit anything
		if (w < 2 * 12 * 0.59) {
			t.textContent = "";
			return;
		}

		t.textContent = txt;
		var sl = t.getSubStringLength(0, txt.length);
		// check if only whitespace or if we can fit the entire string into width w
		if (/^ *$/.test(txt) || sl < w)
			return;

		// this isn't perfect, but gives a good starting point
		// and avoids calling getSubStringLength too often
		var start = Math.floor((w/sl) * txt.length);
		for (var x = start; x > 0; x = x-2) {
			if (t.getSubStringLength(0, x + 2) <= w) {
				t.textContent = txt.substring(0, x) + "..";
				return;
			}
		}
		t.textContent = "";
	}

	// zoom
	function zoom_reset(e) {
		if (e.attributes != undefined) {
			orig_load(e, "x");
			orig_load(e, "width");
		}
		if (e.childNodes == undefined) return;
		for (var i = 0, c = e.childNodes; i < c.length; i++) {
			zoom_reset(c[i]);
		}
	}
	function zoom_child(e, x, ratio) {
		if (e.attributes != undefined) {
			if (e.attributes.x != undefined) {
				orig_save(e, "x");
				e.attributes.x.value = (parseFloat(e.attributes.x.value) - x - 10) * ratio + 10;
				if (e.tagName == "text")
					e.attributes.x.value = find_child(e.parentNode, "rect[x]").attributes.x.value + 3;
			}
			if (e.attributes.width != undefined) {
				orig_save(e, "width");
				e.attributes.width.value = parseFloat(e.attributes.width.value) * ratio;
			}
		}

		if (e.childNodes == undefined) return;
		for (var i = 0, c = e.childNodes; i < c.length; i++) {
			zoom_child(c[i], x - 10, ratio);
		}
	}
	function zoom_parent(e) {
		if (e.attributes) {
			if (e.attributes.x != undefined) {
				orig_save(e, "x");
				e.attributes.x.value = 10;
			}
			if (e.attributes.width != undefined) {
				orig_save(e, "width");
				e.attributes.width.value = parseInt(svg.width.baseVal.value) - (10 * 2);
			}
		}
		if (e.childNodes == undefined) return;
		for (var i = 0, c = e.childNodes; i < c.length; i++) {
			zoom_parent(c[i]);
		}
	}
	function zoom(node) {
		var attr = find_child(node, "rect").attributes;
		var width = parseFloat(attr.width.value);
		var xmin = parseFloat(attr.x.value);
		var xmax = parseFloat(xmin + width);
		var ymin = parseFloat(attr.y.value);
		var ratio = (svg.width.baseVal.value - 2 * 10) / width;

		// XXX: Workaround for JavaScript float issues (fix me)
		var fudge = 0.0001;

		unzoombtn.classList.remove("hide");

		var el = document.getElementById("frames").children;
		for (var i = 0; i < el.length; i++) {
			var e = el[i];
			var a = find_child(e, "rect").attributes;
			var ex = parseFloat(a.x.value);
			var ew = parseFloat(a.width.value);
			var upstack;
			// Is it an ancestor
			if (0 == 0) {
				upstack = parseFloat(a.y.value) > ymin;
			} else {
				upstack = parseFloat(a.y.value) < ymin;
			}
			if (upstack) {
				// Direct ancestor
				if (ex <= xmin && (ex+ew+fudge) >= xmax) {
					e.classList.add("parent");
					zoom_parent(e);
					update_text(e);
				}
				// not in current path
				else
					e.classList.add("hide");
			}
			// Children maybe
			else {
				// no common path
				if (ex < xmin || ex + fudge >= xmax) {
					e.classList.add("hide");
				}
				else {
					zoom_child(e, xmin, ratio);
					update_text(e);
				}
			}
		}
		search();
	}
	function unzoom(dont_update_text) {
		unzoombtn.classList.add("hide");
		var el = document.getElementById("frames").children;
		for(var i = 0; i < el.length; i++) {
			el[i].classList.remove("parent");
			el[i].classList.remove("hide");
			zoom_reset(el[i]);
			if(!dont_update_text) update_text(el[i]);
		}
		search();
	}
	function clearzoom() {
		unzoom();

		// remove zoom state
		var params = get_params();
		if (params.x) delete params.x;
		if (params.y) delete params.y;
		history.replaceState(null, null, parse_params(params));
	}

	// search
	function toggle_ignorecase() {
		ignorecase = !ignorecase;
		if (ignorecase) {
			ignorecaseBtn.classList.add("show");
		} else {
			ignorecaseBtn.classList.remove("show");
		}
		reset_search();
		search();
	}
	function reset_search() {
		var el = document.querySelectorAll("#frames rect");
		for (var i = 0; i < el.length; i++) {
			orig_load(el[i], "fill")
		}
		var params = get_params();
		delete params.s;
		history.replaceState(null, null, parse_params(params));
	}
	function search_prompt() {
		if (!searching) {
			var term = prompt("Enter a search term (regexp " +
			    "allowed, eg: ^ext4_)"
			    + (ignorecase ? ", ignoring case" : "")
			    + "\nPress Ctrl-i to toggle case sensitivity", "");
			if (term != null) search(term);
		} else {
			reset_search();
			searching = 0;
			currentSearchTerm = null;
			searchbtn.classList.remove("show");
			searchbtn.firstChild.nodeValue = "Search"
			matchedtxt.classList.add("hide");
			matchedtxt.firstChild.nodeValue = ""
		}
	}
	function search(term) {
		if (term) currentSearchTerm = term;
		if (currentSearchTerm === null) return;

		var re = new RegExp(currentSearchTerm, ignorecase ? 'i' : '');
		var el = document.getElementById("frames").children;
		var matches = new Object();
		var maxwidth = 0;
		for (var i = 0; i < el.length; i++) {
			var e = el[i];
			var func = g_to_func(e);
			var rect = find_child(e, "rect");
			if (func == null || rect == null)
				continue;

			// Save max width. Only works as we have a root frame
			var w = parseFloat(rect.attributes.width.value);
			if (w > maxwidth)
				maxwidth = w;

			if (func.match(re)) {
				// highlight
				var x = parseFloat(rect.attributes.x.value);
				orig_save(rect, "fill");
				rect.attributes.fill.value = "rgb(230,0,230)";

				// remember matches
				if (matches[x] == undefined) {
					matches[x] = w;
				} else {
					if (w > matches[x]) {
						// overwrite with parent
						matches[x] = w;
					}
				}
				searching = 1;
			}
		}
		if (!searching)
			return;
		var params = get_params();
		params.s = currentSearchTerm;
		history.replaceState(null, null, parse_params(params));

		searchbtn.classList.add("show");
		searchbtn.firstChild.nodeValue = "Reset Search";

		// calculate percent matched, excluding vertical overlap
		var count = 0;
		var lastx = -1;
		var lastw = 0;
		var keys = Array();
		for (k in matches) {
			if (matches.hasOwnProperty(k))
				keys.push(k);
		}
		// sort the matched frames by their x location
		// ascending, then width descending
		keys.sort(function(a, b){
			return a - b;
		});
		// Step through frames saving only the biggest bottom-up frames
		// thanks to the sort order. This relies on the tree property
		// where children are always smaller than their parents.
		var fudge = 0.0001;	// JavaScript floating point
		for (var k in keys) {
			var x = parseFloat(keys[k]);
			var w = matches[keys[k]];
			if (x >= lastx + lastw - fudge) {
				count += w;
				lastx = x;
				lastw = w;
			}
		}
		// display matched percent
		matchedtxt.classList.remove("hide");
		var pct = 100 * count / maxwidth;
		if (pct != 100) pct = pct.toFixed(1)
		matchedtxt.firstChild.nodeValue = "Matched: " + pct + "%";
	}
]]>
</script>
<rect x="0.0" y="0" width="1200.0" height="422.0" fill="url(#background)"  />
<text id="title" x="600.00" y="24" >Flame Graph</text>
<text id="details" x="10.00" y="405" > </text>
<text id="unzoom" x="10.00" y="24" class="hide">Reset Zoom</text>
<text id="search" x="1090.00" y="24" >Search</text>
<text id="ignorecase" x="1174.00" y="24" >ic</text>
<text id="matched" x="1090.00" y="405" > </text>
<g id="frames">
<g >
<title>tcp_sendmsg_locked (134,111,430 samples, 0.01%)</title><rect x="21.9" y="101" width="0.1" height="15.0" fill="rgb(215,48,11)" rx="2" ry="2" />
<text  x="24.88" y="111.5" ></text>
</g>
<g >
<title>core::slice::sort::shared::smallsort::sort8_stable (5,073,582,893 samples, 0.55%)</title><rect x="1031.8" y="341" width="6.5" height="15.0" fill="rgb(250,210,50)" rx="2" ry="2" />
<text  x="1034.79" y="351.5" ></text>
</g>
<g >
<title>asm_exc_page_fault (590,891,108 samples, 0.06%)</title><rect x="12.0" y="325" width="0.7" height="15.0" fill="rgb(225,93,22)" rx="2" ry="2" />
<text  x="14.98" y="335.5" ></text>
</g>
<g >
<title>handle_pte_fault (437,076,317 samples, 0.05%)</title><rect x="12.1" y="245" width="0.6" height="15.0" fill="rgb(217,57,13)" rx="2" ry="2" />
<text  x="15.13" y="255.5" ></text>
</g>
<g >
<title>tick_nohz_highres_handler (211,388,115 samples, 0.02%)</title><rect x="1023.6" y="245" width="0.2" height="15.0" fill="rgb(215,50,11)" rx="2" ry="2" />
<text  x="1026.56" y="255.5" ></text>
</g>
<g >
<title>__handle_mm_fault (79,117,601 samples, 0.01%)</title><rect x="21.7" y="245" width="0.1" height="15.0" fill="rgb(207,9,2)" rx="2" ry="2" />
<text  x="24.69" y="255.5" ></text>
</g>
<g >
<title>&lt;serde_json::de::SeqAccess&lt;R&gt; as serde_core::de::SeqAccess&gt;::next_element_seed (1,830,779,723 samples, 0.20%)</title><rect x="15.9" y="325" width="2.4" height="15.0" fill="rgb(253,222,53)" rx="2" ry="2" />
<text  x="18.93" y="335.5" ></text>
</g>
<g >
<title>realloc (3,259,776,455 samples, 0.35%)</title><rect x="30.0" y="325" width="4.2" height="15.0" fill="rgb(246,189,45)" rx="2" ry="2" />
<text  x="33.04" y="335.5" ></text>
</g>
<g >
<title>__hrtimer_run_queues (5,002,161,459 samples, 0.54%)</title><rect x="950.7" y="261" width="6.4" height="15.0" fill="rgb(237,150,35)" rx="2" ry="2" />
<text  x="953.68" y="271.5" ></text>
</g>
<g >
<title>entry_SYSCALL_64_after_hwframe (162,259,818 samples, 0.02%)</title><rect x="21.9" y="261" width="0.2" height="15.0" fill="rgb(218,63,15)" rx="2" ry="2" />
<text  x="24.86" y="271.5" ></text>
</g>
<g >
<title>[libc.so.6] (117,434,481 samples, 0.01%)</title><rect x="958.3" y="309" width="0.1" height="15.0" fill="rgb(223,84,20)" rx="2" ry="2" />
<text  x="961.27" y="319.5" ></text>
</g>
<g >
<title>run_rebalance_domains (175,364,348 samples, 0.02%)</title><rect x="957.4" y="245" width="0.2" height="15.0" fill="rgb(232,126,30)" rx="2" ry="2" />
<text  x="960.43" y="255.5" ></text>
</g>
<g >
<title>handle_softirqs (175,364,348 samples, 0.02%)</title><rect x="957.4" y="261" width="0.2" height="15.0" fill="rgb(238,156,37)" rx="2" ry="2" />
<text  x="960.43" y="271.5" ></text>
</g>
<g >
<title>__handle_mm_fault (437,076,317 samples, 0.05%)</title><rect x="12.1" y="261" width="0.6" height="15.0" fill="rgb(207,9,2)" rx="2" ry="2" />
<text  x="15.13" y="271.5" ></text>
</g>
<g >
<title>core::slice::sort::shared::pivot::median3_rec (4,404,633,369 samples, 0.48%)</title><rect x="958.5" y="341" width="5.6" height="15.0" fill="rgb(218,62,14)" rx="2" ry="2" />
<text  x="961.49" y="351.5" ></text>
</g>
<g >
<title>all (923,985,173,390 samples, 100%)</title><rect x="10.0" y="373" width="1180.0" height="15.0" fill="rgb(213,39,9)" rx="2" ry="2" />
<text  x="13.00" y="383.5" ></text>
</g>
<g >
<title>do_numa_page (211,594,037 samples, 0.02%)</title><rect x="948.5" y="229" width="0.2" height="15.0" fill="rgb(208,14,3)" rx="2" ry="2" />
<text  x="951.47" y="239.5" ></text>
</g>
<g >
<title>do_iter_readv_writev (148,615,245 samples, 0.02%)</title><rect x="21.9" y="165" width="0.1" height="15.0" fill="rgb(221,76,18)" rx="2" ry="2" />
<text  x="24.86" y="175.5" ></text>
</g>
<g >
<title>alloc_anon_folio (184,511,124 samples, 0.02%)</title><rect x="12.3" y="213" width="0.3" height="15.0" fill="rgb(223,86,20)" rx="2" ry="2" />
<text  x="15.33" y="223.5" ></text>
</g>
<g >
<title>tick_nohz_highres_handler (4,896,496,983 samples, 0.53%)</title><rect x="950.8" y="245" width="6.3" height="15.0" fill="rgb(215,50,11)" rx="2" ry="2" />
<text  x="953.81" y="255.5" ></text>
</g>
<g >
<title>asm_sysvec_apic_timer_interrupt (880,880,724 samples, 0.10%)</title><rect x="1183.3" y="325" width="1.1" height="15.0" fill="rgb(232,127,30)" rx="2" ry="2" />
<text  x="1186.25" y="335.5" ></text>
</g>
<g >
<title>&lt;serde_path_to_error::de::TrackedSeed&lt;X&gt; as serde_core::de::DeserializeSeed&gt;::deserialize (834,753,437 samples, 0.09%)</title><rect x="10.8" y="341" width="1.0" height="15.0" fill="rgb(209,22,5)" rx="2" ry="2" />
<text  x="13.77" y="351.5" ></text>
</g>
<g >
<title>exc_page_fault (1,011,234,257 samples, 0.11%)</title><rect x="947.9" y="309" width="1.2" height="15.0" fill="rgb(212,35,8)" rx="2" ry="2" />
<text  x="950.86" y="319.5" ></text>
</g>
<g >
<title>_ZN75_$LT$F$u20$as$u20$axum..handler..Handler$LT$$LP$M$C$T1$C$T2$RP$$C$S$GT$$GT$4call28_$u7b$$u7b$closure$u7d$$u7d$17h28ab64d62aa4986dE.llvm.9470778322635501243 (723,499,745,073 samples, 78.30%)</title><rect x="34.3" y="341" width="923.9" height="15.0" fill="rgb(227,105,25)" rx="2" ry="2" />
<text  x="37.26" y="351.5" >_ZN75_$LT$F$u20$as$u20$axum..handler..Handler$LT$$LP$M$C$T1$C$T2$RP$$C$S$GT$$GT$4call28_$u7b$$u7b$closure$u7d$$u7d$17h28ab64d62a..</text>
</g>
<g >
<title>__tcp_transmit_skb (85,106,145 samples, 0.01%)</title><rect x="21.9" y="37" width="0.1" height="15.0" fill="rgb(231,122,29)" rx="2" ry="2" />
<text  x="24.92" y="47.5" ></text>
</g>
<g >
<title>handle_mm_fault (477,857,936 samples, 0.05%)</title><rect x="12.1" y="277" width="0.6" height="15.0" fill="rgb(234,135,32)" rx="2" ry="2" />
<text  x="15.11" y="287.5" ></text>
</g>
<g >
<title>cfree (142,000,281 samples, 0.02%)</title><rect x="958.2" y="325" width="0.2" height="15.0" fill="rgb(223,86,20)" rx="2" ry="2" />
<text  x="961.24" y="335.5" ></text>
</g>
<g >
<title>__x64_sys_writev (148,615,245 samples, 0.02%)</title><rect x="21.9" y="213" width="0.1" height="15.0" fill="rgb(233,133,31)" rx="2" ry="2" />
<text  x="24.86" y="223.5" ></text>
</g>
<g >
<title>perf_event_task_tick (775,173,573 samples, 0.08%)</title><rect x="1183.3" y="181" width="1.0" height="15.0" fill="rgb(205,3,0)" rx="2" ry="2" />
<text  x="1186.30" y="191.5" ></text>
</g>
<g >
<title>simple_copy_to_iter (249,251,413 samples, 0.03%)</title><rect x="10.1" y="117" width="0.3" height="15.0" fill="rgb(228,110,26)" rx="2" ry="2" />
<text  x="13.09" y="127.5" ></text>
</g>
<g >
<title>epoll_wait (88,560,208 samples, 0.01%)</title><rect x="1184.5" y="325" width="0.1" height="15.0" fill="rgb(238,154,36)" rx="2" ry="2" />
<text  x="1187.53" y="335.5" ></text>
</g>
<g >
<title>_ZN75_$LT$F$u20$as$u20$axum..handler..Handler$LT$$LP$M$C$T1$C$T2$RP$$C$S$GT$$GT$4call28_$u7b$$u7b$closure$u7d$$u7d$17h8282c3a5f47180f6E.llvm.9470778322635501243 (170,036,676 samples, 0.02%)</title><rect x="958.2" y="341" width="0.2" height="15.0" fill="rgb(235,138,33)" rx="2" ry="2" />
<text  x="961.22" y="351.5" ></text>
</g>
<g >
<title>do_syscall_64 (380,871,960 samples, 0.04%)</title><rect x="10.0" y="277" width="0.5" height="15.0" fill="rgb(209,20,4)" rx="2" ry="2" />
<text  x="13.02" y="287.5" ></text>
</g>
<g >
<title>__alloc_pages (159,390,178 samples, 0.02%)</title><rect x="12.3" y="165" width="0.2" height="15.0" fill="rgb(233,129,30)" rx="2" ry="2" />
<text  x="15.33" y="175.5" ></text>
</g>
<g >
<title>tcp_recvmsg_locked (328,649,104 samples, 0.04%)</title><rect x="10.1" y="165" width="0.4" height="15.0" fill="rgb(226,100,24)" rx="2" ry="2" />
<text  x="13.09" y="175.5" ></text>
</g>
<g >
<title>tick_do_update_jiffies64 (103,690,295 samples, 0.01%)</title><rect x="951.0" y="213" width="0.1" height="15.0" fill="rgb(208,14,3)" rx="2" ry="2" />
<text  x="953.99" y="223.5" ></text>
</g>
<g >
<title>__irq_exit_rcu (210,612,587 samples, 0.02%)</title><rect x="957.4" y="277" width="0.2" height="15.0" fill="rgb(227,101,24)" rx="2" ry="2" />
<text  x="960.38" y="287.5" ></text>
</g>
<g >
<title>update_wall_time (103,690,295 samples, 0.01%)</title><rect x="951.0" y="197" width="0.1" height="15.0" fill="rgb(207,11,2)" rx="2" ry="2" />
<text  x="953.99" y="207.5" ></text>
</g>
<g >
<title>&lt;serde_path_to_error::de::TrackedSeed&lt;X&gt; as serde_core::de::DeserializeSeed&gt;::deserialize (273,835,203 samples, 0.03%)</title><rect x="22.1" y="309" width="0.4" height="15.0" fill="rgb(209,22,5)" rx="2" ry="2" />
<text  x="25.14" y="319.5" ></text>
</g>
<g >
<title>[unknown] (726,228,667 samples, 0.08%)</title><rect x="21.9" y="325" width="0.9" height="15.0" fill="rgb(210,24,5)" rx="2" ry="2" />
<text  x="24.86" y="335.5" ></text>
</g>
<g >
<title>rep_movs_alternative (166,961,473 samples, 0.02%)</title><rect x="10.2" y="101" width="0.2" height="15.0" fill="rgb(205,1,0)" rx="2" ry="2" />
<text  x="13.19" y="111.5" ></text>
</g>
<g >
<title>[libc.so.6] (270,906,687 samples, 0.03%)</title><rect x="21.5" y="325" width="0.4" height="15.0" fill="rgb(223,84,20)" rx="2" ry="2" />
<text  x="24.51" y="335.5" ></text>
</g>
<g >
<title>tick_nohz_highres_handler (845,643,807 samples, 0.09%)</title><rect x="1183.3" y="245" width="1.1" height="15.0" fill="rgb(215,50,11)" rx="2" ry="2" />
<text  x="1186.30" y="255.5" ></text>
</g>
<g >
<title>hrtimer_interrupt (5,248,949,660 samples, 0.57%)</title><rect x="950.6" y="277" width="6.7" height="15.0" fill="rgb(228,109,26)" rx="2" ry="2" />
<text  x="953.63" y="287.5" ></text>
</g>
<g >
<title>account_user_time (105,708,112 samples, 0.01%)</title><rect x="951.1" y="181" width="0.2" height="15.0" fill="rgb(225,96,23)" rx="2" ry="2" />
<text  x="954.13" y="191.5" ></text>
</g>
<g >
<title>_ZN80_$LT$serde_json..de..SeqAccess$LT$R$GT$$u20$as$u20$serde_core..de..SeqAccess$GT$17next_element_seed16has_next_element17h087e193fb1d70ce3E.llvm.6324122520073909439 (1,588,946,230 samples, 0.17%)</title><rect x="24.9" y="325" width="2.0" height="15.0" fill="rgb(246,191,45)" rx="2" ry="2" />
<text  x="27.87" y="335.5" ></text>
</g>
<g >
<title>__x64_sys_recvfrom (368,819,926 samples, 0.04%)</title><rect x="10.0" y="245" width="0.5" height="15.0" fill="rgb(224,88,21)" rx="2" ry="2" />
<text  x="13.03" y="255.5" ></text>
</g>
<g >
<title>writev (162,259,818 samples, 0.02%)</title><rect x="21.9" y="277" width="0.2" height="15.0" fill="rgb(216,50,12)" rx="2" ry="2" />
<text  x="24.86" y="287.5" ></text>
</g>
<g >
<title>tick_sched_handle (845,643,807 samples, 0.09%)</title><rect x="1183.3" y="229" width="1.1" height="15.0" fill="rgb(219,68,16)" rx="2" ry="2" />
<text  x="1186.30" y="239.5" ></text>
</g>
<g >
<title>exc_page_fault (502,847,918 samples, 0.05%)</title><rect x="12.1" y="309" width="0.6" height="15.0" fill="rgb(212,35,8)" rx="2" ry="2" />
<text  x="15.10" y="319.5" ></text>
</g>
<g >
<title>perf_adjust_freq_unthr_context (3,699,291,546 samples, 0.40%)</title><rect x="951.5" y="165" width="4.7" height="15.0" fill="rgb(236,146,35)" rx="2" ry="2" />
<text  x="954.49" y="175.5" ></text>
</g>
<g >
<title>x64_sys_call (148,615,245 samples, 0.02%)</title><rect x="21.9" y="229" width="0.1" height="15.0" fill="rgb(247,194,46)" rx="2" ry="2" />
<text  x="24.86" y="239.5" ></text>
</g>
<g >
<title>&lt;&amp;std::os::unix::net::stream::UnixStream as std::io::Read&gt;::read (395,694,171 samples, 0.04%)</title><rect x="10.0" y="325" width="0.5" height="15.0" fill="rgb(241,169,40)" rx="2" ry="2" />
<text  x="13.00" y="335.5" ></text>
</g>
<g >
<title>tick_sched_handle (211,388,115 samples, 0.02%)</title><rect x="1023.6" y="229" width="0.2" height="15.0" fill="rgb(219,68,16)" rx="2" ry="2" />
<text  x="1026.56" y="239.5" ></text>
</g>
<g >
<title>_ZN5alloc7raw_vec11finish_grow17hbd73bd63ab428510E.llvm.9347744592615820237 (3,272,333,444 samples, 0.35%)</title><rect x="30.0" y="341" width="4.2" height="15.0" fill="rgb(237,150,36)" rx="2" ry="2" />
<text  x="33.03" y="351.5" ></text>
</g>
<g >
<title>irqentry_exit_to_user_mode (176,164,443 samples, 0.02%)</title><rect x="957.6" y="277" width="0.3" height="15.0" fill="rgb(254,229,54)" rx="2" ry="2" />
<text  x="960.65" y="287.5" ></text>
</g>
<g >
<title>alloc_pages_mpol (184,511,124 samples, 0.02%)</title><rect x="12.3" y="181" width="0.3" height="15.0" fill="rgb(254,227,54)" rx="2" ry="2" />
<text  x="15.33" y="191.5" ></text>
</g>
<g >
<title>perf_adjust_freq_unthr_context (704,695,252 samples, 0.08%)</title><rect x="1183.3" y="165" width="0.9" height="15.0" fill="rgb(236,146,35)" rx="2" ry="2" />
<text  x="1186.34" y="175.5" ></text>
</g>
<g >
<title>inet_sendmsg (148,615,245 samples, 0.02%)</title><rect x="21.9" y="133" width="0.1" height="15.0" fill="rgb(244,183,43)" rx="2" ry="2" />
<text  x="24.86" y="143.5" ></text>
</g>
<g >
<title>sock_recvmsg (368,819,926 samples, 0.04%)</title><rect x="10.0" y="213" width="0.5" height="15.0" fill="rgb(206,5,1)" rx="2" ry="2" />
<text  x="13.03" y="223.5" ></text>
</g>
<g >
<title>sysvec_apic_timer_interrupt (880,880,724 samples, 0.10%)</title><rect x="1183.3" y="309" width="1.1" height="15.0" fill="rgb(220,69,16)" rx="2" ry="2" />
<text  x="1186.25" y="319.5" ></text>
</g>
<g >
<title>entry_SYSCALL_64_after_hwframe (88,560,208 samples, 0.01%)</title><rect x="1184.5" y="309" width="0.1" height="15.0" fill="rgb(218,63,15)" rx="2" ry="2" />
<text  x="1187.53" y="319.5" ></text>
</g>
<g >
<title>core::slice::sort::unstable::quicksort::quicksort (114,406,284,960 samples, 12.38%)</title><rect x="1038.3" y="341" width="146.1" height="15.0" fill="rgb(215,47,11)" rx="2" ry="2" />
<text  x="1041.27" y="351.5" >core::slice::sort:..</text>
</g>
<g >
<title>handle_pte_fault (481,949,996 samples, 0.05%)</title><rect x="948.1" y="245" width="0.6" height="15.0" fill="rgb(217,57,13)" rx="2" ry="2" />
<text  x="951.13" y="255.5" ></text>
</g>
<g >
<title>perf_adjust_freq_unthr_context (140,918,053 samples, 0.02%)</title><rect x="1023.6" y="165" width="0.2" height="15.0" fill="rgb(236,146,35)" rx="2" ry="2" />
<text  x="1026.65" y="175.5" ></text>
</g>
<g >
<title>__hrtimer_run_queues (880,880,724 samples, 0.10%)</title><rect x="1183.3" y="261" width="1.1" height="15.0" fill="rgb(237,150,35)" rx="2" ry="2" />
<text  x="1186.25" y="271.5" ></text>
</g>
<g >
<title>core::slice::sort::shared::smallsort::small_sort_general (46,863,221,768 samples, 5.07%)</title><rect x="964.1" y="341" width="59.9" height="15.0" fill="rgb(240,162,38)" rx="2" ry="2" />
<text  x="967.11" y="351.5" >core::..</text>
</g>
<g >
<title>_ZN5alloc7raw_vec11finish_grow17hbd73bd63ab428510E.llvm.9347744592615820237 (1,504,666,874 samples, 0.16%)</title><rect x="22.8" y="325" width="1.9" height="15.0" fill="rgb(237,150,36)" rx="2" ry="2" />
<text  x="25.80" y="335.5" ></text>
</g>
<g >
<title>tcp_recvmsg (368,819,926 samples, 0.04%)</title><rect x="10.0" y="181" width="0.5" height="15.0" fill="rgb(234,135,32)" rx="2" ry="2" />
<text  x="13.03" y="191.5" ></text>
</g>
<g >
<title>do_user_addr_fault (502,847,918 samples, 0.05%)</title><rect x="12.1" y="293" width="0.6" height="15.0" fill="rgb(228,108,25)" rx="2" ry="2" />
<text  x="15.10" y="303.5" ></text>
</g>
<g >
<title>vfs_writev (148,615,245 samples, 0.02%)</title><rect x="21.9" y="181" width="0.1" height="15.0" fill="rgb(238,153,36)" rx="2" ry="2" />
<text  x="24.86" y="191.5" ></text>
</g>
<g >
<title>alloc::raw_vec::RawVec&lt;T,A&gt;::grow_one (99,289,862 samples, 0.01%)</title><rect x="26.9" y="325" width="0.1" height="15.0" fill="rgb(248,200,47)" rx="2" ry="2" />
<text  x="29.91" y="335.5" ></text>
</g>
<g >
<title>timekeeping_advance (103,690,295 samples, 0.01%)</title><rect x="951.0" y="181" width="0.1" height="15.0" fill="rgb(227,104,25)" rx="2" ry="2" />
<text  x="953.99" y="191.5" ></text>
</g>
<g >
<title>tcp_push (98,917,086 samples, 0.01%)</title><rect x="21.9" y="85" width="0.1" height="15.0" fill="rgb(243,176,42)" rx="2" ry="2" />
<text  x="24.92" y="95.5" ></text>
</g>
<g >
<title>do_user_addr_fault (79,117,601 samples, 0.01%)</title><rect x="21.7" y="277" width="0.1" height="15.0" fill="rgb(228,108,25)" rx="2" ry="2" />
<text  x="24.69" y="287.5" ></text>
</g>
<g >
<title>&lt;serde_path_to_error::de::TrackedSeed&lt;X&gt; as serde_core::de::DeserializeSeed&gt;::deserialize (2,475,828,557 samples, 0.27%)</title><rect x="18.3" y="325" width="3.2" height="15.0" fill="rgb(209,22,5)" rx="2" ry="2" />
<text  x="21.35" y="335.5" ></text>
</g>
<g >
<title>_raw_spin_lock (140,940,090 samples, 0.02%)</title><rect x="948.5" y="213" width="0.2" height="15.0" fill="rgb(239,160,38)" rx="2" ry="2" />
<text  x="951.52" y="223.5" ></text>
</g>
<g >
<title>handle_mm_fault (79,117,601 samples, 0.01%)</title><rect x="21.7" y="261" width="0.1" height="15.0" fill="rgb(234,135,32)" rx="2" ry="2" />
<text  x="24.69" y="271.5" ></text>
</g>
<g >
<title>&lt;&amp;mut serde_json::de::Deserializer&lt;R&gt; as serde_core::de::Deserializer&gt;::deserialize_f32 (2,414,577,617 samples, 0.26%)</title><rect x="12.8" y="325" width="3.1" height="15.0" fill="rgb(241,169,40)" rx="2" ry="2" />
<text  x="15.80" y="335.5" ></text>
</g>
<g >
<title>asm_exc_page_fault (120,747,262 samples, 0.01%)</title><rect x="21.6" y="309" width="0.2" height="15.0" fill="rgb(225,93,22)" rx="2" ry="2" />
<text  x="24.63" y="319.5" ></text>
</g>
<g >
<title>update_process_times (4,651,782,745 samples, 0.50%)</title><rect x="951.1" y="213" width="6.0" height="15.0" fill="rgb(250,209,50)" rx="2" ry="2" />
<text  x="954.13" y="223.5" ></text>
</g>
<g >
<title>tick_program_event (141,082,105 samples, 0.02%)</title><rect x="957.2" y="261" width="0.1" height="15.0" fill="rgb(241,166,39)" rx="2" ry="2" />
<text  x="960.16" y="271.5" ></text>
</g>
<g >
<title>do_user_addr_fault (940,018,283 samples, 0.10%)</title><rect x="947.9" y="293" width="1.2" height="15.0" fill="rgb(228,108,25)" rx="2" ry="2" />
<text  x="950.90" y="303.5" ></text>
</g>
<g >
<title>&lt;&amp;mio::net::tcp::stream::TcpStream as std::io::Write&gt;::write_vectored (162,259,818 samples, 0.02%)</title><rect x="21.9" y="309" width="0.2" height="15.0" fill="rgb(238,152,36)" rx="2" ry="2" />
<text  x="24.86" y="319.5" ></text>
</g>
<g >
<title>__handle_mm_fault (517,182,444 samples, 0.06%)</title><rect x="948.1" y="261" width="0.6" height="15.0" fill="rgb(207,9,2)" rx="2" ry="2" />
<text  x="951.08" y="271.5" ></text>
</g>
<g >
<title>perf_event_task_tick (3,699,291,546 samples, 0.40%)</title><rect x="951.5" y="181" width="4.7" height="15.0" fill="rgb(205,3,0)" rx="2" ry="2" />
<text  x="954.49" y="191.5" ></text>
</g>
<g >
<title>entry_SYSCALL_64_after_hwframe (380,871,960 samples, 0.04%)</title><rect x="10.0" y="293" width="0.5" height="15.0" fill="rgb(218,63,15)" rx="2" ry="2" />
<text  x="13.02" y="303.5" ></text>
</g>
<g >
<title>__tcp_push_pending_frames (98,917,086 samples, 0.01%)</title><rect x="21.9" y="69" width="0.1" height="15.0" fill="rgb(230,117,28)" rx="2" ry="2" />
<text  x="24.92" y="79.5" ></text>
</g>
<g >
<title>[libc.so.6] (636,224,297 samples, 0.07%)</title><rect x="23.9" y="277" width="0.8" height="15.0" fill="rgb(223,84,20)" rx="2" ry="2" />
<text  x="26.88" y="287.5" ></text>
</g>
<g >
<title>hrtimer_interrupt (880,880,724 samples, 0.10%)</title><rect x="1183.3" y="277" width="1.1" height="15.0" fill="rgb(228,109,26)" rx="2" ry="2" />
<text  x="1186.25" y="287.5" ></text>
</g>
<g >
<title>mio::poll::Poll::poll (88,560,208 samples, 0.01%)</title><rect x="1184.5" y="341" width="0.1" height="15.0" fill="rgb(215,46,11)" rx="2" ry="2" />
<text  x="1187.53" y="351.5" ></text>
</g>
<g >
<title>serde_json::de::Deserializer&lt;R&gt;::parse_integer (736,484,050 samples, 0.08%)</title><rect x="1189.0" y="341" width="0.9" height="15.0" fill="rgb(228,107,25)" rx="2" ry="2" />
<text  x="1191.99" y="351.5" ></text>
</g>
<g >
<title>serde_path_to_error::de::&lt;impl serde_core::de::Visitor for serde_path_to_error::wrap::Wrap&lt;X&gt;&gt;::visit_seq (991,301,437 samples, 0.11%)</title><rect x="28.7" y="325" width="1.2" height="15.0" fill="rgb(213,41,9)" rx="2" ry="2" />
<text  x="31.66" y="335.5" ></text>
</g>
<g >
<title>__update_blocked_fair (104,926,566 samples, 0.01%)</title><rect x="957.5" y="213" width="0.1" height="15.0" fill="rgb(227,105,25)" rx="2" ry="2" />
<text  x="960.52" y="223.5" ></text>
</g>
<g >
<title>handle_mm_fault (622,883,704 samples, 0.07%)</title><rect x="948.1" y="277" width="0.8" height="15.0" fill="rgb(234,135,32)" rx="2" ry="2" />
<text  x="951.08" y="287.5" ></text>
</g>
<g >
<title>scheduler_tick (211,388,115 samples, 0.02%)</title><rect x="1023.6" y="197" width="0.2" height="15.0" fill="rgb(246,190,45)" rx="2" ry="2" />
<text  x="1026.56" y="207.5" ></text>
</g>
<g >
<title>sysvec_apic_timer_interrupt (5,670,940,690 samples, 0.61%)</title><rect x="950.6" y="309" width="7.3" height="15.0" fill="rgb(220,69,16)" rx="2" ry="2" />
<text  x="953.63" y="319.5" ></text>
</g>
<g >
<title>[libc.so.6] (760,493,357 samples, 0.08%)</title><rect x="11.8" y="341" width="1.0" height="15.0" fill="rgb(223,84,20)" rx="2" ry="2" />
<text  x="14.83" y="351.5" ></text>
</g>
<g >
<title>update_process_times (845,643,807 samples, 0.09%)</title><rect x="1183.3" y="213" width="1.1" height="15.0" fill="rgb(250,209,50)" rx="2" ry="2" />
<text  x="1186.30" y="223.5" ></text>
</g>
<g >
<title>asm_exc_page_fault (1,306,273,209 samples, 0.14%)</title><rect x="947.5" y="325" width="1.6" height="15.0" fill="rgb(225,93,22)" rx="2" ry="2" />
<text  x="950.48" y="335.5" ></text>
</g>
<g >
<title>scheduler_tick (4,546,074,633 samples, 0.49%)</title><rect x="951.3" y="197" width="5.8" height="15.0" fill="rgb(246,190,45)" rx="2" ry="2" />
<text  x="954.26" y="207.5" ></text>
</g>
<g >
<title>__sysvec_apic_timer_interrupt (880,880,724 samples, 0.10%)</title><rect x="1183.3" y="293" width="1.1" height="15.0" fill="rgb(242,173,41)" rx="2" ry="2" />
<text  x="1186.25" y="303.5" ></text>
</g>
<g >
<title>update_blocked_averages (140,169,265 samples, 0.02%)</title><rect x="957.5" y="229" width="0.1" height="15.0" fill="rgb(240,163,38)" rx="2" ry="2" />
<text  x="960.47" y="239.5" ></text>
</g>
<g >
<title>__update_load_avg_cfs_rq (176,965,502 samples, 0.02%)</title><rect x="956.6" y="149" width="0.2" height="15.0" fill="rgb(228,107,25)" rx="2" ry="2" />
<text  x="959.61" y="159.5" ></text>
</g>
<g >
<title>x64_sys_call (368,819,926 samples, 0.04%)</title><rect x="10.0" y="261" width="0.5" height="15.0" fill="rgb(247,194,46)" rx="2" ry="2" />
<text  x="13.03" y="271.5" ></text>
</g>
<g >
<title>tcp_sendmsg (148,615,245 samples, 0.02%)</title><rect x="21.9" y="117" width="0.1" height="15.0" fill="rgb(223,83,19)" rx="2" ry="2" />
<text  x="24.86" y="127.5" ></text>
</g>
<g >
<title>account_process_tick (105,708,112 samples, 0.01%)</title><rect x="951.1" y="197" width="0.2" height="15.0" fill="rgb(234,136,32)" rx="2" ry="2" />
<text  x="954.13" y="207.5" ></text>
</g>
<g >
<title>__sysvec_apic_timer_interrupt (317,070,667 samples, 0.03%)</title><rect x="1023.5" y="293" width="0.4" height="15.0" fill="rgb(242,173,41)" rx="2" ry="2" />
<text  x="1026.51" y="303.5" ></text>
</g>
<g >
<title>serde_json::de::Deserializer&lt;R&gt;::parse_decimal (230,515,432 samples, 0.02%)</title><rect x="27.1" y="325" width="0.3" height="15.0" fill="rgb(228,108,25)" rx="2" ry="2" />
<text  x="30.06" y="335.5" ></text>
</g>
<g >
<title>clear_page_erms (92,015,125 samples, 0.01%)</title><rect x="12.3" y="133" width="0.2" height="15.0" fill="rgb(229,113,27)" rx="2" ry="2" />
<text  x="15.35" y="143.5" ></text>
</g>
<g >
<title>lock_vma_under_rcu (105,697,559 samples, 0.01%)</title><rect x="948.9" y="277" width="0.1" height="15.0" fill="rgb(251,211,50)" rx="2" ry="2" />
<text  x="951.88" y="287.5" ></text>
</g>
<g >
<title>serde_json::de::Deserializer&lt;R&gt;::parse_integer (1,020,054,171 samples, 0.11%)</title><rect x="27.4" y="325" width="1.3" height="15.0" fill="rgb(228,107,25)" rx="2" ry="2" />
<text  x="30.35" y="335.5" ></text>
</g>
<g >
<title>get_page_from_freelist (159,390,178 samples, 0.02%)</title><rect x="12.3" y="149" width="0.2" height="15.0" fill="rgb(252,218,52)" rx="2" ry="2" />
<text  x="15.33" y="159.5" ></text>
</g>
<g >
<title>__sys_recvfrom (368,819,926 samples, 0.04%)</title><rect x="10.0" y="229" width="0.5" height="15.0" fill="rgb(247,197,47)" rx="2" ry="2" />
<text  x="13.03" y="239.5" ></text>
</g>
<g >
<title>update_load_avg (424,086,709 samples, 0.05%)</title><rect x="956.4" y="165" width="0.6" height="15.0" fill="rgb(240,165,39)" rx="2" ry="2" />
<text  x="959.43" y="175.5" ></text>
</g>
<g >
<title>inet_recvmsg (368,819,926 samples, 0.04%)</title><rect x="10.0" y="197" width="0.5" height="15.0" fill="rgb(206,5,1)" rx="2" ry="2" />
<text  x="13.03" y="207.5" ></text>
</g>
<g >
<title>asm_sysvec_apic_timer_interrupt (6,833,688,572 samples, 0.74%)</title><rect x="949.1" y="325" width="8.8" height="15.0" fill="rgb(232,127,30)" rx="2" ry="2" />
<text  x="952.15" y="335.5" ></text>
</g>
<g >
<title>exc_page_fault (79,117,601 samples, 0.01%)</title><rect x="21.7" y="293" width="0.1" height="15.0" fill="rgb(212,35,8)" rx="2" ry="2" />
<text  x="24.69" y="303.5" ></text>
</g>
<g >
<title>__sysvec_apic_timer_interrupt (5,284,163,660 samples, 0.57%)</title><rect x="950.6" y="293" width="6.8" height="15.0" fill="rgb(242,173,41)" rx="2" ry="2" />
<text  x="953.63" y="303.5" ></text>
</g>
<g >
<title>&lt;&amp;mio::net::tcp::stream::TcpStream as std::io::Read&gt;::read (395,694,171 samples, 0.04%)</title><rect x="10.0" y="341" width="0.5" height="15.0" fill="rgb(254,229,54)" rx="2" ry="2" />
<text  x="13.00" y="351.5" ></text>
</g>
<g >
<title>[unknown] (13,417,772,526 samples, 1.45%)</title><rect x="12.8" y="341" width="17.1" height="15.0" fill="rgb(210,24,5)" rx="2" ry="2" />
<text  x="15.80" y="351.5" ></text>
</g>
<g >
<title>tick_sched_handle (4,651,782,745 samples, 0.50%)</title><rect x="951.1" y="229" width="6.0" height="15.0" fill="rgb(219,68,16)" rx="2" ry="2" />
<text  x="954.13" y="239.5" ></text>
</g>
<g >
<title>native_queued_spin_lock_slowpath (105,683,736 samples, 0.01%)</title><rect x="948.2" y="213" width="0.2" height="15.0" fill="rgb(238,153,36)" rx="2" ry="2" />
<text  x="951.22" y="223.5" ></text>
</g>
<g >
<title>_raw_spin_lock (176,141,552 samples, 0.02%)</title><rect x="948.1" y="229" width="0.3" height="15.0" fill="rgb(239,160,38)" rx="2" ry="2" />
<text  x="951.13" y="239.5" ></text>
</g>
<g >
<title>skb_copy_datagram_iter (249,251,413 samples, 0.03%)</title><rect x="10.1" y="149" width="0.3" height="15.0" fill="rgb(245,188,45)" rx="2" ry="2" />
<text  x="13.09" y="159.5" ></text>
</g>
<g >
<title>update_process_times (211,388,115 samples, 0.02%)</title><rect x="1023.6" y="213" width="0.2" height="15.0" fill="rgb(250,209,50)" rx="2" ry="2" />
<text  x="1026.56" y="223.5" ></text>
</g>
<g >
<title>cfree (102,503,824 samples, 0.01%)</title><rect x="22.3" y="293" width="0.2" height="15.0" fill="rgb(223,86,20)" rx="2" ry="2" />
<text  x="25.35" y="303.5" ></text>
</g>
<g >
<title>clockevents_program_event (105,986,740 samples, 0.01%)</title><rect x="957.2" y="245" width="0.1" height="15.0" fill="rgb(244,182,43)" rx="2" ry="2" />
<text  x="960.20" y="255.5" ></text>
</g>
<g >
<title>&lt;&amp;std::os::unix::net::stream::UnixStream as std::io::Write&gt;::write_vectored (162,259,818 samples, 0.02%)</title><rect x="21.9" y="293" width="0.2" height="15.0" fill="rgb(225,93,22)" rx="2" ry="2" />
<text  x="24.86" y="303.5" ></text>
</g>
<g >
<title>scheduler_tick (845,643,807 samples, 0.09%)</title><rect x="1183.3" y="197" width="1.1" height="15.0" fill="rgb(246,190,45)" rx="2" ry="2" />
<text  x="1186.30" y="207.5" ></text>
</g>
<g >
<title>__mem_cgroup_charge (119,822,411 samples, 0.01%)</title><rect x="12.1" y="213" width="0.2" height="15.0" fill="rgb(218,60,14)" rx="2" ry="2" />
<text  x="15.13" y="223.5" ></text>
</g>
<g >
<title>task_tick_fair (600,397,362 samples, 0.06%)</title><rect x="956.2" y="181" width="0.8" height="15.0" fill="rgb(217,57,13)" rx="2" ry="2" />
<text  x="959.21" y="191.5" ></text>
</g>
<g >
<title>__hrtimer_run_queues (211,388,115 samples, 0.02%)</title><rect x="1023.6" y="261" width="0.2" height="15.0" fill="rgb(237,150,35)" rx="2" ry="2" />
<text  x="1026.56" y="271.5" ></text>
</g>
<g >
<title>tick_sched_do_timer (138,925,106 samples, 0.02%)</title><rect x="950.9" y="229" width="0.2" height="15.0" fill="rgb(227,104,25)" rx="2" ry="2" />
<text  x="953.95" y="239.5" ></text>
</g>
<g >
<title>asm_sysvec_apic_timer_interrupt (1,845,172,744 samples, 0.20%)</title><rect x="31.9" y="293" width="2.3" height="15.0" fill="rgb(232,127,30)" rx="2" ry="2" />
<text  x="34.85" y="303.5" ></text>
</g>
<g >
<title>do_writev (148,615,245 samples, 0.02%)</title><rect x="21.9" y="197" width="0.1" height="15.0" fill="rgb(239,157,37)" rx="2" ry="2" />
<text  x="24.86" y="207.5" ></text>
</g>
<g >
<title>recv (395,694,171 samples, 0.04%)</title><rect x="10.0" y="309" width="0.5" height="15.0" fill="rgb(222,82,19)" rx="2" ry="2" />
<text  x="13.00" y="319.5" ></text>
</g>
<g >
<title>perf_event_task_tick (140,918,053 samples, 0.02%)</title><rect x="1023.6" y="181" width="0.2" height="15.0" fill="rgb(205,3,0)" rx="2" ry="2" />
<text  x="1026.65" y="191.5" ></text>
</g>
<g >
<title>hrtimer_interrupt (317,070,667 samples, 0.03%)</title><rect x="1023.5" y="277" width="0.4" height="15.0" fill="rgb(228,109,26)" rx="2" ry="2" />
<text  x="1026.51" y="287.5" ></text>
</g>
<g >
<title>do_syscall_64 (148,615,245 samples, 0.02%)</title><rect x="21.9" y="245" width="0.1" height="15.0" fill="rgb(209,20,4)" rx="2" ry="2" />
<text  x="24.86" y="255.5" ></text>
</g>
<g >
<title>serde_path_to_error::de::&lt;impl serde_core::de::Visitor for serde_path_to_error::wrap::Wrap&lt;X&gt;&gt;::visit_map (90,860,431 samples, 0.01%)</title><rect x="22.7" y="309" width="0.1" height="15.0" fill="rgb(234,137,32)" rx="2" ry="2" />
<text  x="25.67" y="319.5" ></text>
</g>
<g >
<title>sock_write_iter (148,615,245 samples, 0.02%)</title><rect x="21.9" y="149" width="0.1" height="15.0" fill="rgb(243,178,42)" rx="2" ry="2" />
<text  x="24.86" y="159.5" ></text>
</g>
<g >
<title>irqentry_exit (176,164,443 samples, 0.02%)</title><rect x="957.6" y="293" width="0.3" height="15.0" fill="rgb(219,66,15)" rx="2" ry="2" />
<text  x="960.65" y="303.5" ></text>
</g>
<g >
<title>asm_sysvec_apic_timer_interrupt (352,290,418 samples, 0.04%)</title><rect x="1023.5" y="325" width="0.5" height="15.0" fill="rgb(232,127,30)" rx="2" ry="2" />
<text  x="1026.51" y="335.5" ></text>
</g>
<g >
<title>irq_exit_rcu (210,612,587 samples, 0.02%)</title><rect x="957.4" y="293" width="0.2" height="15.0" fill="rgb(254,227,54)" rx="2" ry="2" />
<text  x="960.38" y="303.5" ></text>
</g>
<g >
<title>tcp_write_xmit (98,917,086 samples, 0.01%)</title><rect x="21.9" y="53" width="0.1" height="15.0" fill="rgb(231,122,29)" rx="2" ry="2" />
<text  x="24.92" y="63.5" ></text>
</g>
<g >
<title>native_queued_spin_lock_slowpath (140,940,090 samples, 0.02%)</title><rect x="948.5" y="197" width="0.2" height="15.0" fill="rgb(238,153,36)" rx="2" ry="2" />
<text  x="951.52" y="207.5" ></text>
</g>
<g >
<title>down_read_trylock (105,692,210 samples, 0.01%)</title><rect x="947.9" y="277" width="0.2" height="15.0" fill="rgb(219,66,15)" rx="2" ry="2" />
<text  x="950.95" y="287.5" ></text>
</g>
<g >
<title>vma_alloc_folio (184,511,124 samples, 0.02%)</title><rect x="12.3" y="197" width="0.3" height="15.0" fill="rgb(245,187,44)" rx="2" ry="2" />
<text  x="15.33" y="207.5" ></text>
</g>
<g >
<title>realloc (1,377,523,877 samples, 0.15%)</title><rect x="23.0" y="309" width="1.7" height="15.0" fill="rgb(246,189,45)" rx="2" ry="2" />
<text  x="25.96" y="319.5" ></text>
</g>
<g >
<title>sysvec_apic_timer_interrupt (352,290,418 samples, 0.04%)</title><rect x="1023.5" y="309" width="0.5" height="15.0" fill="rgb(220,69,16)" rx="2" ry="2" />
<text  x="1026.51" y="319.5" ></text>
</g>
<g >
<title>core::slice::sort::shared::smallsort::sort4_stable (6,130,847,699 samples, 0.66%)</title><rect x="1024.0" y="341" width="7.8" height="15.0" fill="rgb(226,99,23)" rx="2" ry="2" />
<text  x="1026.96" y="351.5" ></text>
</g>
<g >
<title>[libc.so.6] (948,846,807 samples, 0.10%)</title><rect x="23.5" y="293" width="1.2" height="15.0" fill="rgb(223,84,20)" rx="2" ry="2" />
<text  x="26.49" y="303.5" ></text>
</g>
<g >
<title>__skb_datagram_iter (249,251,413 samples, 0.03%)</title><rect x="10.1" y="133" width="0.3" height="15.0" fill="rgb(244,179,42)" rx="2" ry="2" />
<text  x="13.09" y="143.5" ></text>
</g>
<g >
<title>do_anonymous_page (94,214,407 samples, 0.01%)</title><rect x="948.4" y="229" width="0.1" height="15.0" fill="rgb(238,155,37)" rx="2" ry="2" />
<text  x="951.35" y="239.5" ></text>
</g>
<g >
<title>[libc.so.6] (3,259,776,455 samples, 0.35%)</title><rect x="30.0" y="309" width="4.2" height="15.0" fill="rgb(223,84,20)" rx="2" ry="2" />
<text  x="33.04" y="319.5" ></text>
</g>
<g >
<title>serde_json::de::Deserializer&lt;R&gt;::parse_decimal (3,342,391,610 samples, 0.36%)</title><rect x="1184.7" y="341" width="4.3" height="15.0" fill="rgb(228,108,25)" rx="2" ry="2" />
<text  x="1187.73" y="351.5" ></text>
</g>
<g >
<title>tokio-runtime-w (923,985,173,390 samples, 100.00%)</title><rect x="10.0" y="357" width="1180.0" height="15.0" fill="rgb(223,84,20)" rx="2" ry="2" />
<text  x="13.00" y="367.5" >tokio-runtime-w</text>
</g>
<g >
<title>sync_regs (234,949,126 samples, 0.03%)</title><rect x="957.9" y="325" width="0.3" height="15.0" fill="rgb(228,106,25)" rx="2" ry="2" />
<text  x="960.92" y="335.5" ></text>
</g>
<g >
<title>do_anonymous_page (437,076,317 samples, 0.05%)</title><rect x="12.1" y="229" width="0.6" height="15.0" fill="rgb(238,155,37)" rx="2" ry="2" />
<text  x="15.13" y="239.5" ></text>
</g>
</g>
</svg>
